<?xml version="1.0" encoding="utf-8"?>
<!-- Generator: Adobe Illustrator 28.0.0, SVG Export Plug-In . SVG Version: 6.00 Build 0)  -->
<svg version="1.1" id="Layer_1" xmlns="http://www.w3.org/2000/svg" xmlns:xlink="http://www.w3.org/1999/xlink" x="0px" y="0px"
	 viewBox="0 0 2717.7 1163.9" style="enable-background:new 0 0 2717.7 1163.9;" xml:space="preserve">
<style type="text/css">
	.st0{fill:#020202;}
</style>
<path class="st0" d="M0.1,1083.8c1-1.4,1.7-0.2,2.4,0.3c5.6,4.4,12,7.1,18.7,9.1c27.1,8.2,53.6,18.1,81.4,24.1
	c29.8,6.4,59.8,9.5,90.2,8.3c3.2-0.1,5.5,0.1,4.5-4.8c-5.9-28.6-11.4-57.2-17.9-85.7c-0.2-1,0.2-2.9-0.9-2.9c-1.3,0-1,1.9-1.1,3
	c-0.8,11-1.5,21.9-2.2,32.9c-0.2,2.7-0.1,5.3-0.4,8c-0.2,1.7,0.3,3.5-1,5c-0.5-1.6-1.1-3.1-1.5-4.7c-3-12.2-6-24.5-8.9-36.7
	c-0.3-1.1-0.1-2.9-1.3-3c-1.4-0.1-0.9,1.7-1.2,2.7c-0.8,2.1-1.5,2.1-2.9,0.6c-2.2-2.3-4.5-4.5-6.7-6.7c-1.3-1.2-2.2-2.6-3.3,0.5
	c-0.9,2.7-0.7,6.9-3.5,7.6c-2.1,0.5-5-2.1-7.6-3.3c-0.9-0.4-1.9-0.7-2.7-1.2c-2.4-1.4-3-0.8-3,1.9c0.1,10.7,0.1,21.3,0,32
	c0,1.4,0.6,2.9-0.6,4.1c-0.9-1.1-2-2.2-2.7-3.4c-6-9.6-11.9-19.2-18-28.7c-0.7-1.1-1.2-3-2.5-2.7c-1.4,0.3-0.8,2.3-1.3,3.5
	c-0.9,2.3-0.3,6.7-2,6.7c-2.2,0-2.3-4.1-3.5-6.3c-1.8-3.2-1.8-7.3-4.9-9.8c-0.1,3.6-0.1,7.2-0.3,10.8c-0.1,2.2,0.8,6-0.8,6.4
	c-2.5,0.7-4.5-2.2-6-4.2c-6.4-8.5-8.6-18.6-10.3-28.7c-1.3-7.9-2.1-15.8-3-23.7c-0.2-2.1-0.3-2.8-2.8-2.1c-6.5,1.9-13.3,3-19.8,5
	c-3.9,1.2-5.5,0-6.1-3.7c-0.2-1.3-0.5-2.6-0.9-3.9c-1-2.7-0.2-3.6,2.6-4.3c37-9.1,73.9-18.4,111-27.5c3.9-1,4.3-2.4,3.5-5.8
	c-1.2-4.8-2.1-9.7-3-14.6c-0.5-2.8-1.4-3.5-4.5-3.3c-12.8,0.8-25.2-0.7-36.8-6.5c-26.8-13.3-30.9-44.9-8.6-64.8
	c7.6-6.8,16.4-11.3,26.1-14c3.7-1,4.9-2,3.3-5.8c-2.3-5.6,0.3-10.3,3.9-14.5c1-1.1,2.2-2,3.9-1.9c1.3,0.1,3.2-0.2,3.6,0.5
	c0.6,0.9-1.2,1.7-1.8,2.6c-0.8,1.2-1.9,2.3-2.6,3.6c-2.2,3.8-0.8,7.5,0.8,11c1.4,3.1,4.5,1.3,6.6,1.2c12.5-0.6,24.6,0.5,35.9,6.3
	c11.6,5.9,20.1,14.7,22.6,28c2.9,15.1-3.3,26.9-14,36.9c-6.9,6.4-15.2,10.7-24,13.8c-2.7,0.9-3.2,1.9-2.5,4.6c1.3,5,2.5,10,3.2,15.1
	c0.4,3.4,1.6,3.4,4.4,2.7c30.4-7.6,60.8-15,91.2-22.5c6.8-1.7,13.6-3.1,20.2-5.1c3.4-1,4.6,0.3,5.3,3c0.4,1.4,0.7,2.9,1,4.4
	c0.6,2.4,0.3,3.7-2.7,4.5c-7.9,2-7.8,2.2-8.3,10.1c-0.6,9.5-1.3,18.9-1.9,28.4c0,0.6,0,1.7-0.3,1.8c-1,0.5-1.3-0.6-1.7-1.3
	c-0.3-0.4-0.5-0.8-0.8-1.2c-1.8-2.4-2.4-5.8-5.4-7.3c-0.9,2.8-1.9,5.5-2.8,8.3c-1.9,6-3.8,12-5.7,18c-0.2,0.6-0.3,1.6-0.7,1.7
	c-1,0.3-1.3-0.7-1.7-1.4c-1.8-3.4-3.6-6.7-5.5-10.1c-0.4-0.8-0.6-2.1-1.9-1.8c-0.3,0.1-0.3,1.4-0.4,2.2c-1,13.8-2,27.6-3,41.3
	c-0.1,0.8-0.2,2.2-0.3,2.2c-1.3,0-1.3-1.2-1.6-2.1c-3.4-9.2-6.7-18.4-10-27.5c-0.4-1.2-0.4-2.9-2-3c-1.7-0.1-1.8,1.6-2.3,2.8
	c-2.3,6-4.7,12-7,18.1c-0.9,2.3-1.5,3.6-3.5,0.6c-1.2-1.8-2.4-5.4-4.2-4.8c-1.8,0.5-0.9,4.1-0.9,6.4c-0.1,6.3,0.1,12.7,0,19
	c0,0.9,0.4,2.3-0.5,2.6c-1.2,0.4-1.2-1.2-1.7-2c-1.5-2.7-2.8-5.6-4.4-8.3c-0.6-1-0.6-2.8-2.3-2.6c-0.2,0-0.4,2.1-0.4,3.2
	c-0.1,18-0.1,36-0.2,54c0,1.1,0.6,2.8-0.4,3.1c-1.5,0.4-1.4-1.6-1.8-2.5c-4.3-10.4-8.5-20.8-12.7-31.3c-0.4-0.9-1-1.6-1.5-2.5
	c-0.8,0.8-0.4,1.8-0.2,2.6c4.6,22.7,9.3,45.5,14,68.2c0.5,2.4,1.6,2.5,3.9,2.1c18.7-3.4,34.2-12.7,48.7-24.6
	c21.9-17.9,43.1-36.7,66.5-52.7c9.7-6.7,20-11.9,31.5-15.4c13.3-4,25-12.1,37.3-18.5c3.1-1.6,0.3-2-0.7-2.5c-6.4-4-12.5-8.2-18-13.3
	c-14-12.9-17.7-29.8-9.8-44.5c7-12.9,17.4-17.1,31.4-12.5c10.9,3.6,20,10.3,28.7,17.6c6.6,5.6,12.8,11.6,18.3,18.4
	c2,2.5,3.5,3.1,6.4,0.8c6.9-5.4,14.1-10.5,21.4-15.4c3.1-2.1,3.5-3.7,1.7-7.1c-10-18.4-18.4-37.4-23-58c-3-13.3-4.5-26.7-0.4-39.9
	c6.1-19.4,18.6-29.7,39.9-27.1c14.1,1.7,24.6,9.3,33,20.2c13.4,17.3,20.1,37.5,25,58.5c0.9,4,0.5,9.8,3,11.6c2.6,1.8,7.5-1.9,11.4-3
	c6.6-1.8,13.1-3.6,19.7-5.2c2.6-0.7,3.6-1.5,3.2-4.7c-1.1-9.6-1.8-19.2-2.4-28.9c-0.2-3.1-1-4.3-4.4-4.3c-7.3,0-14.6-0.6-22-0.7
	c-2.9,0-4.2-0.5-3.8-3.8c0.4-4.6,0.5-9.3,0.3-14c-0.2-3.6,1.3-4.5,4.7-4.3c6.5,0.5,13,0.5,19.5,0.9c2.6,0.2,3.3-0.5,3-3.3
	c-1-9.4-1.5-18.9-2.4-28.4c-0.2-2.4,0.1-3.6,2.9-3.7c4.5-0.2,8.9-0.9,13.4-1.5c2.1-0.3,2.8,0.2,3,2.5c0.8,10.4,2.1,20.9,2.7,31.3
	c0.2,3.4,1.4,4,4.4,4.1c7.3,0.1,14.6,0.5,22,0.7c2.5,0,3.4,0.7,3.2,3.4c-0.4,5.1-0.5,10.3-0.4,15.5c0.1,2.7-0.8,3.4-3.4,3.3
	c-6.8-0.4-13.6-0.6-20.5-0.9c-2.3-0.1-3.3,0.3-3,3c1,8.9,2,17.9,2.6,26.8c0.2,3.2,1.4,3.5,4,3.1c14.3-2.2,28.7-3.6,43.2-4.4
	c16-0.9,32-1.1,47.9,0.1c9.9,0.7,19.6-0.7,29.4-1.9c35.6-4.2,70.9-10.5,105.6-19.8C877,871.5,913.9,858,948.7,839
	c5.9-3.2,8.5-6.5,7.3-13.4c-1.6-8.7-2.4-17.5-3.3-26.2c-0.4-4.3-2-4.3-5.3-2.4c-9.7,5.4-19.6,10.5-29.4,15.6
	c-1.2,0.6-2.6,2.3-3.8,1.3c-1-0.9,0.5-2.4,0.9-3.6c5-14.5,14.8-25.1,28-32.4c4.1-2.3,4.6-4.8,2.8-8.6c-0.9-1.8-1.7-3.6-2.1-5.6
	c-0.5-2.1-4-3.6-1.5-6.4c3-3.3,11.5-6.5,14-5.3c1.7,0.8,1.3,2.5,1.6,3.9c0.8,3.7,0.4,9,2.7,10.7c2,1.5,6.3-2.5,9.5-4.1
	c15.1-7.6,30.5-14.6,46.3-20.6c2.8-1.1,3.9-2.5,3.5-5.5c-0.5-3.4-0.8-6.9-1.1-10.4c-0.2-2.9-1.1-4.2-4.2-2.8
	c-4.2,1.8-8.7,3.3-13,4.9c-1,0.4-2.2,1.6-3.2,0.7c-1.2-1.2,0.5-2.3,0.8-3.5c0.5-1.7,1.7-3.3,2.1-5c2.6-10.2,9.8-14.8,19.5-17.3
	c19.9-5.3,40-9.3,60.3-12.8c2.9-0.5,4-1.3,3.7-4.4c-0.6-5.5-0.9-11-1.2-16.4c-0.2-3-1.3-4.7-4.5-5.4c-4.8-1.1-9.5-3.1-14.3-4.2
	c-3.3-0.8-4.5-2.5-4.7-5.8c-0.6-12-1.5-23.9-2.2-35.9c-1.6-25.6-3.2-51.2-4.7-76.8c-1.5-24.1-2.9-48.2-4.3-72.3
	c-0.4-7-0.9-14-1.2-20.9c-0.1-3.2-1.3-4.9-4.3-6.3c-13.3-6.4-24.5-15.2-32.1-28.2c-5.6-9.5-6.4-19.7-5.4-30.4
	c0.1-0.6-0.2-1.5,0.7-1.5c0.4,0,1,0.7,1.3,1.2c1.6,2.5,2.9,5.3,4.7,7.6c6.8,8.9,15.3,11.6,26,8c12.8-4.2,23.8-11.9,31.5-22.7
	c27.4-38.7,49-80.3,60.4-126.7c2.9-11.6,4.6-23.5,5.4-35.4c0.1-0.9,0.2-1.9,0.3-2.8c1.5,0.2,1.4,1.6,1.9,2.5
	c13.6,25.9,30,49.8,51.9,69.6c19.1,17.2,40.6,29.8,66.5,33.6c3.3,0.5,4.5,1.1,2.4,4.7c-4.4,7.7-8.9,15.2-16,20.8
	c-3.4,2.7-7,4.4-11.4,4.2c-2.4-0.1-3.5,0.2-1.7,2.8c4.2,6.2,8.3,12.5,12.3,18.8c1.3,2.1,2.2,2.2,4,0.3c14.8-15.6,29.8-31,44.7-46.4
	c1.2-1.2,2-2.3,1.8-4.3c-3.6-27.2-7-54.4-10.5-81.6c-1.1-8.7-2.3-17.5-3.1-26.2c-0.3-3.1-1.1-3.4-3.9-2.8
	c-7.3,1.5-14.8,2.2-22.3,0.8c-14.5-2.8-23-11.4-24.8-25.9c-0.7-5.8-1-11.6-0.2-17.4c0.1-0.8,0-2.1,0.4-2.2c1-0.4,1.2,0.8,1.5,1.5
	c7,12.2,18.4,13.9,30.7,6.1c11-6.9,18.6-17.1,26.3-27.1c23.1-30,46.1-60.2,68.9-90.5c2.7-3.6,3.7-3.7,6.2,0.1
	c19.7,29,39.7,57.8,59.3,86.8c8.9,13.1,21.4,20.5,36.1,24.7c8.3,2.4,12.6,0,16.5-7.8c0.4-0.8,0.4-2.4,1.5-2.1c1,0.2,0.5,1.7,0.5,2.6
	c0.9,20.4-11.5,33.6-32.3,34.1c-8.9,0.2-9,0.2-8.6,9.3c1.3,23.9,2.7,47.9,4,71.8c0.1,2.6,1.1,3.8,3.4,4.7
	c19.8,7.6,39.5,15.3,59.2,23c4.2,1.7,8.1,1.5,12.4-0.5c30.9-14,60-30.8,84.6-54.4c13.8-13.2,25.3-28.2,33.1-45.8
	c0.5-1.1,0.7-2.9,2-2.8c1,0,1,1.9,1.4,3c9.3,28.4,20.3,56.1,35.9,81.7c10.9,17.8,23.6,34.3,40.5,47c8,6,16.6,11,26.5,13.1
	c16,3.4,28.2-5.1,30.8-21.3c0.1-0.7,0.1-1.8,0.3-1.9c0.8-0.2,0.7,0.8,0.8,1.3c3.5,12,4.8,24.2,0.4,36.2c-4.8,13-14.8,20-28.2,21.3
	c-10.1,1-20.4,1.2-29.7-3.9c-3.3-1.8-2.4,0.6-2.3,2c2.8,24.5,1.5,49.1,2.9,73.6c1.2,22.1,2.1,44.3,2.7,66.4
	c0.2,5.8,1.7,10.6,4.9,15.3c11.5,16.9,22.8,33.9,34.3,50.8c1.8,2.6,1.9,4.3-0.2,6.9c-3.8,4.8-7,10.1-10.5,15.1
	c-14.7,21.1-17.8,44.6-14.1,69.5c1.8,11.8,4.1,23.5,8.6,34.7c10,25.1,27.4,41.3,54.9,44.7c11.5,1.4,21,5.7,29.5,13.8
	c9.6,9.2,20.9,16.5,32.5,23c16.4,9.2,30.6,21,44.7,33.2c36.2,31.3,76.2,56.5,122.5,70.5c25.8,7.8,52.2,11.2,79,12.7
	c21.9,1.2,44,0.9,65.4,6.4c27.4,7,51,21.2,72.9,38.5c28.6,22.5,53.5,49,79.2,74.7c18,18,36.4,35.7,56.8,51.1
	c29.3,22.1,63,34.1,98.4,42.3c9.5,2.2,19.2,3.7,28.8,5.3c2.5,0.4,3.1,0,3.6-2.4c4.8-23.8,9.8-47.5,14.6-71.3
	c0.2-1.1,1.9-3.2-0.3-3.7c-1.2-0.3-1.4,1.8-1.9,3c-4.5,11.1-9,22.1-13.5,33.2c-0.5,1.3-0.8,2.7-2,3.7c-0.1-1.4-0.4-2.9-0.4-4.3
	c-0.1-20.5-0.1-41-0.3-61.5c0-1.5,1-3.8-0.9-4.3c-1.2-0.3-1.8,2.1-2.5,3.3c-1.5,2.8-2.9,5.6-4.4,8.4c-0.8,1.4-1.2,4.1-2.7,3.8
	c-1.7-0.4-0.7-2.8-0.7-4.4c-0.1-8.8-0.1-17.7-0.1-26.5c0-0.9,0.5-2.2-0.7-2.5c-0.4-0.1-1.2,1.3-1.8,2c-1.8,2.1-3.2,6.6-5.1,6.2
	c-2.4-0.5-2.6-4.9-3.7-7.5c-2.3-5.5-4.3-11.2-6.5-16.7c-0.4-1-0.7-2.5-2.1-2.6c-1.7-0.1-1.9,1.5-2.4,2.7
	c-3.7,10.5-7.4,20.9-11.3,31.4c-0.4,1.2-0.3,3.7-2,3.3c-1.5-0.3-0.8-2.6-0.9-4c-1.1-14.9-2.1-29.9-3.2-44.9
	c-0.1-1.3,0.2-3.3-0.9-3.6c-1.3-0.3-1.7,1.7-2.3,2.8c-1.9,3.5-3.7,7.1-5.5,10.6c-0.4,0.9-0.8,2.2-1.8,2.1c-1-0.2-1-1.6-1.1-2.5
	c-1-8.9-2-17.9-3-26.8c-0.1-0.6-0.3-1.3-0.5-1.9c-0.2,0.6-0.5,1.2-0.7,1.8c-0.3,1.1-0.6,2.3-0.8,3.4c-0.3,1.5-0.4,3-0.6,4.4
	c-1.8-1.3-1.2-3.3-1.3-5.1c-0.9-13.3-0.7-26.6-2.7-39.8c-0.5-3.4,0.4-7,0.6-10.4c0.1-1.5,0.7-2.1,2.2-1.4
	c20.2,9.2,42.1,12,63.2,17.7c15.1,4.1,30.4,7.3,45.5,11.2c3.1,0.8,3.8,0,4.3-2.6c1.1-5.9,2.2-11.8,3.7-17.6c0.8-3.3,0.2-4.9-3.3-6.1
	c-8.9-3-17.1-7.3-24.4-13.2c-10.5-8.6-18.2-19.1-19.4-33.1c-1.6-18.8,7-32.4,22.6-41.9c13.9-8.5,29.3-10.3,45.2-9.5
	c2.6,0.1,6.2,2.3,7.8-0.9c2-4.1,3.4-8.7,0.9-13.4c-0.5-0.9-1.2-1.6-1.7-2.4c-1.1-1.5-3.8-3.8-3.1-4.3c2.4-1.5,5.4-1.1,7.8,0.9
	c4.8,3.9,7.7,11.7,5.3,17.6c-1.9,4.7-0.2,5.4,3.8,6.5c13.5,3.9,25.5,10.4,34.9,21.2c19.1,21.8,14.4,52.4-10.4,67.3
	c-14.2,8.6-29.9,10.7-46.1,9.9c-3.9-0.2-5.6,0.4-6,4.7c-0.6,5.9-2.2,11.8-3.5,17.6c-0.7,2.9,0.3,4.1,3.2,4.8
	c38.9,9.5,77.7,19.2,116.6,28.8c4.5,1.1,9,2.3,13.6,3.3c2.1,0.4,3,1.3,2.2,3.4c-0.1,0.2-0.1,0.3-0.2,0.5
	c-2.2,11.1-2.1,11.1-13.1,8.3c-5.6-1.5-11.4-2.4-16.9-4.2c-4.1-1.4-4.4,0.5-4.6,3.6c-0.5,10.2-1.9,20.2-3.9,30.2
	c-1.3,6.4-2.7,12.7-5.3,18.6c-1.3,2.9-2.6,5.8-4.4,8.4c-2.1,3.1-4.7,7.7-8.3,6.8c-2.5-0.6-0.9-5.9-1.1-9.1c-0.2-2.8,0-5.7-0.1-8.5
	c0-0.8-0.1-2.1-0.4-2.2c-1.4-0.3-1.3,1.2-1.6,1.9c-2.1,5-4.1,10.1-6.2,15.2c-0.3,0.8-0.5,2.2-1.9,1.9c-1-0.2-0.5-1.4-0.7-2.1
	c-1.2-3.5-0.7-7.4-2.8-10.6c-2.1,3-4.3,5.9-6.2,9c-6,9.6-11.9,19.2-18,28.8c-0.6,1-0.9,3-2.5,2.4c-1.2-0.4-0.5-2.1-0.5-3.2
	c-0.1-12.2-0.3-24.3-0.1-36.5c0.1-5.1-1.6-5-5.2-3c-2.8,1.5-5.7,2.6-8.5,4.1c-2,1-3.1,0.8-3.4-1.6c-0.1-0.5-0.4-0.9-0.6-1.4
	c-2.9-8.5-2.9-8.5-9.4-2c-1.2,1.2-2.4,2.3-3.6,3.5c-1.9,2.2-3.1,2.3-3.7-1c-0.2-0.9-0.1-2.7-1.5-2.6c-1,0.1-0.8,1.6-1,2.6
	c-3.3,13.7-6.7,27.4-10,41.2c-0.4,1.5-0.7,2.9-1.1,4.4c-0.2,0.8-0.3,1.8-1.4,1.5c-0.4-0.1-0.7-1-0.8-1.6c-0.1-1.2-0.1-2.3-0.2-3.5
	c-1-16.3-1.7-32.6-3.5-48.8c-0.1-0.8-0.3-1.6-0.4-2.4c-0.3,0.7-0.6,1.4-0.8,2.2c-5.3,25.2-10.6,50.4-15.9,75.6
	c-1.7,8.1-3.1,16.4-4.9,24.5c-0.7,3.1-0.3,4.2,3.2,4.3c14.5,0.3,28.9,0.6,43.4,0.7c18.4,0.2,35.9-4.5,53.4-8.5
	c7.6-1.8,13.7-7.4,19.9-12.1c2.5-1.9,4.9-4,7.5-5.8c2.5-1.7,3.9-4,4.3-6.9c1.1-7.9,3.4-15.5,5.3-23.3c1.5-6,4.3-11.2,8.4-16.1
	c17-20.3,33.7-40.8,50.4-61.3c0,55.8,0,111.6,0.1,167.5c0,3.7-0.8,4.6-4.6,4.6c-540.7-0.1-1081.5-0.1-1622.2-0.1
	c-1.3-1.3,0-2.4,0.5-3.4c3-6.6,6.1-13.3,9.3-19.8c35.3-70.5,81.7-132.9,137.2-188.7c41.2-41.5,86.6-77.7,137.7-106.4
	c31.6-17.8,65.3-30.6,99.4-42.5c9.1-3.2,9.3-3.1,3.4-11c-18.5-24.4-37-48.7-55.5-73.1c-1.2-1.6-2.6-3.1-4.8-3.1
	c-17.6,0.5-35.3,0.7-52.9,2c-1.2,0.1-2.8,0.2-3,1.3c-0.3,1.2,1.4,1.7,2.3,2.3c12.4,8.7,24.8,17.4,36.3,27.2
	c13.1,11.2,25.4,23.1,32.8,39c5,10.8,4.9,10.9-5.9,15.2c-45.2,17.9-90.4,36-134.7,56.1c-67.5,30.7-133.5,64.3-195.4,105.3
	c-45,29.8-87.5,62.5-122.5,104c-23.7,28.1-42.5,58.9-50.1,95.5c-306.8,0-613.5,0-920.3,0.1c-3.7,0-4.6-0.8-4.6-4.6
	C0.2,1134.1,0.1,1108.9,0.1,1083.8z M1648.8,902.1l0.1-0.2l-0.3,0.1c0.3-2.1,0.1-4-1.7-5.4c-0.3-0.2-1.6,0.4-1.6,0.7
	c-0.3,2.3,2,3,3.1,4.4C1648.5,901.9,1648.7,902,1648.8,902.1z M127.1,907.8c-0.2-0.7-1-1.1-1.3-0.8c-0.8,1,0.6,1,0.9,1.4
	c3.5,3.1,7,6.1,10.5,9.2c2.5,2.3,7.7,1.6,7.9,1.3c2.4-4.5,4.6-0.8,6.9-0.3c0.9,0.2,3,2.6,2.8-0.6c-0.2-3.9,1.8-1.7,3.3-1.6
	c1.4,0.1,3.6,3,4.3-0.3c1-4.5,3-2.6,5-1.2c2.3,1.6,3.7,2,3.9-1.6c0.1-0.9,0.7-3.1,1.4-2.6c5.2,4.1,4.6-0.3,5.1-3.3
	c0-0.2,0.6-0.6,0.6-0.6c4.7,3.1,3.7-1.9,4.9-3.6c0.9-1.3,1.5-1.5,2.6-0.3c0.5,0.5,1.3,0.8,1.3-0.2c0.1-2.9-0.9-6.6,4.3-5.7
	c0.1,0,0.3-0.5,0.4-0.9c0.7-3.6,1.4-7.1,2.1-10.7c0.1-0.4-0.2-0.9-0.3-1.4c-0.4,0.2-1,0.4-1.2,0.7c-0.8,1.2-1.5,2.6-2.3,3.9
	c-1,1.5-1.2,4.5-4,3c-3.2-1.6-3.9,0-3.9,2.5c0,2.6-1.2,2.6-2.9,1.6c-3.1-2-4-0.5-4.4,2.4c-0.2,1.4-0.8,3.2-2.8,1.5
	c-2.6-2.3-4-0.9-5.2,1.5c-1,1.9-2.4,3-4.1,0.8c-2.6-3.4-3.4-1.5-4.1,1.2c-0.9,3.8-2.5,4.6-5.2,1.2c-1.8-2.2-3.2-1.5-3.2,1.1
	c-0.1,3.7-1.6,3-3.9,1.8c-2.4-1.3-5.1-3.9-7.3,0.4c-0.7,1.3-1.6,0.5-1.7-0.2c-1.6-6.5-3.4-2.3-4.7,0
	C130.9,910.6,128.9,907.3,127.1,907.8z M1356,680.4c0,9.1-0.3,15.3,0.1,21.5c0.5,9.3-0.3,7.2,7.6,7.8c2.8,0.2,5.7,0.1,8.5,0.1
	c9.1,0,9,0,8.1-9.1c-2.4-26.3-3-52.5,2.6-78.5c1.9-9.1,3.5-18.3,8.4-26.4c4.5-7.4,10.1-9.2,18.2-6.1c4.6,1.8,8.3,4.9,12.1,7.9
	c1,0.8,2.2,2.7,3,2c1.3-1.1-0.3-2.8-1-4c-4.4-6.9-10.2-12.2-17.8-15.5c-9.5-4.1-17.7-2.4-24.9,5.2c-5.6,5.9-9.2,12.9-12.1,20.4
	C1359,630.6,1357.2,656.9,1356,680.4z M1024.6,781.4c-0.5-5.4-1.3-11.5-1.7-17.6c-0.2-3.3-1.3-3.4-4-2.2c-17.7,8-34.8,17-52.2,25.6
	c-1.4,0.7-2.5,1.3-2.1,3.3c2,9.9,3.8,19.8,5.7,29.8c0.3,1.6,0.8,2.3,2.6,0.9c16-12.4,32.8-23.7,49.9-34.5
	C1024.9,785.5,1025.1,784,1024.6,781.4z M1179.8,484.9c-0.6-12.5-2-24.7-7.7-36.2c-1.3-2.7-2.2-2.8-4.6-1.3
	c-4.5,2.8-9.2,5.3-13.9,7.6c-2,1-2.9,2.2-3,4.4c-0.7,9.1-0.4,18.3-0.4,27.4c0,1.9,0.3,3,2.7,3.1c6.6,0.4,13.2,1.3,19.8,1.8
	C1179.9,492.4,1179.9,492.3,1179.8,484.9z M1085.7,735.7c-0.5-1.2-1.4-0.4-2.2-0.2c-16.9,4.2-32.6,11.7-48.5,18.5
	c-1.4,0.6-2,1.4-1.8,3c0.9,6.4,1.9,12.8,2.5,19.2c0.3,2.8,1.2,2.2,2.9,1.3c6-3.2,12.2-6,18-9.5c6.3-3.7,15.1-3.3,19.2-10
	c3.8-6.3,6.1-13.5,9.1-20.3C1085.1,737.2,1085.3,736.6,1085.7,735.7z M1362,451.8c0,0.1,0,0.1,0,0.2c3.7,0,7.3-0.2,11,0.1
	c3.1,0.2,4.5-0.4,4-4c-0.6-4.4-0.7-8.9-1.1-13.4c-0.5-6,1.3-13.5-2.7-17.5c-3.9-4-11.3-3.9-17.2-5.5c-2.8-0.8-3.6-0.2-4.4,2.5
	c-3.5,11.3-4.6,23-5.4,34.7c-0.1,2.2,0.7,2.9,2.8,2.9C1353.4,451.7,1357.7,451.8,1362,451.8z M2525.1,852.3
	c0.8,3.7,1.6,7.4,2.5,11.2c0.2,0.8,0.3,2,1.3,1.5c5.3-2.5,3.1,1.9,3.6,3.8c0.3,1-0.3,3.7,1,2.8c4.8-3.5,3.3,1.9,4.8,3
	c1,0.7,0.4,4.1,2.4,2.3c4.7-4,2.9,0.9,2.9,2.1c0,3.9,1.1,4.3,4,2c1.3-1.1,2.8-1.5,2.9,1.1c0.3,5.7,2.9,4.8,6.3,2.3
	c1.1-0.8,3.1-2.6,3.6,0.4c0.8,4.8,3.5,3,6.1,2.1c1.2-0.4,3.6-2.1,3.6-0.1c-0.1,8.1,3.6,1.4,5.4,1.6c1.3,0.1,2.8-2.8,4.1-0.2
	c1.1,2.3,2.6,3.1,4.5,1.5c1.9-1.7,3.6,1.7,5.8-0.5c3.9-4.1,8.4-7.5,12.7-11.3c0.5-0.4,0.9-1,1.3-1.5c-0.9-0.6-1.6,0-2.2,0.4
	c-3,2-5.4,1.9-7.1-1.8c-0.5-1-1.1-2.5-2.3-2.4c-1.3,0.1-1.1,1.9-1.7,2.7c-0.5,0.7-0.7,3.8-1.9,1.8c-3.3-5.5-6.3-2-9.4-0.4
	c-2.1,1-3.6,1.8-3.8-1.6c-0.3-4.3-1.9-4.7-4.6-1.4c-2.6,3.3-4,2.2-5-1.2c-0.2-0.6-0.4-1.3-0.6-1.9c-0.7-2.7-1.8-3.8-3.9-0.9
	c-2.4,3.3-4.2,1.9-5.7-0.9c-1-1.8-2.1-3.7-4.5-1.7c-2.7,2.2-3.9,1.3-4.4-1.8c-0.4-2.9-1.6-4.3-4.6-2.3c-2.5,1.7-3.8,0.9-3.9-2.1
	c-0.1-2.5-0.7-4.4-3.8-2.5c-2.1,1.3-3.4,0.5-4.3-1.5c-0.8-1.6-1.6-3.3-2.6-4.8c-0.5-0.8-0.7-2.5-1.8-2.3
	C2524.7,849.8,2525.2,851.3,2525.1,852.3z M1378.3,248c0,0,0,0.1,0,0.1c3,0,6-0.1,9,0c4,0.1,5.5-1.9,5.5-5.7
	c0-15.3-14.8-30.8-30-31.3c-2.5-0.1-3.6,0.3-3.1,3.2c1.5,9.5,2.6,19.1,4.3,28.5c0.5,2.8,1.9,6,6.3,5.2
	C1372.9,247.7,1375.7,248,1378.3,248z M1086.8,712.2c-0.3-6.9-0.3-7-6.4-6.3c-13.5,1.5-26.6,5.1-39.7,9c-13.3,4-13.3,4-10.5,17.7
	c0.6,2.8,1.5,3.2,4,2.2c16-6.7,32.4-12.3,48.9-17.8C1085.8,716,1087.7,715,1086.8,712.2z M1344.6,249c0,0.1,0,0.2,0,0.3
	c4,0,8-0.1,12,0c2.2,0,3.2-0.1,2.8-3c-1.7-10.5-3.1-21-4.4-31.5c-0.3-2.7-1.2-2.8-3.4-2c-13,4-22.2,17.7-22.4,32.6
	c0,2.4,0.9,3.7,3.5,3.6C1336.6,248.9,1340.6,249,1344.6,249z M1391.3,452c1.5,0,3-0.2,4.5,0c4,0.6,5.6-0.6,5.2-5
	c-0.7-7.2-0.9-14.5-1.2-21.8c-0.1-2.5-1-3.6-3.4-3.8c-4.8-0.4-9.5-1-14.2-2.3c-2.8-0.8-2.4,1.2-2.3,2.8c0.6,7.1,1.3,14.2,1.8,21.3
	C1382.4,452,1382.3,452,1391.3,452z M1345.3,254C1345.3,254,1345.3,254,1345.3,254c-4-0.1-8,0-12-0.1c-2.1-0.1-3,0.4-2.5,2.7
	c2.7,11.8,17.7,23.1,29.7,22.6c2-0.1,3-0.3,2.5-2.8c-0.7-3.7-0.9-7.6-1.3-11.3c-1.3-10.9-1.3-10.9-12.5-11
	C1348,254,1346.6,254,1345.3,254z M1632.9,435.1C1632.9,435.1,1632.8,435.1,1632.9,435.1c0,3.3,0.1,6.6-0.1,10
	c-0.1,2.2,0.8,2.9,2.9,2.8c4.3-0.1,8.6-0.4,12.9,0c2.8,0.2,3.4-1,3.6-3.3c0.2-4.8,0.7-9.6,0.8-14.4c0.2-13.6,1.7-10.2-10.5-9.9
	c-8.1,0.2-9.5,2.2-9.6,10.4C1632.8,432.1,1632.9,433.6,1632.9,435.1z M1149.9,506.1c0,3.2,0,6.3,0,9.5c0,1.6,0.2,2.3,2.2,1.8
	c8.2-1.9,16.4-3.7,24.5-6.1c1.4-0.4,2.3-0.8,2.3-2.5c0.1-2.8,0.4-5.6,0.8-8.4c0.4-2.7-0.8-3.3-3.3-3.4c-6-0.3-11.9-0.8-17.8-1.5
	c-8.7-1.1-8.7-1.2-8.7,7.7C1149.9,504.1,1149.9,505.1,1149.9,506.1z M1362.2,456.9c0-0.1,0-0.3,0-0.4c-5,0-11.3-1.9-14.6,0.5
	c-3.8,2.8,0,9.5-0.8,14.4c0,0.2,0,0.3,0,0.5c-0.1,2.1,0.7,2.8,3,2.5c5.9-1,11.8-1.7,17.7-2.4c10.6-1.2,10.5-1.2,10.3-11.7
	c-0.1-2.5-0.5-3.6-3.2-3.4C1370.5,457.1,1366.4,456.9,1362.2,456.9z M1636.3,415.7c4.2-0.3,8.9-0.6,13.5-0.8c2-0.1,3.2-0.4,2.8-2.8
	c-1-6.4-2.2-12.7-5.9-18.3c-3.2-4.8-7.7-7.1-13.3-7.6c-1.2-0.1-3-0.6-2.4,1.8c1.8,7.9,0.7,15.9,0.4,23.8
	C1631.4,415.5,1632.4,416.8,1636.3,415.7z M1125.6,505.7C1125.6,505.7,1125.6,505.7,1125.6,505.7c-0.1,1.2-0.1,2.3-0.1,3.5
	c0,11.3,0.1,11.3,11.3,10.7c8.1-0.5,8.1-0.5,8.2-8.7c0-1.5,0.1-3,0-4.5c-0.1-4,1.3-9-0.6-11.6c-2.3-3-7.8-0.8-11.8-1.6
	c-0.6-0.1-1.3-0.1-2-0.2c-4.3-1-5.6,0.9-5.1,5C1125.9,500.7,1125.6,503.2,1125.6,505.7z M1624.7,434.6c-0.4-2.7,1.9-8.3-0.8-10.5
	c-2.5-2.1-7.9-0.6-12-1.2c-3.7-0.5-4.6,1.2-4.9,4.3c-0.3,4.5-0.9,8.9-1.2,13.4c-0.2,3-1,6.8,0.5,8.7c1.5,1.9,5.1-0.6,7.8-1
	c3.5-0.5,8.4,1.6,10.2-1.4C1626,444.1,1624.7,439.6,1624.7,434.6z M1145.4,474.4C1145.4,474.4,1145.3,474.4,1145.4,474.4
	c0-1.7,0-3.3,0-5c0-10.6,0-10.6-9.3-5.4c-4.3,2.4-8,4.7-8.8,10.7c-1.8,13.3-1.8,13.8,11.9,14.1c7,0.2,6.5,1.4,6.3-6
	C1145.3,480.1,1145.4,477.2,1145.4,474.4z M1616.3,454.4c-11.1,0.3-11.1,0.3-10.9,10.3c0.2,10.1,0.2,10.1,10.6,10.1
	c10.4,0,10.4,0,10.5-10.7C1626.5,454.2,1626.5,454.2,1616.3,454.4z M1378.5,254.8c0,0,0-0.1,0-0.1c-3.3,0-6.7,0.1-10,0
	c-2.5-0.1-3.2,0.7-2.8,3.1c0.8,5.9,1.5,11.8,2.2,17.8c0.3,2.6,1.5,2.8,3.7,1.9c7.8-3.3,13.7-8.6,17.5-16.2c3.1-6.2,3-6.3-3.6-6.4
	C1383.2,254.8,1380.9,254.8,1378.5,254.8z M1157.1,604.2c-0.2,0-0.3,0-0.5,0c-9.8,0.1-9.8,0.1-7.7,9.7c0.8,3.7,0.8,8.7,3.1,10.5
	c2.5,2,7.2-0.6,10.9-1.2c8.1-1.3,8.1-1.3,6.4-9.1C1167,604.1,1167,604.1,1157.1,604.2z M1627.5,397.9c0-0.5,0.1-1.2,0-1.8
	c-0.5-2.9,0-7.4-2.5-8.1c-3.2-0.9-5.8,2.7-7.7,5.4c-4.8,6.6-6.3,14.5-8.4,22.1c-0.6,2.3,0.7,2.5,2.5,2.3c4.1-0.3,8.3-0.7,12.4-0.9
	c1.7-0.1,2.1-0.9,2.3-2.5C1626.5,409,1627,403.5,1627.5,397.9z M1648.1,642.3c0-10.7,0-10.7-8.9-10.6c-10.2,0.1-10.2,0.1-10.2,10.4
	c0,8.6,0,8.6,8.5,9.8C1648.1,653.3,1648.1,653.3,1648.1,642.3z M1395.2,416.1c1.2,0,3.1,0.9,2.6-1.5c-2.1-9.6-4.4-19.1-13.1-25.3
	c-4.1-2.9-4.6-2.5-5.1,2.6c-0.2,2.1-0.5,4.3-0.6,6.4C1378.1,413.5,1380,415.5,1395.2,416.1z M1641.6,914.8
	c9.5-0.2,17.9-6.1,23.4-16.4c1.1-2.1,3.7-4.5,2.2-6.6c-1.2-1.6-4.3-0.6-6.6-0.2c-2.6,0.4-5.6,0.3-7.7,1.5c-3.6,2,0.4,4.9,0,7.4
	c-0.4,2.2,0.7,5-2.1,6.1c-2.4,0.9-4.5-0.6-6.2-2.4c-4.2-4.3-4.2-4.3-7.6,1.1c-0.6,1-1.2,2-1.7,3
	C1632.4,914.2,1632.8,914.8,1641.6,914.8z M1595.3,931.6c3-0.3,6.5-0.6,9.7-2.1c3.3-1.5,8.5-2.9,8.4-6c-0.1-3.4-5.3-4.8-8.7-6.5
	c-3.3-1.6-5.4-1.8-5,3.1c0.2,2.9-1.3,6.1-4.4,6.4c-2.6,0.3-3.9-2.6-4.8-5c-2.7-6.6-2.7-6.6-9.3-3.5c-2.1,1-4,2.3-6.1,3.4
	c-1.8,1-2,1.9-0.1,3.1C1580.9,928.7,1587.4,931.3,1595.3,931.6z M1641.5,454c-1.5,0-3,0.1-4.5,0c-4.1-0.5-6.2,0.7-5.6,5.3
	c0.4,3.9,0.3,8,0.1,12c-0.1,2.7,0.7,3.7,3.6,3.7c12.2,0.2,12.2,0.3,14.5-11.6C1651.4,453.8,1651.4,453.8,1641.5,454z M1161.5,648.8
	c-3.4-0.4-5.4,0.1-3.7,4.3c0.7,1.8,0.8,3.9,1.2,5.8c1.7,8.2,1.7,8.2,10.2,7.1c1.8-0.2,3.6-0.6,5.4-0.9c8.4-1.5,8.3-1.4,5.9-9.8
	c-0.9-3.2-2.2-4.5-5.6-4.7C1170.3,650.4,1165.9,649.4,1161.5,648.8z M1168.9,627.4c-1.7,0.3-4.5,0.5-7.3,1.1
	c-9.2,1.8-9.2,1.8-6.9,11.1c0.5,2.2,0.7,4.1,3.7,4.3c5.4,0.4,10.8,1.1,16.2,1.9c2.2,0.3,3-0.1,2.3-2.5c-1.4-4.6-2.7-9.1-3.9-13.8
	C1172.5,627.8,1171.8,626.8,1168.9,627.4z M1194.2,636.4c0-2.2,0-4.3,0-6.5c-0.1-6.4-0.1-6.4-6.4-5.2c-2.3,0.4-4.6,1-6.9,1
	c-3,0-3.7,1.2-3,3.8c1.4,4.9,2.7,9.9,4.2,14.8c0.3,1,0.3,2.4,1.8,2.6c3.1,0.4,6.6,1.8,9.2,0.8c2.1-0.8,0.7-4.8,0.9-7.4
	C1194.3,639.1,1194.2,637.8,1194.2,636.4z M1194.3,611.5c0-7.5,0-7.5-7.6-7.3c-2.6,0-5.3,0-7.9,0c-6.3,0-6.3,0-5.1,6.1
	c2.1,10.9,2.1,10.9,13.2,9.6C1194.2,619,1194.3,619,1194.3,611.5z M1638.7,592.9c-2.5,0-5,0-7.5,0c-1.3,0-2.3,0.2-2.2,1.9
	c0.1,4.9-1.2,10.6,0.8,14.6c1.4,2.8,7.2-0.4,11.1-0.4c0.5,0,1-0.1,1.5-0.1c4.3-0.1,6.2-1.7,5.9-6.5
	C1647.8,592.9,1648.1,592.9,1638.7,592.9z M1652.9,642.7C1652.9,642.7,1653,642.7,1652.9,642.7c0.1,2.7,0.2,5.3,0,7.9
	c-0.3,3.5,1.8,4.2,4.6,4.2c2.5,0,5.6,1.5,6.3-3.1c0.9-5.7,2.4-11.3,3.7-16.9c0.6-2.6,0.7-4.1-3-4.1c-11.6,0.1-11.6-0.1-11.6,11.4
	C1652.9,642.4,1652.9,642.6,1652.9,642.7z M1374.4,398.5c0.1-2.1,0.1-5,0.4-7.8c0.3-3.2-0.8-3.2-3.3-2c-7.1,3.3-12,8.6-15.6,15.3
	c-0.6,1.2-1.4,2.3,0.8,2.9c4.9,1.2,9.8,2.6,14.8,4c2,0.6,3.1,0.2,3-2.2C1374.3,405.4,1374.4,402.3,1374.4,398.5z M1652.9,599.9
	c0,7.1,0,7.1,7,6.2c1.8-0.2,3.6-0.2,5.5-0.4c9.1-0.8,9.1-0.8,10.9-9.9c0-0.2,0.1-0.3,0.2-0.5c0.8-2-0.1-2.6-2.1-2.5
	c-6.3,0.1-12.6,0.1-18.9,0c-1.9,0-2.7,0.6-2.6,2.6C1653,596.9,1652.9,598.4,1652.9,599.9z M1661.7,626.1c2.3-0.4,6.7,1.2,7.6-0.8
	c2-4.4,3.6-9.7,3-14.4c-0.3-2.4-5.7-0.2-8.8-0.2c-1.5,0-3,0.3-4.5,0.3c-4.7,0-6.4,1.9-6.1,6.9
	C1653.2,626.5,1652.8,626.5,1661.7,626.1z M874.9,1025.8c7.3-0.3,13.8-3.4,19.4-8.4c0.8-0.7,1.7-1.6,0.4-2.3
	c-3.6-2.1-7.6-3.8-11.7-3.7c-2.8,0-1.4,3.9-2.5,5.8c-1,1.6-1.3,4.5-3.4,4.3c-2.2-0.2-4.2-2.2-4.4-4.8c-0.3-5.6-2.9-3.7-5.6-1.9
	c-1.4,0.9-2.8,1.8-4.1,2.8c-2.5,1.8-2.8,3.5,0.3,5.1C866.7,1024.6,870.5,1025.7,874.9,1025.8z M1080.8,877.8c-7.6,0-7.6,0-7.8,7
	c0,1.9,0.6,4.3-2.1,5c-2.2,0.5-4.3-0.7-5-2.5c-2.4-6.5-4.6-2.7-6.8,0c-1.2,1.5-2.2,3.3-3.3,5c-1.1,1.7-0.8,2.2,1.3,2.8
	c9.6,2.6,20.3-1.3,26.6-10.2c1.3-1.8,3.8-3.7,2.7-5.9C1085.4,877,1082.5,878.2,1080.8,877.8z M833.9,1022c2.4-0.3,6.2,0.8,7.5-1.8
	c0.9-1.6-1.9-4.3-3.3-6.3c-2.2-3.2-4.4-6.3-7.2-0.3c-0.9,1.9-2.9,3-5.1,2.3c-2.5-0.8-2-3.2-2-5.1c-0.1-6.6-0.2-6.8-7-6.7
	c-1.7,0-3.3,0.4-5,0.5c-1.8,0.1-2.2,0.6-1.3,2.4C814.3,1015.5,824,1022,833.9,1022z M1023.3,905.4c1.3-0.2,3.6-0.2,5.6-0.9
	c3-1.1,7.7-1.5,8.1-4.4c0.3-2.4-3.9-4.5-6.6-6.1c-2.5-1.5-4.9-2.9-5,2.1c-0.1,2.4-1.5,4.6-4.2,4.8c-2.9,0.1-3.2-2.5-3.8-4.5
	c-1.9-6.2-1.8-6.2-7.8-4.3c-1.7,0.6-3.3,1.4-5,2.1c-2.3,0.9-2.1,2-0.3,3.4C1009.4,902,1015.3,905.2,1023.3,905.4z M1637.4,626.9
	c12.6-0.7,10.7,2.2,10.7-11.1c0-2.5-0.6-3.1-3.1-2.6c-4,0.8-8.1,1.5-12.2,1.7c-3.1,0.2-3.9,1.5-3.8,4.3c0.2,9.5-1.2,7.5,7.4,7.7
	C1636.8,626.9,1637.3,626.9,1637.4,626.9z M1145.3,444.8c0-3.7,0-6.2,0-8.7c0-0.9,0.5-2.3-0.5-2.7c-1-0.5-1.6,0.8-2.3,1.5
	c-5.5,5.6-8.5,12.5-10.7,19.9c-0.6,2-1,4.1-1.4,6.1c2.3,0.3,3.8-1.7,5.7-2.3C1143.5,456.2,1147.7,451.9,1145.3,444.8z M1150.5,439.9
	c-0.1,0-0.1,0-0.2,0c0,3,0,5.9,0,8.9c0,1.8,0.4,2.5,2.3,1.4c4.4-2.6,8.9-5,13.3-7.5c1.5-0.8,1.5-1.7,0.4-3c-3.2-4.1-7.3-7.1-12-9.3
	c-3-1.4-3.6-0.3-3.6,2.5C1150.9,435.3,1150.6,437.6,1150.5,439.9z M1391.6,456.9c-1.5,0-3,0.2-4.5,0c-3.5-0.5-4.9,0.4-4.6,4.5
	c0.7,8.6,0.4,8.7,9.1,7.4c2.1-0.3,4.3-0.6,6.4-0.9c1.4-0.2,2.4-0.4,2.8-2.2c1.5-7,0.2-8.8-6.7-8.8
	C1393.3,456.9,1392.5,456.9,1391.6,456.9z M2591.2,842.2c0.4,4.1,0.9,8.3,1.2,12.4c0.2,1.9,0.8,2.5,2.4,1.2
	c3.9-3.1,8.4-5.3,11.8-8.9c-3.6-3.3-8.3-4.2-12.5-6.2c-0.1-0.1-0.3-0.2-0.4-0.2C2591.6,839.3,2591,840.2,2591.2,842.2z
	 M2543.5,830.9c-4-0.2-4.1-0.2-2.9,3c1.4,3.5,2.9,7,4.3,10.5c0.8,2,1.6,2.8,3.2,0.6c2.3-3.2,4.8-6.4,7.3-9.4
	c1.8-2.2,0.8-2.6-1.3-2.9C2550.4,832.1,2546.7,831.5,2543.5,830.9z M2573.5,858.8c-0.7-2.9-1.5-6.5-2.6-9.9c-0.3-1,0.2-2.7-1.3-2.9
	c-1.3-0.2-1.8,1.3-2.5,2.1c-2.5,3-7.9,6.4-6.8,9c1.3,3.1,7.3,2.7,11.2,4C2573.3,861.7,2574,861.5,2573.5,858.8z M178,867.9
	c-2.7,0.4-6,0.9-9.2,1.4c-2,0.3-3,0.8-1.2,2.9c2.7,3,4.5,6.9,8,9.3c1.6-3.8,3-7.6,4.8-11.3C181.6,867.6,180.3,867.7,178,867.9z
	 M136.1,881.1c0.2-5.7,0.2-5.7-4.8-3.6c-1.1,0.4-2.2,0.8-3.2,1.3c-1.7,0.9-4.7,1.7-4.8,2.8c-0.2,1.9,2.6,2.6,4.1,3.7
	c2.4,1.7,5.4,5.5,7.1,4.3C136.7,888.2,136.1,883.9,136.1,881.1z M151.9,892.3c-0.2,1-1.2,2.5,1.2,1.9c3.2-0.9,6.4-1.7,9.5-2.6
	c1.9-0.6,1.2-1.6,0.3-2.5c-2.6-2.7-4.4-7.5-7.8-7.5c-2,0-1.8,6-3,9.2C152,891.3,152,891.8,151.9,892.3z M1188.8,652.9
	c-3.6-1.3-4.9-0.4-3,3.4c0.6,1.1,0.8,2.5,1,3.8c0.3,2.3,1.6,2.8,3.8,2.6c3.6-0.2,3.3-2.5,3.5-5.1
	C1194.7,653.3,1192.3,652.7,1188.8,652.9z M1595.6,917.8c0.3-1.5-0.2-2.9-2-2.3c-1.9,0.6,0.2,3.8,0.6,4.9
	C1594.8,919.4,1595.3,918.4,1595.6,917.8z M1068.9,883c-0.3-0.8,0.8-2.1-0.7-2.5c-0.5-0.1-1.6,0.3-1.5,1.5c0.1,1.2,0.5,2.5,1.5,2.8
	C1069.3,885,1068.6,883.6,1068.9,883z M1021.9,893.3c0.2-0.9-0.1-1.6-1.4-1.7c-0.6,0-1.6-0.3-1.2,0.7c0.4,1,0.3,2.5,1.7,2.7
	C1021.8,895.2,1021.7,894.2,1021.9,893.3z M877.6,1013.7c0.5-1.4,0-1.9-1.5-1.8c-1.8,0.1-0.1,2.6,0.2,3.4
	C876.8,1014.7,877.3,1014.1,877.6,1013.7z M828,1007.1c-1.4,0-1.1,0.9-1.1,1.6c0,0.6-0.4,1.9,0.9,1.4c0.7-0.2,1.1-1.1,1.6-1.7
	C828.9,1008,828.4,1007.5,828,1007.1z"/>
<path class="st0" d="M1680.8,0.1c-1.7,8.3-3.7,16.5-0.1,24.9c0.8,1.8-1,3.1-1.9,4.4c-2.8,4.1-5.6,8.1-7.1,13
	c-1.2,4.2-1.2,8.2,0.7,12.1c1.1,2.1,0.7,3.1-1.8,3.7c-7.9,2-13.6,7-18,13.9c-4.6,7.3-9.8,14.2-13.2,22.2c-1,2.4-2.2,3.3-4.9,1.9
	c-3.1-1.6-6.4-2.6-9.7-3.9c-4.3-1.7-8.5-1.9-12.4,0.7c-2.7,1.8-4.5,1.1-6.8-0.8c-6.8-5.4-9.5-5.3-16.1,0.4c-2.4,2.1-2.1,0.4-2.4-1.1
	c-0.4-2.3-0.3-4.7-1.7-6.7c-2.8-4.2-6.6-3.6-10.6-2.2c-1.3,0.4-2.9,2.1-3.2-1.3c-0.8-9.5-3.7-11.9-13.9-13.1
	c-1.3-0.1-2.5-0.4-3.8-0.5c0.3-1.7,1.7-2.3,2.9-3.2c11.6-8.4,27.9-12.5,42.4,0.4c3.4,3.1,7,6.1,11.6,7.6c2.6,0.9,5.2,0.6,7.1-1
	c1.8-1.5-0.5-3.6-0.6-5.5c-0.1-1-0.6-1.9-0.9-2.8c-0.7-2.2-2.5-4.8-1.2-6.5c1-1.4,3.1,1.6,5,1.6c3,0.1,6.1,0.3,7.3-3.4
	c0.3-0.9,0.7-2.3,1.7-2.1c0.6,0.1,1.2,1.5,1.5,2.4c0.8,2.4,1.5,4.7,2,7.2c0.3,1.5,0.3,3.1,2.2,3.4c2.1,0.3,3.5-0.9,4.4-2.6
	c0.5-1,0.8-2.2,0.8-3.3c0.1-27.6,14.1-46.2,37.9-58.4c0.6-0.3,1.7-0.3,1.7-1.4C1680.1,0.1,1680.4,0.1,1680.8,0.1z"/>
<path class="st0" d="M409.2,816.2c0.1,11.7-0.8,23.3-2.9,34.8c-0.1,0.8,0.4,2.2-1,2.3c-0.5,0-1.2-1-1.7-1.7
	c-3.7-5.5-7.4-11-11.2-16.5c-0.8-1.1-1.3-2.9-3-2.6c-0.3,0-0.4,2.4-0.3,3.6c1.1,23.9-2.4,47-11.1,69.3c-0.9,2.4-1.4,5.1-3.7,6.7
	c-0.5-2.4-0.9-4.8-1.4-7.2c-2.8-14.3-5.2-28.7-11-42.2c-1.7-4-3.8-7.7-6.5-11.1c-1.7-2-2.4-1.5-3,0.6c-1.7,6.1-3.4,12.1-5.1,18.2
	c-0.2,0.8,0,2.3-1.3,2.3c-1.4,0-0.9-1.5-1-2.3c-2-14.3-4.9-28.4-9.5-42.1c-7.4-22.2-19.7-41.5-32.9-60.5
	c-7.2-10.4-14.1-21.1-15.9-33.9c-1.9-13.4-1.3-26.4,7.5-38c6.1-8.1,13.6-10.6,23.4-9.7c40.7,3.8,64,29.1,79.3,64
	C405.6,770.1,408.9,789.6,409.2,816.2z M347,762.9c0.2,4,1.8,8.8,4.1,13.4c4.7,9.5,7.2,9.8,15,2.5c3.3-3.2,3.7-6.4,1.6-10.2
	c-3-5.3-7.5-9.2-13-11.8C349,754.2,347,755.5,347,762.9z M349,731.7c0.1-4.7-0.9-8.8-3.4-12.5c-2.3-3.3-5.6-3.2-8.9-1.8
	c-3.2,1.4-4.2,3.8-3.1,7.3c1.3,4.3,3.9,7.6,7.2,10.5c2,1.7,4.7,2.4,7,1.5C350,735.9,348.6,733.3,349,731.7z M317.4,735.8
	c-4.9-0.1-7.9,2.8-6.1,6.4c2.1,4.4,5.3,8.1,10.3,9.3c3.6,0.9,5.7-0.7,6.2-4.4C328.6,741.4,323.5,735.9,317.4,735.8z"/>
<path class="st0" d="M1693.8,118.7c10.2,0,17.4,4.4,21,14.3c1.1,3.1,2.2,6.3,4.4,8.8c1,1.1,2.2,2.2,3.8,2c1.9-0.2,1.7-2.2,2.2-3.5
	c0.3-0.9,0.3-2,0.6-2.9c0.6-1.9,0.7-5.1,3.3-1.1c1.1,1.7,3.1,2.3,4.9,1.4c3.3-1.7,2.8,0.3,2.5,2.3c-0.2,2-2.7,4.8-0.5,6
	c3.4,1.7,5.6-1.6,7-4.1c8.6-15.1,22.6-19,38.5-18.9c0.9,0,2.2-0.6,2.6,0.6c0.1,0.4-0.8,1.3-1.4,1.9c-2.9,3.2-5.4,6.7-6.2,11.2
	c-0.4,2.3-2.2,2.6-3.8,3.5c-5.2,2.8-10.5,5.4-11.2,12.2c-0.2,1.7-1.3,2-2.5,1.5c-7.1-2.6-12.9,1-18.8,4c-3.7,1.9-7.3,3.9-10.8,6.1
	c-2.1,1.4-3.4,1.2-4.9-0.9c-3.1-4.4-6.3-8.7-12.5-8.8c-2,0-2.2-1.6-2.8-3c-1.4-3.5-3.6-6-7.9-5.3c-2.3,0.4-2.8-0.2-2-2.6
	c1.2-3.5,0.7-6.7-3.8-7.5c-2-0.3-2.6-1.4-1.8-3.1c2.3-4.7,0.1-7.9-3.4-10.8c-1-0.8-1.9-1.8-2.8-2.6c1.2-1,2.8-0.5,4.2-0.8
	C1692.4,118.6,1693.1,118.7,1693.8,118.7z"/>
</svg>
