<?xml version="1.0" encoding="utf-8"?>
<!-- Generator: Adobe Illustrator 28.0.0, SVG Export Plug-In . SVG Version: 6.00 Build 0)  -->
<svg version="1.1" id="Layer_1" xmlns="http://www.w3.org/2000/svg" xmlns:xlink="http://www.w3.org/1999/xlink" x="0px" y="0px"
	 viewBox="0 0 68.07 113.98" style="enable-background:new 0 0 68.07 113.98;" xml:space="preserve">
<style type="text/css">
	.st0{fill:#010101;}
</style>
<g>
	<path class="st0" d="M15.26,97.51c1.67,1.92,2.19,5.41,2.79,8.32c1.22-3.63,1.54-8.44,0.83-13.22c-1.85-10.88-8.56-12.23-9.21-20.4
		c1.55-0.17,3.31,1.24,4.83,0.85c-1.77-3.12-1.54-1.7-2.17-5.76c0.38-0.57,0.75-1.15,1.11-1.76c-1.46-1.19-2.83-1.02-4.19-1.15
		c-1.05-1.46-0.77-3.34,0.03-3.86c0.05-0.28,2.88-0.34,4.52-2.13l-0.34-0.1c5.94-5.83,5.63-16.42,4.37-24.6
		c-1.5,2.51-3.79,3.92-6.71,2.76c-0.68,2.42-1.1,5.28-2.59,6.6c-0.95,1.23-2.5,1.14-4.08,0.33c2.09,8.5,0.27,10.06-1.05,14.36
		c-0.82,2.77-2.19,4.79-3.4,7.02c3.8,7.24,5.13,8.02,4.75,14.05c3.24,3.74,4.25,6.52,2.57,10.76c1.19-0.16,2.64-0.58,3.82,1.27
		c1.15,1.81,0.84,3.96,0.85,6C13.01,96.55,14.19,96.12,15.26,97.51L15.26,97.51z"/>
	<path class="st0" d="M55.06,40.68c1.15,0.4,2.24,1.74,3.31,2.79c-1.02-3.79-3.13-7.79-5.8-9.87c-2.21-1.8-4.21-1.18-6.36-2.26
		c-0.68-0.47-1.84-1.44-1.59-2.48c0.63-0.69,1.35-1.25,1.85-2.13c-0.67-0.4-1.43-0.46-2.04-1.31c-0.61-0.79-0.67-1.78-0.96-2.67
		c-0.7,0.56-1.27,1.3-1.78,2.14c-1.61-1.45-1.12-3.58-0.81-4.88c2.17-5.29-2.49-15.19-5.95-20c0.24,2.05,0.22,4.67-1.3,6.07
		c0.65,2.33,1.41,4.84,1.05,6.75c-0.14,0.9-0.72,1.35-1.23,1.81c1.33,1.61,2.69,3.47,3.17,5.53c2.25,9.57,1.28,10.48,2.31,10.92
		c1.18,0.74,2.35,1.17,3.48,2.02c1,0.74,1.61,2.25,2.28,3.45c3.18,0.33,3.31,1.6,4.37,4.4c0.56-0.69,1.05-2,2.19-1.25
		c0.7,0.63,1.25,1.64,1.79,2.51C53.57,41.43,54.03,40.39,55.06,40.68L55.06,40.68z"/>
</g>
<g>
	<path class="st0" d="M52.04,101.02C56.6,77,70.53,75.02,67.68,60c-0.24-1.33-0.96-2.5-1.7-3.59c-2.65-4.02-4.94-3.38-9.4-2.77
		c-13.04,1.71-25.95,18.52-22.58,43.94c0.14,1.05,1.52,1.36,2.1,0.47c0.28-0.43,0.55-0.86,0.82-1.3c0.61-0.97,2.11-0.54,2.11,0.61
		c-0.01,3.63,0.32,9.06,2.4,15.09c0.09,0.25,0.17,0.5,0.26,0.75c0.37,1.12,2,1.01,2.21-0.15c0.72-3.95,1.83-9.19,3.79-12.34
		c0.53-0.85,1.82-0.67,2.08,0.29c0.02,0.07,0.04,0.13,0.05,0.2c0.31,1.17,1.98,1.07,2.21-0.12
		C52.04,101.06,52.04,101.04,52.04,101.02L52.04,101.02z M44.91,78.46c-1.37-2.73,5.3-7.38,5.85-5.33c0.59,1.92-0.65,5.38-2.12,7.09
		c-0.4,0.47-1.09,0.55-1.58,0.17C46.3,79.8,45.48,79.26,44.91,78.46L44.91,78.46z M54.76,62.93c0.14,1.54-0.86,2.95-1.93,3.94
		c-0.32,0.32-0.71,0.47-1.12,0.55c-0.69,0.14-1.35-0.38-1.38-1.08c-0.06-1.35,0.15-2.73,0.93-3.85
		C52.05,61.2,54.21,61.61,54.76,62.93L54.76,62.93z M59.78,67.13c0.92,0.01,1.68,1.17,1.11,1.97c-0.81,1.29-2.07,2.79-3.77,2.44
		c-0.72-0.05-0.84-0.89-0.83-1.47C56.13,68.25,58.07,66.77,59.78,67.13L59.78,67.13z"/>
</g>
</svg>
