<?xml version="1.0" encoding="utf-8"?>
<!-- Generator: Adobe Illustrator 28.0.0, SVG Export Plug-In . SVG Version: 6.00 Build 0)  -->
<svg version="1.1" id="Layer_1" xmlns="http://www.w3.org/2000/svg" xmlns:xlink="http://www.w3.org/1999/xlink" x="0px" y="0px"
	 viewBox="0 0 184.4 127.1" style="enable-background:new 0 0 184.4 127.1;" xml:space="preserve">
<style type="text/css">
	.st0{fill:#F7B67B;}
	.st1{fill:#FABF73;}
	.st2{fill:#6F5E52;}
	.st3{fill:#50443C;}
	.st4{fill:#EB7323;}
	.st5{fill:#F59E4F;}
	.st6{fill:#F5CE95;}
	.st7{fill:#D19767;}
	.st8{fill:#723817;}
	.st9{fill:#635246;}
	.st10{fill:#5D442F;}
	.st11{fill:#786A60;}
	.st12{fill:#79522C;}
	.st13{fill:#4A3019;}
	.st14{fill:#AE642B;}
	.st15{fill:#5C3A1D;}
	.st16{fill:#CD8737;}
	.st17{fill:#EF7C24;}
	.st18{fill:#8D4B22;}
	.st19{fill:#A15123;}
	.st20{fill:#F69933;}
	.st21{fill:#A95225;}
	.st22{fill:#A05C2F;}
	.st23{fill:#E5A975;}
	.st24{fill:#F6A141;}
	.st25{fill:#DB7B29;}
	.st26{fill:#F59032;}
	.st27{fill:#36291F;}
	.st28{fill:#211B17;}
	.st29{font-family:'Arial-BoldMT';}
	.st30{font-size:18px;}
</style>
<g>
	<path class="st0" d="M130,7.5c0.5-0.5,1-1,1.4-1.4c1.8,0.4,2.8-0.9,3.8-2c1.4-0.3,2.8-0.7,3.8-1.9c1.4-0.2,2.9,0.2,3.9-1.2
		c0.5-0.1,1.5,0.3,1.1-0.9c2.3,0,4.7,0,7,0c-0.3,1.2,0.7,0.9,1.3,1c0.2,2,2,1.9,3.2,2.4c0.6,0.8,1.3,1.6,0.8,2.8
		c-1.6-0.3-3.3-1-4.4,0.8l0.1-0.1c-1-0.2-1.9-0.3-2.1,1.1l0.1-0.1c-1.7-0.3-2.5,1.2-3.6,2.1c-1.8,1.8-3.6,3.6-5.4,5.4
		c-1.7,2-3.6,3.6-6,4.7c-2.2,1.1-4.3,2.2-6.5,3.3c-0.5,0.4-1.1,0.8-1.6,1.1c-1.2,0.5-2.4,1-3.1,2.2c-0.4,0.2-0.9,0.4-1.3,0.7
		c-0.5,0.1-1,0.3-1.4,0.4c1.6-5.9,4.7-11.1,6.9-16.8C129.2,10.3,130.4,9.3,130,7.5z"/>
	<path class="st1" d="M1.1,35.5C1,35.3,1,35.1,0.9,34.9c0-0.1,0.1-0.2,0.1-0.3c2.8-1,4-3.8,6.2-5.5c0.6-0.1,1.2-0.1,1.8-0.2
		c-0.5,1.3-1.6,2.7,0.7,3.3C9.9,32.9,10,33.5,10,34c-1.7,1.6-1.2,2.7,0.9,3.3c0.3,0.3,0.7,0.6,1,1c0.7,1.3,1.4,2.6,2.1,3.9
		c-0.3,2-0.7,3.9-1,5.9c-1.5,1.1-2.9,2.2-3.1,4.2c-0.6,0-1.2-0.1-1.8-0.1c0,0,0,0.1,0,0.1c-1.1-2.3-2.8-3.9-5-5c0,0,0,0,0,0
		c-0.1-1.7-0.6-3.1-2-4.1c0-0.6,0.2-1.4-0.9-1c0-1.7,0-3.3,0-5C1.2,37.1,1.1,36.3,1.1,35.5z"/>
	<path class="st2" d="M1,43.1c1.5,1,2,2.4,2,4.1c-2-0.1-1.4-2.6-3-3.1c0-0.3,0-0.7,0-1L0.5,43L1,43.1z"/>
	<path class="st3" d="M152.3,1.1c-0.6-0.1-1.6,0.3-1.3-1c1,0,2,0,3,0c0,0.3,0.1,0.6,0.3,0.9C153.6,1,153,1,152.3,1.1z"/>
	<path class="st3" d="M144,0.1c0.4,1.2-0.6,0.8-1.1,0.9c-0.4,0-0.8,0-1.2,0c0-0.3,0.1-0.6,0.3-0.9C142.7,0.1,143.3,0.1,144,0.1z"/>
	<path class="st3" d="M1,43.1l-0.5,0l-0.5,0.1c0-0.3,0-0.7,0-1C1.2,41.7,1,42.5,1,43.1z"/>
	<path class="st3" d="M1.1,35.5c0,0.8,0.1,1.6-1,1.6c0-0.3,0-0.7,0-1C0.4,35.9,0.8,35.7,1.1,35.5z"/>
	<path class="st4" d="M107.4,17.7c0.6-0.5,1.1-0.4,1.5,0.3c0.1,1.4,0.6,2.2,2.2,2l0,0.1c0.3,0.4,0.5,0.7,0.8,1.1
		c2.3,2.3,3.9,5.3,6.8,7c0.3,2.9,2.3,2.6,4.3,2.4c0,0,0,0.2,0,0.2c-0.9,1,0.4,2.6-1,3.4c-0.1-0.2-0.1-0.3-0.4-0.5
		c0.1,0.1,0.3,0.3,0.4,0.4c0.1,0.7,0.1,1.6,1,2c0.1,1.1-0.3,2.4,1.1,3.1c0.4,1.3-0.3,2.7,0.8,3.9l0.3,0.3c0.2,4.6,0.4,9.2,0.6,13.8
		c-3.5-0.3-0.8,2.6-1.7,3.5c-1,2.5-2.1,5-3.1,7.4c0,0-0.1,0-0.1,0c-0.7,0.5-0.9,1.2-0.8,2l0,0c-0.4,0.3-0.8,0.6-1.1,1
		c-1.8,1.8-3.5,3.6-5.3,5.3c-2-0.5-3.3,0-3.2,2.3c0,0-0.3,0.3-0.3,0.3c-0.4,0.3-0.9,0.6-1.3,0.9c-0.1,0.4-0.2,0.7-0.4,1
		c-0.5-0.8-1.2-0.8-2-0.8c-0.4-0.4-0.8-0.7-1.2-1.1l-0.1,0.1c0.5-0.4,1-0.7,1.6-1.1c0.5-0.5,1-1,1.5-1.5c0.3-0.5,0.7-1,1-1.5l0,0
		c1.5-0.7,2.1-1.9,2-3.5c0.2-0.5,0.3-1,0.5-1.5c2.3-0.4,2.5-2.2,2.5-4.1l0,0c1-0.3,1-1.2,1-2l0,0c1.4-1.1,1-2.6,1-4l0,0
		c3-8.1,2.6-16.2-1-24l0,0c0.1-1.1,0.2-2.3-1-3l0,0c0-0.9-0.1-1.6-1-2l0,0c0-0.9-0.1-1.6-1-2l0,0c0-1.6-1-2.5-2-3.5
		c-0.2-0.1-0.3-0.3-0.5-0.5c-0.5-0.3-1-0.7-1.5-1l0,0c-0.1-0.6-0.4-1-1-1l0,0c0-0.6-0.4-1-1-1l0,0c0-0.6-0.4-1-1-1l0,0
		c0-0.7-0.4-0.9-1-1l0,0c0.1-0.7-1.4-1.6,0.3-2.2C105.3,17.9,106.4,17.8,107.4,17.7z"/>
	<path class="st5" d="M34.5,99.1L34.5,99.1c-2.7,0-5.6,0.1-8.4,0.1c-1.3-1.4-2.9-1.5-4.6-1.1c0,0,0.1,0,0.1,0
		c-0.2-0.8-0.4-1.5-0.5-2.3c2.4,0.1,4.9,0.2,7.3,0.2c1,0,2.8,0.5,2.8-0.9c-0.1-1.4-1.8-1.4-3.1-1.1l0.1,0.1c0.3-1.7-2-3.2-0.5-5.1
		c0.5-0.5,1-0.9,1.4-1.4c1.2-1.3,3.6-1.3,4.1-3.6L33,84.1c1,0.3,2,0.5,2.1-1.1L35,83.1c4.5-0.6,8.7-1.9,11.4-6.1
		c0.4,0,0.8,0.1,1.1,0.1c3.2,0.6,5.4-1.3,7.6-3c0.8-0.5,2.2-0.5,2-2.1L57,72.1c1,0.5,1.6,0,2.2-0.8c0.4,0.3,2.3-1.1,1.2,1
		c-0.4,0.8-1.5,1.2-1.3,2.4L59,75c0,0-0.4,0.1-0.4,0.1c-2.6,0.2-4.3,1.3-4.5,4.1c0,0,0-0.1,0-0.1c-1.1,0-1.2,0.6-1.1,1.5
		c-0.5,0.5-0.9,1-1.4,1.5c-2.8,0.8-4.3,2.7-4.6,5.5c-0.4,0.8-0.8,1.4-1.9,1c-2.6,2.5-5.7,4.5-7.1,8L38,97c0,0-0.4,0.1-0.4,0.1
		C36,96.8,34.9,97.3,34.5,99.1z"/>
	<path class="st6" d="M176,71.7c-0.5,1.1-1.3,1.9-2.4,2.4c-2.9,0-5.1,1.9-7.6,3c-1.3,0-2.7,0-4,0c-3.3-1.3-6.5-2.7-9.8-4
		c-3.1-1.9-6.1-3.8-9.2-5.7c-3.7-2.6-7.7-4.6-12-6c-0.7-0.4-1.9,0-2-1.3c8.9,1.2,17.4,5.1,26.6,4c3.8-0.5,7.5,0.6,10.9,2.4
		c0.2,1.2,0.4,2.4,0.6,3.5c-0.3,0.4-0.6,0.8-0.9,1.2c-0.6,0.8-1.2,1.5-1.8,2.2c1.1,0.7,2.1-0.2,3.1-0.4c2.4-0.5,4.8-1,6.7-2.8
		C175.4,70.1,175.8,70.8,176,71.7z"/>
	<path class="st6" d="M174.6,27.1c0.8,0.8,1.6,1.6,2.4,2.4c-0.2,1.7,0.5,2.9,2.1,3.6L179,33c0.4,1.7,0.8,3.4,1.1,5.1
		c-0.2,2.8,0.7,5.8-1.2,8.4c-0.9-0.6-1.7-1.2-2.6-1.8c-1-0.7-2-1.4-3-2c-2.7-2-5.7-3.2-9-4.1c-0.9-1.1-3.5,0.3-3.3-2.3
		c1.4-0.1,2.4-0.9,3.1-2c0.4-0.2,0.8-0.5,1.2-0.7c2.4-1.6,4.4-3.6,6.1-5.9C172.4,26.8,173.6,27.4,174.6,27.1z"/>
	<path class="st0" d="M174,23.7c0.4,0.7,0.1,1.1-0.5,1.4c-0.8,0.1-1.6,0.1-2.4,0.2c-0.8-1.6-2.4-1.8-3.8-2.4c-0.3-0.3-0.7-0.7-1-1
		c-2-3-1.2-6.4-1.3-9.7c0,0,0,0,0,0c1-0.1,1.1-0.8,1-1.6l0.1-0.1c0.9-1.6-1.5-2.5-0.8-4.1c1.8-2.2-1.4-2.1-1.5-3.4
		c3.7-0.3,6.3,2.7,9.7,3.1l0.4,0.1c0,0,0.1,0.4,0.1,0.4c1.8,4.8,2.9,9.6,1,14.5C173.8,21.7,173.8,22.6,174,23.7z"/>
	<path class="st1" d="M8.1,87.5C8.1,87.5,8.1,87.6,8.1,87.5c0-2.7,0-5.4,0-8.2c1.5,0,0.5-2,1.8-2.2c0.6,0.7,1.2,1.3,1.8,2
		c2,2.3,4.9,3,7.4,4.5c0.6,0.8,1.1,1.7,1.7,2.5c0.1,2.4,0.2,4.8,0.3,7.2c-0.1,0.2-0.1,0.4-0.2,0.5c-2.4,1-4.4-1.1-6.7-0.7
		c0,0,0.1,0,0.1,0c-0.7-1.5-1.9-2.3-3.6-2.1L10.2,91c0,0-0.1-0.4-0.1-0.4C10.3,89,10,87.8,8.1,87.5z"/>
	<path class="st0" d="M181,65.7c-0.2,0.8-0.6,1.3-1.4,1.4c-2-0.7-3.8,2.6-5.9,0.4c-0.4-0.8-0.7-1.6-1.1-2.4c-0.7-2-0.7-4,0-6
		c1.2-1.5,2.3-3,3.5-4.5c1-1,2.3-1.8,2-3.5l0,0c1-0.4,2.1-0.7,3.1-1.1c0,0-0.1,0-0.1,0C183.9,55.2,183.1,60.4,181,65.7z"/>
	<path class="st7" d="M75.5,82.1c-0.8,0.3-1.3,0.1-1.7-0.6c0.3-0.3,0.5-0.7,0.8-1c0.5,0,1,0,1.6,0c6.4,2.8,12.9,4.3,19.9,3.6
		c-0.4,0.3-0.7,0.7-1.1,1c-3,0-6.1-0.8-9.1,0.6c-0.6-0.2-1.1-0.3-1.7-0.5C83.8,83,82,84.6,81,84.1c0,0,0.1,0,0.1,0
		c-0.6-1.5-2-1-3.1-1c0,0,0.1,0,0.1,0C77.6,81.8,76.5,82.2,75.5,82.1z"/>
	<path class="st8" d="M59.1,74.6c-0.2-1.2,0.9-1.6,1.3-2.4c1.1-2.1-0.7-0.7-1.2-1C59.1,71,59,70.8,59,70.5c2.2-3.1-1.6-4.8-1.7-7.4
		c0.3,0,0.6,0,0.9,0l0.4,0c0,0,0.4,0,0.4,0c0.2,0.7-0.3,1.8,1.1,1.6c0.8,3.2,3.8,4.7,5.4,7.2c-0.7-0.2-1.4-0.5-2.1-0.7
		c-0.7,0-1.3,0.3-1.5,1.1C61.1,73,60.1,73.8,59.1,74.6z"/>
	<path class="st9" d="M181,65.7c2.1-5.2,2.9-10.4,0-15.6C185.5,54.5,185.5,60.2,181,65.7z"/>
	<path class="st9" d="M175,21.1c1.9-5,0.8-9.8-1-14.5c4.2,4.4,4,9.4,1.7,14.5C175.5,21.1,175.2,21.1,175,21.1z"/>
	<path class="st10" d="M9.9,77.1c-1.3,0.2-0.3,2.2-1.8,2.2c0,0,0-0.4,0-0.4c0.5-2.1-0.5-3.9-1.2-5.7c0,0,0.2-0.2,0.2-0.2
		c1,0.3,1.9,2.1,3-0.1c0.7-1.4,2-2.5,3-3.8c0,0.4,0,0.7,0,1.1C12.5,72.8,10,74.4,9.9,77.1z"/>
	<path class="st2" d="M113.5,76.4c1.8-1.8,3.5-3.6,5.3-5.3c0.4-0.3,0.8-0.6,1.2-1c0.3,0.2,0.6,0.5,0.8,0.7c-2.2,3.5-5,6.5-8.7,8.5
		c0-0.2-0.1-0.4-0.2-0.6C112.5,78,113,77.2,113.5,76.4z"/>
	<path class="st2" d="M131,61.4c4.3,1.4,8.3,3.3,12,6c0,0.3,0,0.6-0.1,0.9c-4-2-8-4.1-11.9-6.1C131,61.9,131,61.6,131,61.4z"/>
	<path class="st7" d="M63.5,71.2c0.7,0.2,1.4,0.5,2.1,0.7c2,1.3,3.5,3,4.5,5.2c-0.9,0-1.7,0-2.6,0c-1.4-0.8-2.6-2-3.4-3.4
		C63.9,72.8,63.7,72,63.5,71.2z"/>
	<path class="st11" d="M179,46.5c1.9-2.6,0.9-5.6,1.2-8.4c0.3,0,0.6,0,0.9,0c1.5,3.2,0.7,6.2-0.8,9.1
		C179.8,46.9,179.4,46.7,179,46.5z"/>
	<path class="st2" d="M14,93.1c2.3-0.4,4.4,1.7,6.7,0.7c0.4,0.4,0.8,0.8,1.1,1.2c-0.3,0.3-0.5,0.5-0.8,0.8c0.2,0.8,0.4,1.5,0.5,2.3
		C19.1,96.4,16.5,94.8,14,93.1z"/>
	<path class="st11" d="M152.2,73c3.3,1.3,6.5,2.7,9.8,4c0,0.3,0,0.6,0,0.8c-4.1-0.7-7.8-2.3-11.1-4.8
		C151.4,73.1,151.8,73.1,152.2,73z"/>
	<path class="st11" d="M95,85.1c0.4-0.3,0.7-0.7,1.1-1c0,0-0.1,0-0.1,0c1.7-0.3,3.7,0.7,5.1-1.1l-0.1,0.1c1-0.1,2-0.3,3-0.4
		c0.4,0.1,0.8,0.3,1.2,0.4c-3.1,2.1-6.6,2.5-10.1,2.8C95,85.7,95,85.4,95,85.1z"/>
	<path class="st7" d="M120.9,68c1-2.5,2.1-5,3.1-7.4c1.2,0.3,1.1,1.2,1,2.1c0.4,1.8-0.7,3.1-1.6,4.4C122.5,67.3,121.7,67.7,120.9,68
		z"/>
	<path class="st9" d="M152.2,73c-0.4,0-0.9,0.1-1.3,0.1c-2.9-1.3-5.6-2.8-8-4.9c0.1-0.3,0.1-0.6,0.1-0.9
		C146.1,69.2,149.2,71.1,152.2,73z"/>
	<path class="st2" d="M38.1,96.6c1.4-3.5,4.5-5.5,7.1-8C44.3,92.6,41.1,94.5,38.1,96.6z"/>
	<path class="st9" d="M173.6,6.1c-3.4-0.5-6-3.4-9.7-3.1c-0.3-0.1-0.5-0.3-0.6-0.6c0.6-0.1,1.1-0.2,1.7-0.3
		C168.4,2.3,171.3,3.5,173.6,6.1z"/>
	<path class="st12" d="M125,62.6c0.1-0.9,0.2-1.8-1-2.1c1-1-1.8-3.8,1.7-3.5c0.5,0,1,0,1.5,0.1c0.3,0.3,0.6,0.5,0.9,0.8l-0.3,0.3
		c-2.2,0-1.8,1.7-1.9,3C125.7,61.7,125.4,62.2,125,62.6z"/>
	<path class="st11" d="M166,77.1c2.5-1.1,4.6-3,7.6-3c-2.1,2.1-4.7,3.3-7.6,3.8C166,77.6,166,77.4,166,77.1z"/>
	<path class="st3" d="M173.6,67.5c2.1,2.3,3.9-1.1,6-0.4c-1.9,1-2.3,3.1-3.6,4.6c-0.2-0.9-0.6-1.6-1.8-1.4c0,0-0.3-0.3-0.3-0.3
		C174,69.1,174.4,68.2,173.6,67.5z"/>
	<path class="st11" d="M3,47.1c2.2,1.1,4,2.7,5,5C5.5,51.4,3.7,49.8,3,47.1z"/>
	<path class="st9" d="M126,61.2c0.1-1.4-0.3-3,1.9-3c0.1,0.3,0.2,0.5,0.2,0.8c-0.3,0.3-0.5,0.5-0.8,0.8c0.6,0.1,1.2,0.2,1.7,0.3
		l-0.1-0.1c0.1,1.3,1.4,0.9,2,1.3c0,0.3,0,0.5,0,0.8C129.3,61.9,127.7,61.6,126,61.2z"/>
	<path class="st9" d="M95,85.1c0,0.3,0,0.5,0,0.8c-3,0-6-0.1-9.1-0.1C88.9,84.4,91.9,85.1,95,85.1z"/>
	<path class="st13" d="M152.3,1.1c0.7,0,1.3-0.1,2-0.1c0.9,0.1,1.8,0.2,2.7,0.3c0.1,0.3,0.2,0.6,0.2,0.8c-0.3,0.3-0.7,0.6-1,0.9
		c-0.2,0.2-0.4,0.3-0.6,0.5C154.3,3,152.5,3.1,152.3,1.1z"/>
	<path class="st11" d="M5,69.2c-1.6-2.6-1.3-5.2-0.4-7.9c0.1,0.6,0.3,1.2,0.4,1.9c0,1.4,0,2.7,0,4.1C5.1,67.9,5,68.5,5,69.2z"/>
	<path class="st9" d="M8,79c0,0,0,0.4,0,0.4c0,2.8,0,5.5,0,8.3C7,84.8,6.1,81.9,8,79z"/>
	<path class="st3" d="M26.1,99.2c2.8-0.1,5.7-0.1,8.5-0.2c-2.7,1.4-5.6,1.3-8.5,0.7C26.2,99.6,26.2,99.4,26.1,99.2z"/>
	<path class="st11" d="M157.2,2.1c-0.1-0.3-0.1-0.6-0.2-0.8c2.8-0.3,5.5-0.4,8.1,0.8c-0.6,0.1-1.1,0.2-1.7,0.3
		c-1.9,0-3.7-0.1-5.6-0.1C157.5,2.2,157.3,2.2,157.2,2.1z"/>
	<path class="st9" d="M47.1,87.6c0.3-2.9,1.8-4.7,4.6-5.5C50.1,83.9,48.6,85.8,47.1,87.6z"/>
	<path class="st7" d="M73.8,81.5c-1.2-0.2-2.1-0.7-2.8-1.8c0-0.6,0-1.1,0.1-1.7c1.7,0,2.7,1.1,3.5,2.5
		C74.3,80.8,74.1,81.1,73.8,81.5z"/>
	<path class="st9" d="M181,38.1c-0.3,0-0.6,0-0.9,0c-0.4-1.7-0.8-3.4-1.1-5.1C180.7,34.3,181.1,36.1,181,38.1z"/>
	<path class="st10" d="M179,46.5c0.4,0.2,0.8,0.5,1.3,0.7c0.3,0.7,0.5,1.5,0.8,2.2c-0.6-0.1-1.3-0.2-1.9-0.3
		c-1.1-1.3-2.2-2.5-3.3-3.8c0.2-0.2,0.3-0.4,0.5-0.5C177.2,45.3,178.1,45.9,179,46.5z"/>
	<path class="st10" d="M5,69.2c0-0.7,0-1.3,0-2c0.7,2,1.3,3.9,2,5.9c0,0-0.2,0.2-0.2,0.2C5.6,72.2,5.1,70.8,5,69.2z"/>
	<path class="st12" d="M54.1,79.1c0.2-2.8,1.9-3.9,4.5-4.1C57.1,76.4,55.6,77.8,54.1,79.1z"/>
	<path class="st2" d="M26.1,99.2c0.1,0.2,0.1,0.4,0,0.5c-1.6-0.3-3.2-0.6-4.6-1.7C23.2,97.8,24.9,97.8,26.1,99.2z"/>
	<path class="st7" d="M105.1,83.1c-0.4-0.1-0.8-0.3-1.2-0.4c0,0,0.1-0.5,0.1-0.5c0.1-1.4,1.8-1.1,2.3-2.1c0.8,0,1.6-0.1,2,0.8
		c-0.1,0.7-0.5,1-1.2,0.8C106.4,82.1,105.2,81.9,105.1,83.1C105,83.1,105.1,83.1,105.1,83.1z"/>
	<path class="st2" d="M5.1,63.1c-0.1-0.6-0.3-1.2-0.4-1.9c0.3-1.2,0-2.5,1.1-3.4C5.9,57.9,6,58,6.1,58.1C6.3,59.9,6,61.6,5.1,63.1z"
		/>
	<path class="st10" d="M171.1,25.2c0.8-0.1,1.6-0.1,2.4-0.2c-0.4,1.1,0.7,1.4,1.1,2c-1,0.3-2.1-0.4-3,0.6c-0.2-0.2-0.4-0.5-0.7-0.7
		c0.1-0.6,0.1-1.3,0.2-1.9L171.1,25.2z"/>
	<path class="st2" d="M5.7,57.8c0.3-1.5,0.7-2.9,2.1-3.8c0,0,0.3,0,0.3,0c-0.1,1.7-0.7,3-2,4.1C6,58,5.9,57.9,5.7,57.8z"/>
	<path class="st13" d="M8,52.1c0.6,0,1.2,0.1,1.8,0.1c0,0,0.1,0,0.1,0c0.5,0.6,0.9,1.2,1.4,1.8c-0.4,0-0.8,0-1.1,0
		c-0.7,0-1.4,0-2.1,0c0,0-0.3,0-0.3,0C7.9,53.4,8,52.7,8,52.1z"/>
	<path class="st9" d="M10.5,91.1c1.7-0.2,2.9,0.6,3.6,2.1C12.4,93.4,11.5,92.1,10.5,91.1z"/>
	<path class="st2" d="M81,84.1c1,0.5,2.8-1.1,3.2,1.2C83.1,85,81.7,85.6,81,84.1z"/>
	<path class="st9" d="M166,77.1c0,0.3,0,0.5,0,0.8c-1.3,0-2.6,0-3.9,0c0-0.3,0-0.6,0-0.8C163.3,77.1,164.7,77.1,166,77.1z"/>
	<path class="st9" d="M71.1,78c0,0.6,0,1.1-0.1,1.7c-1.2-0.9-2.3-1.7-3.5-2.6c0.9,0,1.7,0,2.6,0c0,0-0.1,0-0.1,0
		C70,77.8,70.4,78,71.1,78L71.1,78z"/>
	<path class="st11" d="M120.9,68c0.8-0.3,1.7-0.7,2.5-1c-0.8,1.3-1.7,2.6-2.5,3.9c-0.3-0.3-0.5-0.5-0.8-0.8
		C120.8,69.6,121,68.9,120.9,68C120.8,68,120.9,68,120.9,68z"/>
	<path class="st14" d="M179.1,49.1c0.6,0.1,1.3,0.2,1.9,0.3c0,0,0.3,0.3,0.3,0.3s-0.2,0.4-0.2,0.4c-1,0.4-2,0.7-3.1,1.1
		C177.9,50.2,178.2,49.4,179.1,49.1z"/>
	<path class="st9" d="M179.1,33.1c-1.6-0.7-2.3-1.8-2.1-3.6C178,30.5,179.2,31.4,179.1,33.1z"/>
	<path class="st3" d="M63.5,71.2c0.2,0.8,0.4,1.6,0.5,2.5c-0.7-0.5-1.3-0.9-2-1.4C62.3,71.5,62.8,71.2,63.5,71.2z"/>
	<path class="st2" d="M175,21.1c0.3,0,0.5,0,0.8,0c-0.4,0.9-0.6,2.1-1.7,2.6C173.8,22.6,173.8,21.7,175,21.1z"/>
	<path class="st2" d="M34.5,99.1c0.3-1.8,1.5-2.3,3.1-2C36.9,98.1,35.8,98.7,34.5,99.1z"/>
	<path class="st2" d="M8.1,87.5c1.9,0.2,2.3,1.5,2,3.1C9,89.9,8.4,88.8,8.1,87.5z"/>
	<path class="st2" d="M78,83.1c1.1,0.1,2.4-0.5,3.1,1C79.9,84.2,78.7,84.4,78,83.1z"/>
	<path class="st11" d="M112.2,79.4c-1.1,0.5-1.8,3.2-3.4,0.6c0.4-0.3,0.8-0.6,1.2-0.9c0,0,0.3-0.3,0.3-0.3c0.6,0,1.1,0,1.7,0
		C112.1,79,112.1,79.2,112.2,79.4z"/>
	<path class="st2" d="M75.5,82.1c1,0.1,2.1-0.3,2.6,1C77,83.3,76.1,83.1,75.5,82.1z"/>
	<path class="st11" d="M105,83.1c0.1-1.3,1.4-1,2.1-1.5C107.2,83.2,106.1,83.1,105,83.1z"/>
	<path class="st7" d="M110,79c-0.4,0.3-0.8,0.6-1.2,0.9c0,0-0.1-0.1-0.1-0.1C109.1,79.6,109.6,79.3,110,79z"/>
	<path class="st12" d="M53,80.6c-0.1-0.9,0-1.6,1.1-1.5C53.8,79.6,53.4,80.1,53,80.6z"/>
	<path class="st4" d="M120.9,70.9C120.9,70.9,120.9,70.8,120.9,70.9c-0.2-0.3-0.5-0.6-0.8-0.8c0,0-0.1,0-0.1,0s0,0,0,0
		c0,0,0,0.1,0,0.1C120.3,70.4,120.6,70.6,120.9,70.9z"/>
	<path class="st4" d="M74.6,80.5c-0.8-1.3-1.8-2.5-3.5-2.5c0,0,0,0.1,0,0.1c-0.1-0.6-0.4-1-1-1c0,0,0.1,0,0.1,0
		c-1-2.2-2.5-3.9-4.5-5.2c-1.6-2.5-4.7-4-5.4-7.2c0-0.4-0.1-0.8-0.1-1.1C60,62.3,60.4,60.9,59,60c0,0,0,0.1,0,0.1
		c-0.1-1-0.2-2-0.3-3c-1.6-5.7-0.7-11.4,0.1-17.2c0.7-1.7,1.4-3.4,0.4-5.2c0.8-0.9,1-2,0.8-3.2c0.3-0.6,0.7-1.3,1-1.9
		c0.7-0.1,1.4-0.3,2.2-0.4c0.3-0.3,0.7-0.5,1-0.8c1.8-0.5,3-1.7,3.8-3.4c0,0,0,0.1,0,0.1c1.2-0.5,2.1-1.4,2.3-2.7
		c0.3-0.4,0.6-0.7,0.9-1.1c0.2-0.7,0.3-1.4,0.5-2.1c0,0-0.1,0-0.1,0c1.6,0.5,3-0.2,4.5-0.4c0.7,0.4,1.8,0.3,2,1.4l0,0
		c-0.3,0.3-0.7,0.7-1,1c0,0,0,0,0,0c-0.5,0.3-1,0.7-1.5,1c-0.1,0.2-0.3,0.3-0.5,0.5c-0.3,0.5-0.7,1-1,1.5l0,0c-0.9,0.4-1.1,1.1-1,2
		l0,0c-0.7,0-0.9,0.4-1,1l0,0c-0.3,0.3-0.7,0.7-1,1l0,0c-0.8,0.5-1,1.2-1,2l0,0c-0.9,0.4-1,1.2-1,2l0-0.1c-5.1,9.7-5.6,19.7-2,30
		l0-0.1c0,1.1-0.2,2.3,1,3.1l0-0.1c0,1,0.2,2,1.5,2c0.5,1.2,1,2.3,1.5,3.5c-0.1,1,0,2,1,2.5l0,0c0.3,0.3,0.7,0.7,1,1l0,0
		c0.1,1.3,0.6,2.1,2,2l0,0c0,0.6,0.4,1,1,1l0,0c0.1,1,0.2,2,0.3,3.1l-0.2,0.3C75.6,80.5,75.1,80.5,74.6,80.5z"/>
	<path class="st5" d="M45.6,23.1c2.8,2.1,5.3,4.6,7.5,7.4c-0.3,3,2.3,4,3.9,5.7c-0.4,3.6-2.7,0.5-3.9,1c-5.3-1.1-10.6-2.1-15.9-3.2
		c-0.9-0.5-1.7-1-2.6-1.4c-1.6-1.2-3.3-2.3-5.3-2.6c-3-2.7-7.8-2.1-11.6-2.3c0.5-2.6,2.8-3.8,4.3-5.6c1.6-0.6,3.7-0.3,4.8-2.1
		c3.6,0,7.2,0,10.8,0.1c0.3,1.6,1.6,0.9,2.6,1.1C41.7,22.3,43.3,23.8,45.6,23.1z"/>
	<path class="st10" d="M22,22.1c-1.5,1.8-3.8,3-4.3,5.6c3.8,0.2,8.5-0.3,11.6,2.3c-0.4,0-0.9,0.1-1.3,0.1c-2.6-0.3-5.1-1.3-7.8-1
		c-2.9,0.3-1.7,1.6-0.8,2.8c-0.4,0.1-0.8,0.1-1.3,0.2c-1.3-0.3-1.8-1.4-2.5-2.4c-0.5-1.2,2.2-3.7-1.5-3.5c0-0.3,0-0.7,0.1-1
		c2.3-0.9,4.1-2.8,6.7-3.2C21.2,22,21.6,22,22,22.1z"/>
	<path class="st2" d="M128.1,11.3c-2.2,5.6-5.4,10.9-6.9,16.8c-0.7,0-1.4-0.1-2.1-0.1c0-0.7,0-1.4,0-2c3-1.7,3.2-5.1,4.5-7.7
		c1.4-2.8,2.2-5.8,4.4-8.1C128,10.5,128.1,10.9,128.1,11.3z"/>
	<path class="st15" d="M53.1,37.3c1.3-0.5,3.5,2.6,3.9-1c0-0.4,0.1-0.8,0.1-1.2c0.3,0,0.6,0.1,0.9,0c0.4-0.1,0.9-0.2,1.3-0.3
		c1.1,1.8,0.3,3.5-0.4,5.2c-1.4-0.7-1.6,1.8-2.9,1.1c0.6-2.5-2.3-1.6-2.9-2.9C53,37.8,53,37.6,53.1,37.3z"/>
	<path class="st11" d="M119.1,25.9c0,0.7,0,1.4,0,2c0,0-0.4,0.3-0.4,0.3c-2.9-1.7-4.5-4.7-6.8-7c-0.3-0.4-0.5-0.8-0.8-1.1
		c0.2-0.3,0.3-0.6,0.5-0.9C114.5,20.9,117.1,23.1,119.1,25.9z"/>
	<path class="st3" d="M37.5,20.1c-3.6,0-7.2,0-10.8-0.1c-0.2,0-0.5,0-0.7,0.1c4-1.5,8.1-1.6,12.1,0C37.9,20,37.7,20,37.5,20.1z"/>
	<path class="st3" d="M85.8,13.4c3.4-0.5,6.8-0.6,10.2-0.1c0,0.3-0.1,0.6-0.1,0.9c-2.6,0.1-5.3,0.2-7.9,0.3
		C87.3,14.1,86.5,13.8,85.8,13.4z"/>
	<path class="st9" d="M7.3,29.2c-2.2,1.6-3.4,4.5-6.2,5.5c1.2-2.3,2.6-4.3,5-5.5C6.5,29.1,6.9,29.1,7.3,29.2z"/>
	<path class="st14" d="M68,25c-0.7,1.7-1.9,2.9-3.8,3.4c0-0.5,0-0.9,0-1.4c0-0.5-0.1-0.9-0.1-1.4c0.3-0.4,0.6-0.7,1-1.1
		C65.6,27.2,67,24.4,68,25z"/>
	<path class="st7" d="M68,25c-0.9-0.6-2.4,2.3-2.9-0.5c0.8-0.8,1.7-1.6,2.5-2.4c0.6,0,1.1,0,1.7,0C68.8,23.1,68.4,24.1,68,25L68,25z
		"/>
	<path class="st2" d="M77.9,16c1.9-1.5,4.1-1.9,6.4-2.1c0.2,0.4,0.5,0.8,0.7,1.2c-1.4,0.2-3-0.7-4,1c-1,0-2,0-3,0L77.9,16z"/>
	<path class="st12" d="M57.1,35c0,0.4-0.1,0.8-0.1,1.2c-1.6-1.7-4.2-2.7-3.9-5.7C54.4,32.1,55.7,33.5,57.1,35z"/>
	<path class="st11" d="M139,2.2c-1,1.2-2.4,1.6-3.8,1.9c-0.4,0-0.9,0-1.3-0.1c1.4-1.5,3.2-2.1,5.1-2.7C139.1,1.7,139.1,2,139,2.2z"
		/>
	<path class="st11" d="M76,18.7c-1.5,0.2-2.9,0.9-4.5,0.4c1.2-1.5,3-2,4.6-2.8c0.1,0.3,0.3,0.6,0.4,0.9C76.4,17.8,76.2,18.3,76,18.7
		z"/>
	<path class="st9" d="M26,20.1c0.2-0.1,0.5-0.1,0.7-0.1c-1.1,1.8-3.1,1.5-4.8,2.1c-0.4,0-0.8-0.1-1.1-0.1C22.3,20.7,24,19.9,26,20.1
		z"/>
	<path class="st2" d="M45.6,23.1c-2.3,0.7-3.9-0.9-5.6-2c0-0.3-0.1-0.6-0.1-0.9C42,20.8,43.8,21.9,45.6,23.1z"/>
	<path class="st7" d="M107.4,17.7c-1,0.1-2,0.2-3,0.3c-0.8-0.6-1.5-1.3-2.3-1.9c1,0,2,0,3.1,0c0,0-0.1,0-0.1,0
		c0.2,1.2,1.4,1,2.1,1.5L107.4,17.7z"/>
	<path class="st7" d="M85.1,15.1c-0.2-0.4-0.5-0.8-0.7-1.2c0.4-0.6,0.8-0.8,1.5-0.5c0.7,0.3,1.5,0.7,2.2,1c0,0,0.1,0.2,0.1,0.2
		C87,14.8,86,15,85.1,15.1L85.1,15.1z"/>
	<path class="st9" d="M14.1,25.2c0,0.3-0.1,0.7-0.1,1c-0.6,0.4-1.2,0.7-1.9,1.1c-0.4-0.1-0.7-0.1-1.1-0.2c0-0.3,0-0.5,0-0.8
		C12.1,25.9,13.1,25.5,14.1,25.2z"/>
	<path class="st2" d="M7.3,29.2c-0.4,0-0.8,0-1.2-0.1c1.1-1.1,2.2-2,3.9-2.1c0,0,0.3,0.3,0.3,0.3c0,0.3-0.1,0.6-0.2,0.9
		c-0.3,0.3-0.7,0.6-1,0.9L9.1,29C8.5,29.1,7.9,29.1,7.3,29.2z"/>
	<path class="st9" d="M134,4.1c0.4,0,0.9,0,1.3,0.1c-1,1.1-2,2.3-3.8,2C132.3,5.4,133.1,4.8,134,4.1z"/>
	<path class="st9" d="M128.1,11.3c0-0.4,0-0.8-0.1-1.2c0.7-0.9,1.3-1.7,2-2.6C130.4,9.3,129.2,10.3,128.1,11.3z"/>
	<path class="st11" d="M98.2,14c1.4,0.1,2.9-0.3,4,1c0,0-0.1,0.2-0.1,0.2c-1,0-2,0-3,0.1c-0.4-0.3-0.8-0.6-1.2-0.9L98.2,14z"/>
	<path class="st7" d="M111,20.1c-1.5,0.2-2.1-0.6-2.2-2c1.2-0.4,1.9,0.3,2.6,1.1C111.4,19.5,111.2,19.8,111,20.1z"/>
	<path class="st2" d="M59.2,34.8c-0.4,0.1-0.9,0.2-1.3,0.3c0.5-1.3,0.8-2.7,2.2-3.5C60.3,32.8,60,33.8,59.2,34.8z"/>
	<path class="st2" d="M139,2.2c0-0.3,0-0.6,0-0.9c0.9-0.1,1.8-0.3,2.6-0.4c0.4,0,0.8,0,1.2,0C141.9,2.4,140.4,2.1,139,2.2z"/>
	<path class="st11" d="M105.1,16.1c-1,0-2,0-3.1,0c0,0,0,0,0,0c-0.1-0.3-0.1-0.7,0-1c0,0,0.1-0.2,0.1-0.2
		C103.3,15,104.5,14.8,105.1,16.1z"/>
	<path class="st11" d="M71.6,19.1c-0.2,0.7-0.3,1.4-0.5,2.1c-0.4,0-0.9,0-1.3,0.1c-0.2,0-0.3,0.1-0.5,0.1c-0.1-0.1-0.3-0.3-0.4-0.4
		C69.5,19.9,70.4,19.3,71.6,19.1z"/>
	<path class="st12" d="M39.9,20.3c0,0.3,0.1,0.6,0.1,0.9c-0.9-0.2-2.2,0.5-2.6-1.1c0.2-0.1,0.5-0.1,0.7,0
		C38.7,20.1,39.3,20.2,39.9,20.3z"/>
	<path class="st11" d="M63.2,29.2c-0.7,0.1-1.4,0.3-2.2,0.4c0.3-1.1,0.8-2.1,1.9-2.7l0.3,0.3C63.2,27.9,63.2,28.5,63.2,29.2z"/>
	<path class="st11" d="M95.9,14.2c0-0.3,0-0.6,0.1-0.9c0.8-0.2,1.6-0.1,2.2,0.6c0,0-0.3,0.3-0.3,0.3C97.2,14.3,96.6,14.2,95.9,14.2z
		"/>
	<path class="st2" d="M76.5,17.3c-0.1-0.3-0.3-0.6-0.4-0.9c0.6-0.1,1.2-0.3,1.8-0.4c0,0,0.1,0.1,0.1,0.1c-0.1,0.4-0.3,0.7-0.4,1.1
		C77.2,17.2,76.9,17.2,76.5,17.3z"/>
	<path class="st11" d="M107.1,17.6c-0.7-0.5-1.9-0.3-2.1-1.5C106.1,16.1,107.2,15.9,107.1,17.6z"/>
	<path class="st11" d="M64,25.6c0,0.5,0.1,0.9,0.1,1.4c-0.3,0.1-0.7,0.2-1,0.3c0,0-0.3-0.3-0.3-0.3C63.3,26.5,63.7,26,64,25.6z"/>
	<path class="st2" d="M11.1,26.2c0,0.3,0,0.5,0,0.8c-0.3,0.1-0.6,0.2-0.9,0.2c0,0-0.3-0.3-0.3-0.3C10.3,26.7,10.7,26.5,11.1,26.2z"
		/>
	<path class="st11" d="M69.2,22c-0.6,0-1.1,0-1.7,0c0.5-0.4,0.9-0.8,1.4-1.1c0.1,0.1,0.3,0.3,0.4,0.4C69.2,21.6,69.2,21.8,69.2,22z"
		/>
	<path class="st4" d="M111,20.1c0.2-0.3,0.4-0.6,0.5-0.9c0,0,0.1,0,0.1,0C111.4,19.5,111.2,19.8,111,20.1
		C111.1,20.1,111,20.1,111,20.1L111,20.1z"/>
	<path class="st5" d="M141,15.6c1.8-1.8,3.6-3.6,5.4-5.4c1.8,0.4,2.8-0.6,3.6-2.1c0,0-0.1,0.1-0.1,0.1c0.9,0.1,1.8,0,2.1-1.1
		c0,0-0.1,0.1-0.1,0.1c1.7,0,3.3,0,5,0c0.1,0.3,0.1,0.6,0,0.9c-0.7,0.7-1.4,1.3-2,2c-0.8,0.5-2.1,0.6-2,2.1l0.1-0.1
		c-1.2-0.2-2.3-0.1-2.1,1.6c-1.8,0.9-3.7,1.7-5.5,2.6C144,15.7,142.3,17.2,141,15.6z"/>
	<path class="st15" d="M141,15.6c1.3,1.6,3,0.2,4.4,0.7c-3.5,1.8-6.9,3.5-10.3,5.3l-0.1,0.1c0-0.5,0-0.9,0-1.4
		C137.4,19.2,139.3,17.5,141,15.6z"/>
	<path class="st15" d="M118.7,28.2c0,0,0.4-0.3,0.4-0.3c0.7,0,1.4,0.1,2.1,0.1c0.5-0.1,1-0.3,1.4-0.4c0.2,0.2,0.4,0.4,0.5,0.6
		c-0.3,0.8-1.3,1.5-0.1,2.4C121,30.8,118.9,31.1,118.7,28.2z"/>
	<path class="st10" d="M135.1,20.3c0,0.5,0,0.9,0,1.4c0,0-0.1,0.2-0.1,0.2L135,22c-0.9,0-1.7,0-2.1,1l0-0.1
		c-1.3,0.4-2.6,0.8-3.9,1.2c-0.2-0.2-0.3-0.4-0.5-0.6C130.8,22.5,132.9,21.4,135.1,20.3z"/>
	<path class="st13" d="M157,8.1c0.1-0.3,0-0.6,0-0.9c-0.2-0.3-0.4-0.6-0.6-0.9c0.4-1.1-0.2-2-0.8-2.8c0.2-0.2,0.4-0.3,0.6-0.5
		c0.6,0.7,1.3,1.4,1.9,2.1c0,0.7,0.1,1.4,0.1,2.2c-0.1,0.3-0.3,0.6-0.4,0.8C157.5,8.1,157.2,8.1,157,8.1z"/>
	<path class="st15" d="M156.4,6.3c0.2,0.3,0.4,0.6,0.6,0.9c-1.7,0-3.3,0-5,0C153.1,5.2,154.8,6,156.4,6.3z"/>
	<path class="st13" d="M150.1,8.1c-0.8,1.4-1.8,2.5-3.6,2.1C147.5,9.2,148.3,7.8,150.1,8.1z"/>
	<path class="st13" d="M123.9,27c0.7-1.2,1.9-1.8,3.1-2.2c0,0.3,0,0.7,0.1,1c-1,0.5-1.9,1-2.9,1.5L123.9,27z"/>
	<path class="st10" d="M127,25.7c-0.1-0.3-0.1-0.7-0.1-1c0.5-0.4,1.1-0.8,1.6-1.1c0.2,0.2,0.3,0.4,0.5,0.6
		C128.4,24.7,127.7,25.2,127,25.7z"/>
	<path class="st15" d="M152,7.1c-0.3,1.1-1.2,1.1-2.1,1.1C150.2,6.8,151.1,6.9,152,7.1z"/>
	<path class="st15" d="M122.6,27.6c0.4-0.2,0.9-0.4,1.3-0.7c0,0,0.3,0.3,0.3,0.3c-0.3,0.3-0.7,0.6-1,0.9
		C122.9,28,122.7,27.8,122.6,27.6z"/>
	<path class="st16" d="M10.3,27.3c0.3,0,0.6-0.1,0.9-0.2c0.4,0.1,0.7,0.1,1.1,0.2c-0.1,1.9-2.3,2.8-2.1,4.8l-0.3,0.2
		c-2.3-0.7-1.2-2.1-0.7-3.3c0,0-0.1,0.1-0.1,0.1c0.3-0.3,0.7-0.6,1-0.9C10.2,27.9,10.3,27.6,10.3,27.3z"/>
	<path class="st16" d="M10,34c-0.1-0.6-0.1-1.2-0.2-1.7c0,0,0.3-0.2,0.3-0.2c1.3-0.3,2.7-0.7,4-1c-0.8,1.6-2,2.9-3.9,3.1L10,34z"/>
	<path class="st16" d="M13,48c0.3-2,0.7-3.9,1-5.9c0,0,0.1-0.1,0.1-0.1c2.1,2.4,0.6,4.2-1,6L13,48z"/>
	<path class="st16" d="M9.9,52.2c0.3-2,1.6-3.1,3.1-4.2c0,0,0.1,0.1,0.1,0.1c0,2.1-1.6,3.2-3.1,4.1L9.9,52.2z"/>
	<path class="st16" d="M14,42.2c-0.7-1.3-1.4-2.6-2.1-3.9l0.2-0.2c0.6,0.3,1.3,0.7,1.9,1C14,40.1,14.1,41.1,14,42.2L14,42.2z"/>
	<path class="st16" d="M10.9,37.3C8.8,36.7,8.3,35.7,10,34c0,0,0.1,0.1,0.1,0.1c0.3,1,0.6,2,1,2.9L10.9,37.3z"/>
	<path class="st16" d="M11.9,38.3c-0.3-0.3-0.7-0.6-1-1c0,0,0.2-0.2,0.2-0.2c0.3,0.3,0.7,0.7,1,1L11.9,38.3z"/>
	<path class="st17" d="M109.5,25.1c0.1,0.2,0.3,0.3,0.5,0.5c-0.2,1.7,0.3,2.9,2,3.5c0,0,0,0,0,0c-0.1,0.9,0,1.7,1,2c0,0,0,0,0,0
		c0,0.9-0.1,1.7,1,2c0,0,0,0,0,0c0,1.1-0.3,2.4,1,3c0,0,0,0,0,0c1.6,8,1.1,16,1,24c0,0,0,0,0,0c-1.6,1-1,2.6-1,4c0,0,0,0,0,0
		c-1.1,0.3-1,1.2-1,2c0,0,0,0,0,0c-1.5,0.9-1.6,2.7-2.5,4.1c-0.2,0.5-0.3,1-0.5,1.5c-1,1-2.2,1.9-2,3.5c0,0,0,0,0,0
		c-0.8,0.2-1.1,0.8-1,1.5c-0.5,0.5-1,1-1.5,1.5c-0.7,0-1.4,0.2-1.6,1.1c0,0,0.1-0.1,0.1-0.1c-2.6,0.1-4,3.3-6.9,2.7
		c0.3-0.4,0.6-0.8,0.9-1.2c0.3-0.5,0.7-1,1-1.5l0,0c0.9-0.4,1.1-1.2,1-2c0,0,0,0,0,0c0.4-0.3,0.7-0.7,1.1-1c1.1-0.8,1.1-1.9,1-3l0,0
		c0.7,0,0.9-0.4,1-1l-0.1,0c4.3-2.8,2.8-7.1,2.8-10.9c0.1-1,0.2-2.1,0.3-3.1c2.1-3.8,0.5-8,1-12c3.6,0.3,4.7-0.7,2.5-4.2
		c-2.2-3.4-4.3-6.9-5.5-10.8c0-1.1,0.2-2.3-1-3l0,0.1c0-1-0.3-1.9-1-2.5c-0.2-0.5-0.3-1-0.5-1.5c-1-1.5-1.1-3.8-3.5-4l0,0
		c1.7-4.5,3.3,1.4,5,0c0,0,0,0,0,0c0.3,0.3,0.7,0.7,1,1c0,0,0,0,0,0c0.3,0.3,0.7,0.7,1,1c0,0,0,0,0,0c0.3,0.3,0.7,0.7,1,1
		c0,0,0,0,0,0c0.3,0.3,0.7,0.7,1,1c0,0,0,0,0,0C108.2,24.8,108.8,25.1,109.5,25.1z"/>
	<path class="st18" d="M98.1,81.7c2.9,0.6,4.3-2.6,6.9-2.7c0.4,0.4,0.8,0.7,1.2,1.1c-0.5,1-2.2,0.7-2.2,2.1
		c-1.2-0.2-2.3-0.3-3.1,0.9c0,0,0.1-0.1,0.1-0.1c-1.7,0.2-3.6-0.6-5.1,1.1c0,0,0.1,0,0.1,0c-7,0.7-13.6-0.9-19.9-3.6
		c0,0,0.2-0.3,0.2-0.3c0.7,0,1.3-0.1,1.6-0.8c1.8-0.3,3.1,3.2,5.2,0.8c0.3,0,0.6,0,0.8,0c1,0.8,1.9,1.7,3,2.3
		c2.3,1.2,1.8-0.7,1.9-1.8c1.1,1.2,1.9,3.1,4.1,1.5C94.9,84.2,96.4,81.1,98.1,81.7z"/>
	<path class="st8" d="M127.2,57.1c-0.5,0-1,0-1.5-0.1c-0.2-4.6-0.4-9.2-0.6-13.8c0.8-0.6,0.9-1.8,0.2-2.4c-0.2,0.7-0.3,1.5-0.5,2.2
		c-1.1-1.1-0.4-2.6-0.8-3.9c0,0-0.1,0-0.1,0c1.4-0.8,0.8-1.5,0-2.2c0.1-0.3,0-0.6-0.1-0.9c-0.4-0.9-0.7-1-1,0.1l0,0
		c-0.9-0.4-0.8-1.2-1-2l0,0c1.4-0.8,0.1-2.4,1-3.4c0.5,0.9,0.6,2.3,2.3,1.6c-0.6,4.9,2.9,8.9,2.6,13.7c-0.3,0-0.6,0-0.9,0
		c-1.7,2.3-1.7,4.7,0,7c0.3,0,0.6,0,0.9,0C127.7,54.4,127.4,55.8,127.2,57.1z"/>
	<path class="st19" d="M104.1,20.1c-1.7,1.4-3.3-4.5-5,0c-1.5-0.4-4-4.6-4,1c-1.8-2.7-4.1-3.6-7-1.6c-1.1-2.8-2.7-0.6-4-0.4
		c-0.3-0.4-0.7-0.8-1-1.3c0.3-0.5,0.6-1.1,1-1.6c0.4-0.1,0.7-0.1,1.1-0.2c4.7,2,9.3,1.5,14,0c1,0,2,0,3,0.1c0,0,0,0,0,0
		c0.8,0.6,1.5,1.3,2.3,1.9C102.6,18.5,104.1,19.4,104.1,20.1z"/>
	<path class="st20" d="M125.3,32.3c-1.6,0.7-1.8-0.6-2.3-1.6c0,0,0-0.2,0-0.2c-1.1-0.9-0.2-1.6,0.1-2.4c0.3-0.3,0.7-0.6,1-0.9
		c1-0.5,1.9-1,2.9-1.5c0.7-0.5,1.4-1,2.1-1.5c1.3-0.4,2.6-0.8,3.9-1.2c0,0.7,0,1.4,0,2.1l0,0c-2,1.3-3.7,3-5,5l0,0
		c-0.8,0.7-1.7,1.4-2.5,2C125.5,32.1,125.3,32.3,125.3,32.3z"/>
	<path class="st21" d="M116,60.1c0.1-8,0.6-16.1-1-24C118.6,44,119,52,116,60.1z"/>
	<path class="st22" d="M112,78.8c-0.6,0-1.1,0-1.7,0c0-2.3,1.2-2.8,3.2-2.3C113,77.2,112.5,78,112,78.8z"/>
	<path class="st19" d="M111.5,70.1c0.9-1.3,1-3.1,2.5-4.1C114.1,67.9,113.9,69.7,111.5,70.1z"/>
	<path class="st19" d="M109,75.1c-0.2-1.7,1-2.6,2-3.5C111.1,73.2,110.5,74.4,109,75.1z"/>
	<path class="st21" d="M112,29.1c-1.7-0.6-2.2-1.9-2-3.5C111,26.6,112.1,27.5,112,29.1z"/>
	<path class="st21" d="M115,64.1c0-1.4-0.6-3,1-4C116,61.5,116.5,63,115,64.1z"/>
	<path class="st19" d="M124,36c0.1,0.3,0.1,0.6,0.1,0.9c0,0.7,0,1.5,0,2.2c0,0,0.1,0,0.1,0c-1.3-0.7-1-2-1.1-3.1c0,0,0,0,0,0
		c0,0,0.5,0,0.5,0L124,36z"/>
	<path class="st21" d="M115,36.1c-1.4-0.7-1-1.9-1-3C115.2,33.8,115.1,35,115,36.1z"/>
	<path class="st21" d="M113,31.1c-1.1-0.3-1.1-1.2-1-2C112.9,29.5,113.1,30.3,113,31.1z"/>
	<path class="st21" d="M114,33.1c-1.1-0.3-1.1-1.2-1-2C113.9,31.5,114.1,32.3,114,33.1z"/>
	<path class="st21" d="M114,66.1c0-0.9-0.1-1.7,1-2C115,64.9,115,65.8,114,66.1z"/>
	<path class="st23" d="M120,70.1C120,70.1,120,70.1,120,70.1c-0.1-0.9,0-1.6,0.8-2.1C121,68.9,120.8,69.6,120,70.1z"/>
	<path class="st18" d="M105,79.1c0.2-0.8,0.8-1,1.6-1.1C106,78.4,105.5,78.8,105,79.1z"/>
	<path class="st19" d="M108,76.6c0-0.8,0.2-1.4,1-1.5C108.7,75.6,108.4,76.1,108,76.6z"/>
	<path class="st23" d="M120,70.1C120,70.1,120.1,70.1,120,70.1c-0.3,0.3-0.7,0.7-1.1,1C119.2,70.7,119.6,70.4,120,70.1z"/>
	<path class="st8" d="M122.1,34.1c-0.1-0.1-0.3-0.3-0.4-0.4C121.9,33.8,121.9,33.9,122.1,34.1C122,34.1,122.1,34.1,122.1,34.1z"/>
	<path class="st19" d="M109.5,25.1c-0.7,0-1.3-0.3-1.5-1C108.5,24.4,109,24.8,109.5,25.1z"/>
	<path class="st19" d="M108,24.1c-0.3-0.3-0.7-0.7-1-1C107.7,23.1,108,23.5,108,24.1z"/>
	<path class="st19" d="M107,23.1c-0.3-0.3-0.7-0.7-1-1C106.7,22.1,107,22.5,107,23.1z"/>
	<path class="st19" d="M106,22.1c-0.3-0.3-0.7-0.7-1-1C105.6,21.2,106,21.5,106,22.1z"/>
	<path class="st7" d="M111,20.1C111,20.1,111.1,20.1,111,20.1c0.3,0.3,0.5,0.7,0.8,1.1C111.6,20.8,111.3,20.5,111,20.1z"/>
	<path class="st19" d="M105,21.1c-0.3-0.3-0.7-0.7-1-1C104.6,20.2,105,20.5,105,21.1z"/>
	<path class="st20" d="M12.1,38.1c-0.3-0.3-0.7-0.7-1-1c-0.3-1-0.6-2-1-2.9c2-0.2,3.1-1.4,3.9-3.1l0,0c0.3-0.3,0.7-0.7,1-1
		c0.2-0.1,0.3-0.3,0.5-0.4c0.7,1,1.2,2.1,2.5,2.4c3.4,2.1,7.2,2.4,11.1,2.8c1.3,0,2.6,0.1,3.9,0.1c1.2,1.1,2.6,0.9,4,0.8
		c2,0.4,4,0.8,6,1.2c1.2,3.2,4,4.1,6.8,5c0.5,0.8,1.3,1,2.2,1l0,0c0.7,1,1.3,1.1,2,0c0.2,0,0.5,0,0.7,0l0.4,0c0,4.3,0,8.6,0,12.9
		c-0.2,0.9,0.1,1.5,0.7,2.1c0.5,1.7,0.9,3.3,1.4,5c0.1,2.6,3.9,4.3,1.7,7.4c-0.7,0.5-1.3,1.1-2,1.6c0,0,0.1-0.1,0.1-0.1
		c-1.3,0.3-2.5,0.9-3.3,1.9c-2.3,0.6-4.4,1.6-6.3,3.1c-0.4,0-0.8-0.1-1.1-0.1c-3.6,2.4-8,3.2-11.4,6.1l0.1-0.1
		c-0.9,0-1.7,0.1-2.1,1.1c0,0,0.1-0.1,0.1-0.1c-0.5,0.1-1.1,0.2-1.6,0.2c-1.4-0.4-2.9-0.8-4.3-1.3c-5-1.7-4.9-1.7-1.6-6.1
		c3.5-4.6,5.2-9.7,3.7-15.8C27,51.7,19.8,46,14,39.1C13.4,38.8,12.7,38.4,12.1,38.1z"/>
	<path class="st24" d="M14,39.1c5.8,6.9,13,12.6,15.3,22c1.5,6.1-0.2,11.1-3.7,15.8c-3.3,4.4-3.5,4.4,1.6,6.1
		c1.4,0.5,2.9,0.9,4.3,1.3c-0.7,1.2-2.9,1.3-2.4,3.4c-0.5,0.5-1,0.9-1.4,1.4c-3.3,2-1.6,3.6,0.5,5.1c0,0-0.1-0.1-0.1-0.1
		c-1.8,2.1-4.1,0.4-6.2,1c-0.4-0.4-0.8-0.8-1.1-1.2c0.1-0.2,0.2-0.4,0.2-0.5c1.5-2.5,2-4.9-0.3-7.2c-0.6-0.8-1.1-1.7-1.7-2.5
		c-1.3-3.3-4.4-3.8-7.4-4.5c-0.6-0.7-1.2-1.3-1.8-2c0.1-2.7,2.6-4.3,3.2-6.8c0.3-0.4,0.7-0.8,1-1.3l-0.1,0.1c0.7-0.1,1-0.4,1.1-1.1
		l-0.1,0.1c0.6-0.1,1-0.4,1.1-1.1l-0.1,0.1c1.1-0.3,1.8-1,2.1-2.1c0,0-0.1,0.1-0.1,0.1c1.7-1.1,3.3-2.2,5-3.4
		c1.2-0.7,2.6-1.1,3.3-2.5c-1.2-0.4-2.4-0.9-3.7-1.2c-4.1-0.7-7.5-3-11.4-4.1c-0.5-0.6-0.9-1.2-1.4-1.8c1.6-1,3.1-2,3.1-4.1
		c1.6-1.8,3.1-3.6,1-6C14.1,41.1,14,40.1,14,39.1z"/>
	<path class="st15" d="M35,83.1c3.3-2.9,7.8-3.7,11.4-6.1C43.7,81.2,39.6,82.5,35,83.1z"/>
	<path class="st13" d="M21.9,95c2-0.5,4.4,1.2,6.2-1c1.3-0.3,3-0.3,3.1,1.1c0.1,1.4-1.8,0.9-2.8,0.9c-2.4,0-4.9-0.1-7.3-0.2
		C21.3,95.5,21.6,95.3,21.9,95z"/>
	<path class="st15" d="M47.5,77.1c1.9-1.5,3.9-2.5,6.3-3.1c0.4,0,0.9,0.1,1.3,0.1C52.9,75.8,50.7,77.7,47.5,77.1z"/>
	<path class="st13" d="M28.1,94.1c-2-1.5-3.8-3.1-0.5-5.1C26.1,90.9,28.4,92.4,28.1,94.1z"/>
	<path class="st15" d="M29.1,87.6c-0.5-2,1.8-2.1,2.4-3.4c0.5-0.1,1.1-0.2,1.6-0.2C32.7,86.3,30.3,86.3,29.1,87.6z"/>
	<path class="st13" d="M55.1,74.1c-0.4,0-0.9-0.1-1.3-0.1c0.8-1.1,2-1.7,3.3-1.9C57.3,73.6,56,73.6,55.1,74.1z"/>
	<path class="st13" d="M57,72.1c0.7-0.5,1.3-1.1,2-1.6c0,0.3,0,0.5,0.2,0.8C58.7,72.1,58,72.6,57,72.1z"/>
	<path class="st15" d="M33,84.1c0.4-1,1.2-1.1,2.1-1.1C35,84.6,34.1,84.4,33,84.1z"/>
	<path class="st12" d="M128.1,59c0-0.3-0.1-0.6-0.2-0.8c0,0,0.2-0.3,0.2-0.3c10.4,2.8,21.1,3.4,31.7,4.6c2.4,1.2,5.5,1,7.3,3.4
		c-0.2,0.2-0.4,0.4-0.7,0.6c-3.4-1.8-7.1-2.9-10.9-2.4c-9.3,1.1-17.7-2.9-26.6-4c0,0,0.1,0.1,0.1,0.1
		C129.3,59.3,128.6,59.3,128.1,59z"/>
	<path class="st10" d="M174.2,70.3c-1.9,1.8-4.3,2.3-6.7,2.8c-1,0.2-2,1.1-3.1,0.4c0.6-0.7,1.2-1.5,1.8-2.2c0.3-0.4,0.6-0.8,0.9-1.2
		c0.3,0,0.7,0,1,0.1c2,2.7,3.9-0.9,5.8-0.1L174.2,70.3z"/>
	<path class="st12" d="M168.1,70.1c-0.3,0-0.7-0.1-1-0.1c-0.2-1.2-0.4-2.4-0.6-3.5c0.2-0.2,0.4-0.4,0.7-0.6
		C168.6,67.1,169.7,68.3,168.1,70.1z"/>
	<path class="st10" d="M164.4,38.6c3.2,0.8,6.3,2.1,9,4.1c-0.2,0.2-0.3,0.4-0.5,0.6c-3-1.3-6-2.7-9-4
		C164.1,39,164.2,38.8,164.4,38.6z"/>
	<path class="st10" d="M171.6,27.7c-1.8,2.3-3.7,4.4-6.1,5.9c-0.2-0.2-0.4-0.4-0.6-0.6c2-2,4-4,6-5.9
		C171.1,27.2,171.4,27.4,171.6,27.7z"/>
	<path class="st10" d="M161.1,36.3c-0.2,2.6,2.4,1.2,3.3,2.3c-0.2,0.2-0.3,0.4-0.5,0.6c-1.1-0.1-2.3-0.1-3.3-0.5
		c-0.8-0.3-2.4-0.1-2.2-1.2c0.1-1.2,1.5-1.5,2.7-1.5L161.1,36.3z"/>
	<path class="st10" d="M173.4,42.7c1,0.7,2,1.4,3,2c-0.2,0.2-0.3,0.4-0.5,0.5c-1.2-0.4-2.3-0.9-3-2C173,43.1,173.2,42.9,173.4,42.7z
		"/>
	<path class="st13" d="M164.2,34.3c-0.8,1.1-1.7,1.9-3.1,2c0,0-0.1-0.2-0.1-0.2c0.4-1.4,1.6-1.8,2.9-2.1L164.2,34.3z"/>
	<path class="st10" d="M165.5,33.6c-0.4,0.2-0.8,0.5-1.2,0.7c0,0-0.3-0.3-0.3-0.3c0.3-0.3,0.6-0.7,1-1
		C165.1,33.2,165.3,33.4,165.5,33.6z"/>
	<path class="st14" d="M165,12.1c0,3.3-0.8,6.7,1.3,9.7l-0.3,0.3c-2.5-1.7-2.6-4.4-2.8-7c1-0.8,0.8-1.9,0.9-2.9
		C164.4,12.2,164.7,12.2,165,12.1z"/>
	<path class="st14" d="M157.7,2.3c1.9,0,3.7,0.1,5.6,0.1c0.1,0.3,0.3,0.5,0.6,0.6c0,1.3,3.3,1.2,1.5,3.4L165,6.1
		C163.2,3.7,160,3.8,157.7,2.3z"/>
	<path class="st14" d="M165.4,6.4c-0.7,1.6,1.7,2.5,0.8,4.1c-1.1-1.7-1.9-1.5-2.2,0.4c-0.6-1.3-1.3-2.5-1.9-3.8c1-0.3,2-0.7,3-1
		L165.4,6.4z"/>
	<path class="st24" d="M163.9,10.9c0.4-1.9,1.1-2.1,2.2-0.4c0,0-0.1,0.1-0.1,0.1c-0.3,0.5-0.7,1-1,1.6c0,0,0,0,0,0
		c-0.3,0.1-0.7,0.1-1,0.2C164,11.8,164,11.4,163.9,10.9z"/>
	<path class="st14" d="M167.3,22.8c1.4,0.6,3,0.8,3.8,2.4c0,0-0.1-0.1-0.1-0.1c-1.7,0.1-3.2-0.3-4.1-2L167.3,22.8z"/>
	<path class="st14" d="M166.3,21.8c0.3,0.3,0.7,0.7,1,1c0,0-0.3,0.3-0.3,0.3c-0.3-0.3-0.7-0.7-1-1L166.3,21.8z"/>
	<path class="st14" d="M165,12.1c0.3-0.5,0.7-1,1-1.6C166.1,11.4,166,12.1,165,12.1z"/>
	<path class="st16" d="M11.7,79.1c2.9,0.7,6,1.2,7.4,4.5C16.6,82.1,13.7,81.4,11.7,79.1z"/>
	<path class="st16" d="M20.7,86.1c2.3,2.3,1.8,4.8,0.3,7.2C20.9,90.9,20.8,88.5,20.7,86.1z"/>
	<path class="st5" d="M166,22.1c0.3,0.3,0.7,0.7,1,1c0.9,1.7,2.3,2.1,4.1,2c-0.1,0.6-0.1,1.3-0.2,1.9c-2,2-4,4-6,5.9
		c-0.3,0.3-0.6,0.7-1,1c-1.2,0.3-2.5,0.7-2.9,2.1c-1.2,0-2.6,0.3-2.7,1.5c-0.1,1,1.4,0.9,2.2,1.2c1,0.4,2.2,0.3,3.3,0.5
		c3,1.3,6,2.7,9,4c0.7,1.1,1.8,1.6,3,2c1.1,1.3,2.2,2.5,3.3,3.8c-1,0.4-1.2,1.1-1.1,2.1c0,0,0,0,0,0c-1.2,0.9-3.1,1.4-2,3.5
		c-1.2,1.5-2.3,3-3.5,4.5c-2.5,2-2.5,4,0,6c0.4,0.8,0.7,1.6,1.1,2.4c0.8,0.7,0.4,1.6,0.3,2.5c-2-0.8-3.8,2.9-5.8,0.1
		c1.6-1.8,0.5-3-0.9-4.2c-1.9-2.4-4.9-2.2-7.3-3.4c0,0,0.2-0.4,0.2-0.4c0.8-0.1,1.6-0.1,2-1l0,0c0.9,0,1.6-0.2,2-1l0,0
		c0.3-0.3,0.7-0.7,1-1c0,0,0,0,0,0c1.3,0,2.4-0.5,2.6-1.8c0.2-1.2-0.8-1.2-1.6-1.3l0,0c-0.4-0.9-1.2-1-2-1l0,0c-0.3-0.3-0.7-0.7-1-1
		l0,0c-0.3-0.3-0.7-0.7-1-1l0,0c-0.3-0.3-0.7-0.7-1-1l0,0c-0.3-0.3-0.7-0.7-1-1l0,0c-0.4-1-1-1.7-2-2l0,0c-0.1-1.6-0.7-3-2-4l0,0
		c-0.9-5-0.3-10,0-15l0,0c1.2-0.7,1-1.9,1-3l0,0c1.7-1.3,2.1-3.1,2-5l0,0c1.2-0.7,1-1.9,1-3l0,0c1.8-0.8,2-2.4,2.1-4
		c0.4,0,0.7,0,1.1,0C163.4,17.8,163.4,20.4,166,22.1z"/>
	<path class="st14" d="M172.5,65.1c-2.5-2-2.5-4,0-6C171.8,61.1,171.9,63.1,172.5,65.1z"/>
	<path class="st14" d="M176,54.6c-1-2.2,0.8-2.7,2-3.5C178.3,52.8,177,53.6,176,54.6z"/>
	<path class="st15" d="M57.3,63.1c-0.5-1.7-0.9-3.3-1.4-5c0.4-0.3,0.8-0.7,1.2-1c0.1,1.1-0.3,2.3,1,3.1L58,60.1c0.1,1,0.1,2,0.2,2.9
		C57.9,63,57.6,63.1,57.3,63.1z"/>
	<path class="st25" d="M58.2,63c-0.1-1-0.1-2-0.2-2.9c0.4,0,0.7,0,1.1,0c0,0,0-0.1,0-0.1c0,1,0,2,0,3.1l0.1-0.1l-0.4,0L58.2,63z"/>
	<path class="st25" d="M60.1,63.5c0,0.4,0.1,0.8,0.1,1.1c-1.4,0.1-0.9-1-1.1-1.7c0,0-0.1,0.1-0.1,0.1C59.4,63.3,59.7,63.4,60.1,63.5
		z"/>
	<path class="st5" d="M8.1,54c0.7,0,1.4,0,2.1,0c2.9,2.6,6.7,3.5,10.2,4.9c1.1,0.4,2.9-0.1,2.7,2c-2.3,0.7-4.2,1.7-5,4.2
		c0,0,0.1-0.1,0.1-0.1c-1.5-0.1-2.3,0.4-2.1,2.1c0,0,0.1-0.1,0.1-0.1c-1-0.3-1.4,0-1.1,1.1c0,0,0.1-0.1,0.1-0.1
		c-1.1-0.4-1.3,0.2-1.1,1.1c0,0,0.1-0.1,0.1-0.1c-0.3,0.1-0.7,0.1-1,0.2c-1,1.3-2.3,2.4-3,3.8c-1.1,2.1-2,0.4-3,0.1
		c-0.7-2-1.3-3.9-2-5.9c0-1.4,0-2.7,0-4.1c0.9-1.5,1.2-3.2,1-5C7.4,57,8.1,55.7,8.1,54z"/>
	<path class="st13" d="M13.1,69.2c0.3-0.1,0.7-0.1,1-0.2c-0.3,0.4-0.7,0.8-1,1.3C13.1,70,13.1,69.6,13.1,69.2z"/>
	<path class="st7" d="M96,84.1c1.4-1.6,3.3-0.9,5.1-1.1C99.7,84.8,97.7,83.8,96,84.1z"/>
	<path class="st23" d="M101,83.1c0.8-1.2,1.9-1.1,3.1-0.9c0,0-0.1,0.5-0.1,0.5C103,82.8,102,83,101,83.1z"/>
	<path class="st26" d="M163.2,15.2c-0.4,0-0.7,0-1.1,0c-2.6,0.3-1.8,2.4-2.1,4c0,0,0,0,0,0c-1.2,0.7-1,1.9-1,3c0,0,0,0,0,0
		c-1.6,1.3-2.1,3-2,5c0,0,0,0,0,0c-1.2,0.7-1,1.9-1,3c0,0,0,0,0,0c-3,5-3,10,0,15c0,0,0,0,0,0c-0.1,1.7,0.2,3.3,2,4c0,0,0,0,0,0
		c0,1.3,0.7,2,2,2c0,0,0,0,0,0c0.3,0.3,0.7,0.7,1,1c0,0,0,0,0,0c0.3,0.3,0.7,0.7,1,1c0,0,0,0,0,0c0.3,0.3,0.7,0.7,1,1c0,0,0,0,0,0
		c0.3,0.3,0.7,0.7,1,1c0,0,0,0,0,0c0.4,0.9,1.2,1,2,1c0,0,0,0,0,0c-0.3,1-0.7,2-1,3.1c0,0,0,0,0,0c-0.3,0.3-0.7,0.7-1,1c0,0,0,0,0,0
		c-0.9,0-1.6,0.1-2,1c0,0,0,0,0,0c-0.9,0-1.6,0.1-2,1c0,0-0.2,0.4-0.2,0.4c-10.6-1.2-21.3-1.9-31.7-4.6c-0.3-0.3-0.6-0.5-0.9-0.8
		c0.2-1.3,0.4-2.7,0.7-4c0-2.3,0-4.7,0-7c0.3-4.8-3.2-8.9-2.6-13.7c0,0,0.2-0.2,0.2-0.2c1.5,0.1,2.5-0.3,2.5-2c0,0,0,0,0,0
		c2.9-0.5,4.6-2.1,5-5c0,0,0,0,0,0c2-0.4,3.8-0.9,2.1-3.5c3.4-1.8,6.9-3.5,10.3-5.3c1.9-0.9,3.7-1.8,5.6-2.6
		c0.7-0.5,1.4-1.1,2.1-1.6c0,0-0.1,0.1-0.1,0.1c1.3-0.2,2.3-0.9,3-2c1-0.3,1.6-1,1.8-2c0.2-0.3,0.3-0.5,0.4-0.8
		c1.3,0,2.5-0.1,3.8-0.1l0,0c0.6,1.3,1.3,2.6,1.9,3.8c0,0.4,0.1,0.9,0.1,1.4C164,13.3,164.2,14.4,163.2,15.2z"/>
	<path class="st6" d="M128.1,59c0.4,0.3,1.2,0.2,0.9,1.1c-0.6-0.1-1.2-0.2-1.7-0.3C127.6,59.6,127.9,59.3,128.1,59z"/>
	<path class="st26" d="M165,6.1c-1,0.3-2,0.7-3,1c0,0,0,0,0,0c-1.3-0.7-2.6-1.4-3.9-2c-0.6-0.7-1.3-1.4-1.9-2.1
		c0.3-0.3,0.7-0.6,1-0.9c0.2,0.1,0.4,0.2,0.5,0.2C160,3.8,163.2,3.7,165,6.1z"/>
	<path class="st15" d="M23,61c0.2-2.1-1.6-1.6-2.7-2c-3.5-1.4-7.2-2.3-10.2-4.9c0.4,0,0.8,0,1.1,0c3.9,1.1,7.3,3.5,11.4,4.1
		c1.3,0.2,2.5,0.8,3.7,1.2c-0.7,1.4-2.2,1.7-3.3,2.5C23,61.5,23,61.2,23,61z"/>
	<path class="st7" d="M70.1,77c0.6,0.1,1,0.4,1,1C70.4,78,70,77.8,70.1,77z"/>
	<path class="st17" d="M83,17.9c0.3,0.4,0.7,0.8,1,1.3c0,0,0,0,0,0c-0.3,0.3-0.7,0.7-1,1l0,0c-1,0.4-1.1,1.1-1,2l0,0
		c-1.5,0.5-2,1.6-2,3l0,0c-1,0.4-1,1.2-1,2l0,0c-1.2,0.7-1.1,1.9-1,3l0-0.1c-2.2,3.8-4.3,7.8-6.7,11.5c-2.5,3.7-1.8,5.1,2.7,4.5
		c0.5,5.4,0.9,10.7,1.4,16.1c-0.7,3-0.9,6,0.7,8.9c0.7,1.9,2.5,2.2,3.9,3.1l0,0c-0.1,0.9-0.1,1.7,1,2l0,0c-0.1,0.9,0,1.7,1,2l0,0
		c0.1,0.6,0.4,1,1,1l0,0c0.1,0.4,0.1,0.7,0.2,1.1c-2.2,2.3-3.4-1.1-5.2-0.8c0.1-0.2,0.1-0.4,0-0.6c-0.1-0.2-0.3-0.3-0.4-0.4
		c-0.5-0.4-1-0.8-1.5-1.2c0,0,0,0,0,0c-0.3-0.3-0.7-0.7-1-1c0,0,0,0,0,0c-0.3-1-1-1.8-2-2c0,0,0,0,0,0c-0.1-0.6-0.3-1-1-1
		c0,0,0,0,0,0c0.2-1.1-0.3-1.9-1-2.5c-0.5-1.2-1-2.3-1.5-3.5c-0.5-0.7-0.5-1.8-1.5-2c0,0,0,0.1,0,0.1c0-1.1,0.4-2.4-1-3.1
		c0,0,0,0.1,0,0.1c0.6-3.5-0.9-6.8-1.1-10.2c-0.4-6.9,2.1-13.2,3.1-19.8c0,0,0,0.1,0,0.1c1.1-0.3,1.1-1.2,1-2c0,0,0,0,0,0
		c1.1-0.3,1.1-1.2,1-2c0,0,0,0,0,0c0.7,0,0.9-0.4,1-1c0,0,0,0,0,0c0.3-0.3,0.7-0.7,1-1c0,0,0,0,0,0c0.9-0.4,1.1-1.1,1-2c0,0,0,0,0,0
		c0.8-0.2,1.1-0.8,1-1.5c0.2-0.1,0.3-0.3,0.5-0.5c0.8,0,1.3-0.2,1.5-1c0,0,0,0,0,0c0.6-0.1,1-0.3,1-1c0,0,0,0,0,0
		c1.7,0.1,2.9-0.8,4-2C82.4,18.1,82.7,18,83,17.9z"/>
	<path class="st19" d="M69.1,32.1c-1,6.6-3.5,12.9-3.1,19.8c0.2,3.4,1.7,6.7,1.1,10.2C63.5,51.8,64,41.8,69.1,32.1z"/>
	<path class="st19" d="M57.1,57.1c-0.4,0.3-0.8,0.7-1.2,1c-0.6-0.6-0.9-1.3-0.7-2.1c0.3-0.3,0.6-0.7,0.9-1c1.4-3.3,1.5-6.6,0-9.8
		c-0.3-0.7-0.6-1.4-0.9-2.1c0,0-0.4,0-0.4,0c0.4-0.7,0.8-1.3,1.1-2c1.4,0.7,1.6-1.8,2.9-1.1c-0.7,5.7-1.6,11.4-0.1,17.2
		c-0.2,0-0.4,0-0.6-0.1C57.8,57.1,57.5,57.1,57.1,57.1z"/>
	<path class="st21" d="M82.1,18.2c-1.1,1.1-2.3,2.1-4,2c-0.3-1-1.3-0.9-2-1.4c0.2-0.5,0.3-1,0.5-1.5c0.4,0,0.7-0.1,1.1-0.1
		c1.2,0,2.3-0.1,3.5-0.1C81.4,17.4,81.8,17.8,82.1,18.2z"/>
	<path class="st14" d="M69.2,22c0-0.2,0.1-0.4,0.2-0.7c0.2,0,0.3-0.1,0.5-0.1c0.1,0.4,0.3,0.7,0.4,1.1c-0.2,1.4-1,2.2-2.3,2.7
		C68.4,24.1,68.8,23.1,69.2,22z"/>
	<path class="st19" d="M76,77.1c0.5,0.4,1,0.8,1.5,1.2c0,0.3,0.2,0.4,0.5,0.4c0.1,0.2,0.1,0.4,0,0.6c-0.3,0.7-0.9,0.8-1.6,0.8
		C76.2,79.1,76.1,78.1,76,77.1z"/>
	<path class="st19" d="M73,74.1c1.1,0.3,1.7,1,2,2C73.7,76.1,73.1,75.3,73,74.1z"/>
	<path class="st19" d="M67,62.1c1.4,0.7,1,1.9,1,3.1C66.9,64.4,67,63.2,67,62.1z"/>
	<path class="st18" d="M60.1,63.5c-0.4-0.1-0.7-0.3-1.1-0.4c0-1,0-2,0-3.1C60.4,60.9,60,62.3,60.1,63.5z"/>
	<path class="st18" d="M58.2,57.1c0.2,0,0.4,0,0.6,0.1c0.1,1,0.2,2,0.3,3c-0.4,0-0.7,0-1.1,0c0,0,0.1,0.1,0.1,0.1
		C58.1,59.1,58.2,58.1,58.2,57.1z"/>
	<path class="st19" d="M74.1,24.1c0.1,0.9-0.1,1.6-1,2C72.9,25.2,73.1,24.5,74.1,24.1z"/>
	<path class="st7" d="M63.2,27.2c0.3-0.1,0.7-0.2,1-0.3c0,0.5,0,0.9,0,1.4c-0.3,0.3-0.7,0.5-1,0.8C63.2,28.5,63.2,27.9,63.2,27.2z"
		/>
	<path class="st19" d="M71.1,28.1c0.1,0.9,0.1,1.7-1,2C70,29.3,70.3,28.5,71.1,28.1z"/>
	<path class="st19" d="M70.1,30.1c0,0.9,0.1,1.7-1,2C69,31.3,69.2,30.5,70.1,30.1z"/>
	<path class="st19" d="M68,65.1c1.1,0.3,1,1.4,1.5,2C68.3,67,68.1,66.1,68,65.1z"/>
	<path class="st19" d="M71,70.6c0.7,0.7,1.2,1.5,1,2.5C71.1,72.5,71,71.6,71,70.6z"/>
	<path class="st19" d="M75,76.1c0.3,0.3,0.7,0.7,1,1C75.4,77.1,75.1,76.7,75,76.1z"/>
	<path class="st19" d="M72,73.1c0.7,0,1,0.4,1,1C72.7,73.8,72.4,73.4,72,73.1z"/>
	<path class="st19" d="M72.1,27.1c-0.1,0.6-0.3,1-1,1C71.4,27.8,71.7,27.4,72.1,27.1z"/>
	<path class="st19" d="M73.1,26.1c-0.3,0.3-0.7,0.7-1,1C72.1,26.5,72.4,26.1,73.1,26.1z"/>
	<path class="st19" d="M75.1,22.6c0,0.8-0.2,1.4-1,1.5C74.4,23.6,74.7,23.1,75.1,22.6z"/>
	<path class="st21" d="M77.1,21.1c-0.2,0.8-0.8,1.1-1.5,1C76.1,21.8,76.6,21.4,77.1,21.1z"/>
	<path class="st7" d="M70.3,22.4c-0.1-0.4-0.3-0.7-0.4-1.1c0.4,0,0.9,0,1.3-0.1C70.8,21.6,70.5,22,70.3,22.4z"/>
	<path class="st21" d="M78.1,20.1c0,0.7-0.4,1-1,1C77.4,20.8,77.7,20.4,78.1,20.1z"/>
	<path class="st13" d="M43.1,37.1c-2-0.4-4-0.8-6-1.2c-0.2-0.6-1.1-1.2,0-1.8c5.3,1.1,10.6,2.1,15.9,3.2c0,0.3,0,0.6,0,0.9
		C49.7,38.2,46.5,36.5,43.1,37.1z"/>
	<path class="st15" d="M37.1,34.1c-1.2,0.6-0.2,1.2,0,1.8c-1.4,0-2.8,0.3-4-0.8c0-0.3,0-0.5,0-0.8c0.3-0.4,0.7-0.8,1-1.2
		c0.2-0.2,0.3-0.3,0.5-0.5C35.4,33.1,36.2,33.6,37.1,34.1z"/>
	<path class="st15" d="M27.9,30.2c0.4,0,0.9-0.1,1.3-0.1c2.1,0.3,3.7,1.4,5.3,2.6c-0.1,0.2-0.3,0.3-0.5,0.5
		C31.8,32.6,29.8,31.6,27.9,30.2z"/>
	<path class="st17" d="M27.9,30.2c1.9,1.4,3.9,2.5,6.2,3c-0.3,0.4-0.7,0.8-1,1.2c-1.3,0-2.6-0.1-3.9-0.1c-3.1-1.5-6.5-1.4-9.8-2.2
		c-0.9-1.3-2.2-2.5,0.8-2.8C22.8,28.8,25.3,29.9,27.9,30.2z"/>
	<path class="st24" d="M14.1,31.1c-1.3,0.3-2.7,0.7-4,1c-0.2-2,2-2.9,2.1-4.8c0.6-0.4,1.2-0.7,1.9-1.1c3.7-0.2,1,2.3,1.5,3.5
		c-0.2,0.1-0.3,0.2-0.5,0.4C14.8,30.4,14.4,30.8,14.1,31.1L14.1,31.1z"/>
	<path class="st15" d="M19.3,31.9c3.2,0.8,6.7,0.8,9.8,2.2c0,0.3,0,0.5,0,0.8c-3.8-0.4-7.7-0.7-11.1-2.8C18.5,32,18.9,32,19.3,31.9z
		"/>
	<path class="st24" d="M43.1,37.1c3.4-0.5,6.6,1.2,10,1.1c0.6,1.3,3.5,0.4,2.9,2.9c-0.4,0.7-0.8,1.3-1.1,2c-0.2,0-0.5,0-0.7,0
		c-0.7,0-1.4,0-2,0c0,0,0,0,0,0c-0.4-1-1.3-1-2.2-1C47.1,41.2,44.2,40.2,43.1,37.1z"/>
	<path class="st16" d="M99.1,16c-4.7,1.5-9.3,2-14,0l0,0.1c1.2,0,2.6,0.3,3.1-1.4c0,0-0.1-0.2-0.1-0.2c2.6-0.1,5.3-0.2,7.9-0.3
		c0.7,0,1.3,0.1,2,0.1c0.4,0.3,0.8,0.6,1.2,0.9C99,15.5,99,15.7,99.1,16z"/>
	<path class="st7" d="M85,16c-0.4,0.1-0.7,0.1-1.1,0.2c-1-0.1-2-0.1-2.9-0.2l0,0c1-1.7,2.7-0.7,4-1c0,0,0,0,0,0
		C85,15.4,85,15.8,85,16L85,16z"/>
	<path class="st7" d="M81.1,17c-1.2,0-2.3,0.1-3.5,0.1c0.1-0.4,0.3-0.7,0.4-1.1c1,0,2,0,3,0c0,0,0,0,0,0
		C81.1,16.4,81.1,16.7,81.1,17z"/>
	<path class="st14" d="M85,16.1c0-0.3,0-0.7,0-1c1-0.1,2-0.3,3-0.4C87.6,16.4,86.2,16,85,16.1z"/>
	<path class="st24" d="M10.1,28.1c-0.3,0.3-0.7,0.6-1,0.9C9.4,28.8,9.8,28.5,10.1,28.1z"/>
	<path class="st7" d="M99.1,16c0-0.3,0-0.6,0-0.8c1,0,2,0,3-0.1c0,0.3,0,0.7,0,1C101.1,16.1,100.1,16.1,99.1,16z"/>
	<path class="st15" d="M157.8,8.1c-0.2,1-0.8,1.7-1.8,2c-0.4,0-0.7,0-1.1,0c0.7-0.7,1.4-1.3,2-2C157.2,8.1,157.5,8.1,157.8,8.1z"/>
	<path class="st13" d="M154.9,10.1c0.4,0,0.7,0,1.1,0c-0.7,1.1-1.7,1.8-3,2C152.8,10.7,154.1,10.6,154.9,10.1z"/>
	<path class="st13" d="M153.1,12.1c-0.7,0.5-1.4,1.1-2.1,1.6C150.8,11.9,151.8,11.9,153.1,12.1z"/>
	<path class="st14" d="M135.1,21.6c1.7,2.6-0.1,3.1-2.1,3.5c0-0.7,0-1.4,0-2.1c0,0,0,0.1,0,0.1c1,0.2,1.6-0.2,2.1-1l-0.1-0.2
		C134.9,21.8,135,21.6,135.1,21.6C135,21.6,135.1,21.6,135.1,21.6z"/>
	<path class="st20" d="M135,22c-0.4,0.9-1.1,1.3-2.1,1C133.3,22,134.2,22,135,22z"/>
	<path class="st14" d="M158.1,5.1c1.3,0.7,2.6,1.4,3.9,2c-1.3,0-2.5,0.1-3.8,0.1C158.2,6.5,158.1,5.8,158.1,5.1z"/>
	<path class="st8" d="M76.1,71c-1.6-2.8-1.4-5.8-0.7-8.9c0.2-0.7,0.4-1.4,0.7-2.1c2.5-1.7,4.9-3.6,8-4c0.3,0,0.7,0,1,0
		c0.1,1.3,0.3,2.6,0.5,3.9c0.3,1.7,0.5,2.9,3,2.9c2.3,0,3.3-0.9,3.2-2.7C91.3,55.9,94.1,56,97,56c0.4,0,0.7,0,1.1,0
		c3.2,0.8,5.9,2.3,7.9,5c0.3,0.1,0.5,0.1,0.8,0.2c0,3.9,1.5,8.2-2.8,10.9c-0.4-3.4-2.9-1.8-4.6-1.8c-1.9,0.1-1.8,1.4-1.5,2.9
		c0.7,2.5-1.4,2.6-2.9,3.1c-2.4-0.5-4.9-1.6-7,0.7c-1.3-0.9-3.9-1.4-3.6-2.8c1.2-5.5-2.7-3.9-5.3-4.1C78.1,70.4,77.1,70.7,76.1,71z"
		/>
	<path class="st8" d="M105,31.1c1.2,3.9,3.3,7.4,5.5,10.8c2.3,3.5,1.1,4.4-2.5,4.2c-0.3-0.1-0.6-0.1-0.9-0.1
		c-0.5-1.8,1.1-4.4-2.4-4.9c-3.1-0.4-3.9,0.9-4,3.8c0,1.6-1.7,1-2.7,1.3c-0.4,0-0.8,0-1.2,0c-1.1-0.2-1.7-0.6-1.1-1.9
		c0.6-1.3,1-2.7,1.4-4.1c0.8-0.1,1.5-0.3,1.7-1.2c1.6-2.7,3.3-5.3,4.9-8C104.3,31,104.7,31.1,105,31.1z"/>
	<path class="st4" d="M103.9,31c-1.6,2.7-3.3,5.3-4.9,8c-1.3-0.7-0.8-2-1-3.1c-1-4.9-0.4-10.2-3-14.8l0,0.1c0-5.6,2.5-1.4,4-1
		c0,0,0,0,0,0c0.9,1.5,1.2,3.7,3.5,4c0.2,0.5,0.3,1,0.5,1.5c0,1-0.2,2.1,1,2.5c0,0,0-0.1,0-0.1C104,29,104,30,103.9,31z"/>
	<path class="st4" d="M95,76.4c1.5-0.6,3.5-0.7,2.9-3.2c-0.4-1.5-0.4-2.8,1.5-2.9c1.7-0.1,4.2-1.7,4.6,1.8c0,0,0.1,0,0.1,0
		c-0.7,0-0.9,0.4-1,1c0,0,0,0,0,0c-0.7,1-1.3,2-2,3c0,0.3-0.1,0.7-0.1,1c0,0,0,0,0,0c-0.9,0.4-1.1,1.1-1,2c0,0,0,0,0,0
		c-0.8,0.2-1,0.8-1,1.5c-0.3,0.4-0.6,0.8-0.9,1.2c-1.7-0.6-3.2,2.5-5.1,0.3c0,0-0.1,0.1-0.1,0.1c2.4-1.1,2-3.4,2-5.4L95,76.4z"/>
	<path class="st19" d="M107.2,46c0.3,0,0.6,0.1,0.9,0.1c-0.5,4,1,8.1-1,12c0,0,0,0,0,0C107.1,54.1,107.2,50,107.2,46z"/>
	<path class="st19" d="M102.6,24.1c-2.3-0.4-2.6-2.5-3.5-4C101.5,20.3,101.5,22.6,102.6,24.1z"/>
	<path class="st21" d="M101.1,76.1c0.7-1,1.3-2,2-3c0.1,1.2,0.2,2.3-1,3C101.8,76.1,101.4,76.1,101.1,76.1z"/>
	<path class="st19" d="M106.8,61.2c-0.3,0-0.6-0.1-0.8-0.2c0.2-1-0.1-2.3,1.1-2.9c0,0,0,0,0,0C107,59.1,106.9,60.2,106.8,61.2z"/>
	<path class="st19" d="M103.9,31c0-1,0.1-2,0.1-2.9c1.2,0.7,1.1,1.9,1,3C104.7,31.1,104.3,31,103.9,31z"/>
	<path class="st19" d="M104.1,28.1c-1.2-0.5-1.1-1.5-1-2.5C103.8,26.3,104.1,27.1,104.1,28.1z"/>
	<path class="st19" d="M100,79.1c-0.1-0.9,0.1-1.7,1-2C101.1,77.9,100.9,78.7,100,79.1z"/>
	<path class="st19" d="M99,80.6c0-0.7,0.2-1.3,1-1.5C99.7,79.6,99.4,80.1,99,80.6z"/>
	<path class="st19" d="M101.1,76.1c0.3,0,0.7,0,1,0c-0.4,0.3-0.7,0.7-1.1,1C101.1,76.8,101.1,76.4,101.1,76.1z"/>
	<path class="st21" d="M103,73.1c0.1-0.6,0.4-1,1-1C104,72.7,103.7,73.1,103,73.1z"/>
	<path class="st4" d="M79.1,70.2c2.6,0.3,6.4-1.3,5.3,4.1c-0.3,1.4,2.3,1.9,3.6,2.8c1.3,0.9,1,2.2,0.9,3.4c-0.1,1.1,0.4,3.1-1.9,1.8
		c-1.1-0.6-2-1.5-3-2.3c-0.3-0.3-0.7-0.7-1-1c0,0,0,0,0,0c-0.3-0.3-0.7-0.7-1-1c0,0,0,0,0,0c0.1-0.9-0.1-1.6-1-2c0,0,0,0,0,0
		c0-0.9-0.2-1.6-1-2c0,0,0,0,0,0C79.8,72.8,79.5,71.5,79.1,70.2z"/>
	<path class="st17" d="M89,80.5c0-1.2,0.4-2.6-0.9-3.4c2.1-2.3,4.6-1.2,7-0.7c0,0,0,0.3,0,0.3c-1.2,1.6-1.7,3.5-2,5.4
		c0,0,0.1-0.1,0.1-0.1C90.9,83.7,90.1,81.7,89,80.5z"/>
	<path class="st19" d="M83,79.1c0.3,0.3,0.7,0.7,1,1c-0.3,0-0.6,0-0.8,0C83.2,79.8,83.1,79.4,83,79.1z"/>
	<path class="st4" d="M127,53.1c-1.7-2.3-1.7-4.7,0-7C127,48.4,127,50.8,127,53.1z"/>
	<path class="st15" d="M127,53.1c0-2.3,0-4.7,0-7c0.3,0,0.6,0,0.9,0c0,2.3,0,4.7,0,7C127.6,53.1,127.3,53.1,127,53.1z"/>
	<path class="st4" d="M124.9,43c0.2-0.7,0.3-1.5,0.5-2.2c0.7,0.6,0.6,1.9-0.2,2.4C125.2,43.2,124.9,43,124.9,43z"/>
	<path class="st4" d="M124,39.1c0-0.7,0-1.5,0-2.2C124.8,37.6,125.4,38.4,124,39.1z"/>
	<path class="st4" d="M124,36l-0.5,0.1c0,0-0.5,0-0.5,0C123.2,35,123.6,35.1,124,36z"/>
	<path class="st17" d="M97.3,40.2c-0.5,1.4-0.8,2.8-1.4,4.1c-0.6,1.3,0,1.7,1.1,1.9c0,3.3,0,6.6,0,9.9c-2.9,0-5.7-0.2-5.3,4.2
		c0.2,1.8-0.9,2.6-3.2,2.7c-2.5,0-2.7-1.2-3-2.9c-0.2-1.3-0.3-2.6-0.5-3.9c0.1-3.3,0.1-6.6,0.2-9.8c1.1-0.4,0.9-1.3,0.8-2.2
		c0-1-0.1-2.1-0.1-3.1c0.4-6,0.7-11.9,1.1-17.9l0,0.1c1.4-0.8,1-2.3,1-3.5l0-0.1c2.9-2,5.2-1.2,7,1.6c0,0,0-0.1,0-0.1
		C95.8,27.5,96.5,33.8,97.3,40.2z"/>
	<path class="st4" d="M88.1,19.6C88.1,19.6,88.1,19.6,88.1,19.6c-1.1,1-1.1,2.3-1,3.6c0,0,0-0.1,0-0.1c-2.5,5.7-1.9,11.7-2.2,17.6
		c-3.6-2.7-5-6.8-6.8-10.7c0,0,0,0.1,0,0.1c1.3-0.7,1.1-1.9,1-3c0,0,0,0,0,0c1.1-0.3,1.1-1.2,1-2c0,0,0,0,0,0c1.4-0.5,1.9-1.7,2-3
		c0,0,0,0,0,0c0.9-0.4,1.1-1.1,1-2c0,0,0,0,0,0c0.7,0,1-0.4,1-1c0,0,0,0,0,0C85.4,19,87,16.8,88.1,19.6z"/>
	<path class="st8" d="M81.1,17c0-0.3,0-0.6-0.1-0.9c1,0.1,2,0.1,2.9,0.2c-0.3,0.5-0.6,1.1-1,1.6c-0.3,0.2-0.6,0.3-0.9,0.3
		C81.8,17.8,81.4,17.4,81.1,17z"/>
	<path class="st14" d="M133,25.1c-0.5,2.9-2.2,4.5-5,5C129.3,28.1,131,26.4,133,25.1z"/>
	<path class="st14" d="M128,30.1c0,1.7-1.1,2.1-2.5,2C126.3,31.4,127.2,30.8,128,30.1z"/>
	<path class="st27" d="M55.2,43.1c0.3,0.7,0.6,1.4,0.9,2.1c0,3.3,0,6.6,0,9.8c-0.3,0.3-0.6,0.7-0.9,1C55.2,51.7,55.2,47.4,55.2,43.1
		z"/>
	<path class="st28" d="M29.1,34.9c0-0.3,0-0.5,0-0.8c1.3,0,2.6,0.1,3.9,0.1c0,0.3,0,0.5,0,0.8C31.8,35,30.4,35,29.1,34.9z"/>
	<path class="st16" d="M49.9,42.1c0.9,0,1.8,0,2.2,1C51.2,43.1,50.4,42.9,49.9,42.1z"/>
	<path class="st16" d="M52.1,43.1c0.7,0,1.4,0,2,0C53.4,44.2,52.7,44.1,52.1,43.1z"/>
	<path class="st16" d="M14.1,31.1c0.3-0.3,0.7-0.7,1-1C14.8,30.4,14.4,30.8,14.1,31.1z"/>
	<path class="st13" d="M23,61c0,0.3,0,0.5,0,0.8c-1.7,1.1-3.3,2.2-5,3.4C18.9,62.7,20.8,61.6,23,61z"/>
	<path class="st13" d="M16.1,67.1c-0.3-1.7,0.5-2.2,2.1-2.1C17.8,66.2,17.1,66.8,16.1,67.1z"/>
	<path class="st13" d="M14.1,69.1c-0.2-0.9,0-1.4,1.1-1.1C15.1,68.7,14.7,69.1,14.1,69.1z"/>
	<path class="st13" d="M15.1,68.1c-0.3-1,0-1.4,1.1-1.1C16.1,67.7,15.7,68.1,15.1,68.1z"/>
	<path class="st25" d="M156,45.1c-3-5-3-10,0-15C155.8,35.1,155.1,40.1,156,45.1z"/>
	<path class="st25" d="M160,19.1c0.3-1.6-0.6-3.7,2.1-4C162,16.8,161.8,18.4,160,19.1z"/>
	<path class="st25" d="M157,27.1c-0.1-2,0.4-3.7,2-5C159.1,24.1,158.7,25.9,157,27.1z"/>
	<path class="st25" d="M165,59.1c0.3-1,0.7-2,1-3.1c0.8,0.1,1.9,0.1,1.6,1.3C167.4,58.7,166.3,59.1,165,59.1z"/>
	<path class="st25" d="M158,49.1c-1.9-0.7-2.1-2.3-2-4C157.4,46.1,157.9,47.5,158,49.1z"/>
	<path class="st25" d="M159,22.1c0-1.1-0.2-2.3,1-3C160,20.2,160.3,21.4,159,22.1z"/>
	<path class="st25" d="M156,30.1c0-1.1-0.2-2.3,1-3C157,28.2,157.3,29.4,156,30.1z"/>
	<path class="st25" d="M160,51.1c-1.4,0-2-0.7-2-2C159,49.4,159.6,50.1,160,51.1z"/>
	<path class="st25" d="M166,56.1c-0.9,0-1.6-0.2-2-1C164.9,55,165.6,55.2,166,56.1z"/>
	<path class="st25" d="M162,61.1c0.4-0.9,1.2-1,2-1C163.6,61,162.9,61.1,162,61.1z"/>
	<path class="st25" d="M160,62.1c0.4-0.9,1.2-1,2-1C161.6,62,160.8,62.1,160,62.1z"/>
	<path class="st25" d="M164,60.1c0.3-0.3,0.7-0.7,1-1C164.7,59.4,164.3,59.8,164,60.1z"/>
	<path class="st25" d="M164,55.1c-0.3-0.3-0.7-0.7-1-1C163.3,54.4,163.7,54.7,164,55.1z"/>
	<path class="st25" d="M163,54.1c-0.3-0.3-0.7-0.7-1-1C162.3,53.4,162.7,53.7,163,54.1z"/>
	<path class="st25" d="M162,53.1c-0.3-0.3-0.7-0.7-1-1C161.3,52.4,161.7,52.7,162,53.1z"/>
	<path class="st25" d="M161,52.1c-0.3-0.3-0.7-0.7-1-1C160.3,51.4,160.7,51.7,161,52.1z"/>
	<path class="st4" d="M58.2,57.1c0,1-0.1,2.1-0.1,3.1c-1.2-0.7-0.8-2-1-3.1C57.5,57.1,57.8,57.1,58.2,57.1z"/>
	<path class="st8" d="M78.1,30c1.9,3.8,3.2,8,6.8,10.7c0,0,0,0,0,0c0.2,1.2-0.1,2.5,1.1,3.4c0.1,0.9,0.2,1.8-0.8,2.2
		c-0.4,0-0.8-0.1-1.2-0.1c-1.3-0.2-3.2,0.2-3.1-2.1c0.2-3.9-2.5-2.9-4.7-2.8c-0.4,0-0.9,0-1.3,0c-1.9,1.3-0.6,3.2-0.9,4.9l0-0.1
		c-4.4,0.6-5.1-0.7-2.7-4.5C73.8,37.9,75.9,33.9,78.1,30z"/>
	<path class="st21" d="M74.9,41.2c0.4,0,0.9,0,1.3,0c0,6.3-0.1,12.5-0.1,18.8c-0.2,0.7-0.4,1.4-0.7,2.1C75,56.8,74.5,51.4,74,46
		c0,0,0,0.1,0,0.1C75.7,44.7,74.8,42.9,74.9,41.2z"/>
	<path class="st19" d="M79.1,70.2c0.3,1.3,0.6,2.6,0.9,3.9c-1.4-0.9-3.3-1.2-3.9-3.1C77.1,70.7,78.1,70.4,79.1,70.2z"/>
	<path class="st19" d="M82.1,22.1c-0.1,1.4-0.6,2.5-2,3C80,23.6,80.6,22.5,82.1,22.1z"/>
	<path class="st21" d="M79.1,27.1c0,1.1,0.3,2.4-1,3C78,29,77.8,27.8,79.1,27.1z"/>
	<path class="st19" d="M83.1,20.1c0.1,0.9-0.1,1.7-1,2C81.9,21.2,82.1,20.4,83.1,20.1z"/>
	<path class="st21" d="M80.1,25.1c0,0.9,0.1,1.7-1,2C79,26.3,79.1,25.4,80.1,25.1z"/>
	<path class="st19" d="M80,74.1c0.9,0.4,1,1.2,1,2C80,75.8,80,74.9,80,74.1z"/>
	<path class="st19" d="M81,76.1c0.9,0.4,1.1,1.2,1,2C81.1,77.8,81,77,81,76.1z"/>
	<path class="st19" d="M82,78.1c0.3,0.3,0.7,0.7,1,1C82.4,79.1,82.1,78.7,82,78.1z"/>
	<path class="st4" d="M78,78.6c-0.3,0-0.4-0.1-0.5-0.4C77.7,78.3,77.9,78.5,78,78.6z"/>
	<path class="st19" d="M84.1,19.1c-0.1,0.6-0.4,1-1,1C83.4,19.8,83.7,19.4,84.1,19.1z"/>
	<path class="st25" d="M56.1,55c0-3.3,0-6.6,0-9.8C57.6,48.4,57.6,51.7,56.1,55z"/>
	<path class="st4" d="M107,58.1c-1.2,0.7-0.9,1.9-1.1,2.9c-2-2.6-4.7-4.2-7.9-5c0-3.3,0-6.6,0-9.9c1-0.3,2.7,0.2,2.7-1.3
		c0-2.8,0.9-4.2,4-3.8c3.5,0.5,1.9,3.1,2.4,4.9C107.2,50,107.1,54.1,107,58.1z"/>
	<path class="st4" d="M76.1,60c0-6.3,0.1-12.5,0.1-18.8c2.2-0.1,4.9-1.1,4.7,2.8c-0.1,2.3,1.8,1.8,3.1,2.1c0,3.3,0,6.6,0,9.9
		C80.9,56.5,78.5,58.3,76.1,60z"/>
	<path class="st21" d="M84,56.1c0-3.3,0-6.6,0-9.9c0.4,0,0.8,0.1,1.2,0.1c-0.1,3.3-0.1,6.6-0.2,9.8C84.7,56.1,84.4,56.1,84,56.1z"/>
	<path class="st19" d="M98.1,46.2c0,3.3,0,6.6,0,9.9c-0.4,0-0.7,0-1.1,0c0-3.3,0-6.6,0-9.9C97.4,46.2,97.7,46.2,98.1,46.2z"/>
	<path class="st19" d="M97.3,40.2c-0.8-6.4-1.5-12.8-2.3-19.1c2.6,4.6,2,9.9,3,14.8c0.2,1.1-0.3,2.4,1,3.1
		C98.8,39.9,98,40.1,97.3,40.2z"/>
	<path class="st21" d="M93,82.1c0.4-1.9,0.8-3.8,2-5.4C95.1,78.7,95.5,81,93,82.1z"/>
	<path class="st19" d="M84.9,40.7C84.9,40.7,84.9,40.7,84.9,40.7c0.3-5.9-0.4-12,2.1-17.6C86.7,29,86.3,35,86,41
		C85.6,40.9,85.3,40.8,84.9,40.7z"/>
	<path class="st19" d="M87,23.1c0-1.3-0.1-2.6,1-3.5C88,20.9,88.5,22.3,87,23.1z"/>
	<path class="st4" d="M84.9,40.7c0.3,0.1,0.7,0.2,1,0.3c0,1,0.1,2.1,0.1,3.1C84.9,43.2,85.2,41.9,84.9,40.7z"/>
	<path class="st17" d="M74.9,41.2c-0.1,1.7,0.8,3.5-0.9,4.9C74.3,44.5,73,42.6,74.9,41.2z"/>
	<text transform="matrix(1 0 0 1 45.6806 120.3641)" class="st29 st30">UK Sweets</text>
</g>
</svg>
