<?xml version="1.0" encoding="utf-8"?>
<!-- Generator: Adobe Illustrator 28.0.0, SVG Export Plug-In . SVG Version: 6.00 Build 0)  -->
<svg version="1.1" id="Layer_1" xmlns="http://www.w3.org/2000/svg" xmlns:xlink="http://www.w3.org/1999/xlink" x="0px" y="0px"
	 viewBox="0 0 184.4 127.1" style="enable-background:new 0 0 184.4 127.1;" xml:space="preserve">
<style type="text/css">
	.st0{fill:#F7B67B;}
	.st1{fill:#5D442F;}
	.st2{fill:#786A60;}
	.st3{fill:#50443C;}
	.st4{fill:#F69933;}
	.st5{fill:#EB7323;}
	.st6{fill:#F59E4F;}
	.st7{fill:#F5CE95;}
	.st8{fill:#FABF73;}
	.st9{fill:#723817;}
	.st10{fill:#A05C2F;}
	.st11{fill:#6F5E52;}
	.st12{fill:#E5A975;}
	.st13{fill:#635246;}
	.st14{fill:#D19767;}
	.st15{fill:#4A3019;}
	.st16{fill:#5C3A1D;}
	.st17{fill:#AE642B;}
	.st18{fill:#F59032;}
	.st19{fill:#F6A141;}
	.st20{fill:#CD8737;}
	.st21{fill:#36291F;}
	.st22{fill:#EF7C24;}
	.st23{fill:#A15123;}
	.st24{fill:#A95225;}
	.st25{fill:#8D4B22;}
	.st26{fill:#79522C;}
	.st27{fill:#DB7B29;}
	.st28{font-family:'Arial-BoldMT';}
	.st29{font-size:18px;}
</style>
<g>
	<path class="st0" d="M125.4,18.3C125.4,18.3,125.3,18.4,125.4,18.3c2.4-0.3,2.4-2.6,3.1-4.2c0.8-1.1,1.6-2.2,2.4-3.3
		c0.2-2.1,1.4-3.2,3.4-3.4c1-0.6,2.1-1.2,3.1-1.7c2.3-0.9,4.7-1.8,7-2.7c0.5-0.1,1.4,0.1,1-1c2.3,0,4.7,0,7,0
		c1.7,2.3,1.2,5.8-1.1,7.6c-0.1,0.1,0,0.3,0.1,0.5l0.1-0.1c-1.4-0.4-2.1,0.1-2.1,1.6l-0.4,0.1l0,0.4c-1-0.4-1.6-0.2-1.6,1.1l0.1-0.1
		c-0.9-0.2-1.4,0.1-1.1,1.1l0.1-0.1c-1-0.3-1.3,0.1-1.1,1.1l0.1-0.1c-1-0.3-1.3,0.1-1.1,1.1l0.1-0.1c-1-0.3-1.3,0.2-1.1,1.1
		c0,0,0.1-0.1,0.1-0.1c-0.9-0.4-1.2,0.3-1.4,0.9c-2.3,1.6-4.5,3.3-6.8,4.9c-2.6,0.9-5.4,1.6-6.9,4.2l0.1-0.1
		c-1.6-0.2-2.6,0.3-2.6,2.1l0.1-0.1c-0.9-1.2-4.6,2.6-3.5-2c0,0-0.1,0.1-0.1,0.1C124.6,24.5,126.1,21.8,125.4,18.3z"/>
	<path class="st0" d="M181.9,50.9c1.9,0.7,1.8,3,3.4,4c0,0.3,0,0.7,0,1c-0.3,0.2-0.6,0.5-0.9,0.7c0.3,0.1,0.6,0.2,0.9,0.3
		c0,1.7,0,3.3,0,5c-2.2,0-1.9,1.7-2,3.1c0,0,0.1-0.1,0.1-0.1c-2.1,1.3-3.7,3-5.1,5.1c0,0,0.1,0,0.1,0c-0.9,0-1.9,0-2.8,0.1
		c-0.7-0.8-1.4-1.5-2.1-2.3c-0.3-2.5-0.5-5,0.1-7.6c1.7-2,4.1-3.4,5-6c1.1-0.8,1.8-1.8,1.9-3.2C181,50.9,181.4,50.9,181.9,50.9z"/>
	<path class="st1" d="M151.3,9.9c0-0.2-0.1-0.4-0.1-0.5c2.2-1.7,2.7-5.2,1.1-7.6c0.7,0,1.3,0,2,0c2.1,1.4,4.6,0.8,6.9,1.2
		c0.4,0.5,0.8,1,1.2,1.5c-1.5,0.5-5.4-1.2-3,3.1c0,0.4,0,0.9-0.1,1.3c-0.6,0.9-1.3,1.7-2.5,1.6c0.5-0.9,1-1.9-0.6-1.8
		C154.7,9,153,9.5,151.3,9.9z"/>
	<path class="st2" d="M144.4,2.9c-2.3,0.9-4.7,1.8-7,2.7c0-0.3-0.1-0.7-0.1-1c0.9-1.6,3.4-0.8,4.1-2.7c1,0,2,0,3,0
		C144.4,2.2,144.4,2.5,144.4,2.9z"/>
	<path class="st3" d="M183.4,64.9c0.1-1.4-0.3-3.1,2-3.1c0,0.7,0,1.3,0,2C184.7,64.2,184,64.6,183.4,64.9z"/>
	<path class="st3" d="M185.3,56.8c-0.3-0.1-0.6-0.2-0.9-0.3c0.3-0.2,0.6-0.5,0.9-0.7C185.3,56.2,185.3,56.5,185.3,56.8z"/>
	<path class="st1" d="M144.4,2.9c0-0.3,0-0.7,0-1c0.3,0,0.7,0,1,0C145.8,3,144.9,2.7,144.4,2.9z"/>
	<path class="st4" d="M15,26.9c0.3-0.1,0.6-0.2,0.9,0c0.8,0.3,1.7,0.7,2.5,1l0-0.1c-1.9,0.7-1.7,2.4-1.9,3.9
		c-0.4,0.4-0.8,0.7-1.1,1.1c-0.4,0.1-0.9,0.3-1.3,0.4c0.1,0.1,0.3,0.4,0.3,0.4c0.4-0.2,0.8-0.5,1.1-0.7c0.4-0.4,0.7-0.8,1.1-1.1
		c0.6,0.4,1.2,0.8,1.8,1.2c3.3,3.5,7.9,3,12.1,3.8c1,0,2,0.1,3,0.1c1.5,1,3.3,0.9,5,0.8c1,0.1,1.9,0.2,2.9,0.2
		c1,0.3,2.1,0.6,3.1,0.9c2.3,1.6,4.7,3.2,7,4.8c0.3,1.1,1.1,1.2,2,1.2l0,0c0.7,1,1.3,1.1,2,0c0.4,0,0.8,0.1,1.2,0.1
		c-1,8.3,0.1,16.2,4.1,23.6c0.6,1.1,0.7,2.1,0.6,3.3c0,0,0.1-0.1,0.1-0.1c-1.4,0-2.4,0.7-3.1,1.9c-2.3,1.2-4.6,2.3-6.9,3.5
		c-3.1,1.5-6.5,2.4-9.1,4.7l0.1-0.1c-3,0.8-5.8,1.8-8.1,4.1c0,0,0.1,0,0.1,0c-0.4-0.1-0.7-0.1-1.1-0.2c-1.7-1.5-3.8-0.5-5.7-1.1
		c-2.9-1-5-1.3-1.7-4.9c5.4-5.8,6.4-16.9,2.2-23.1C24,50.6,19.5,45,14.4,39.9c-1-0.3-2-0.7-3-1l0,0c0-1.1,0.2-2.2-0.8-3
		c-1.1-2.1-1.4-4.2,0.7-5.9C12.1,28.4,15.2,29.5,15,26.9z"/>
	<path class="st5" d="M117.9,24.9c0.6,0.6,1.1,1.2,1.7,1.8c-1,0.8-1.4,1.7-0.3,2.7c0.2,1.8,1,3.1,2.7,3.8c0.4,0.2,0.9,0.5,1.3,0.7
		c0,0.3,0,0.6,0,0.9c-0.9,0.4-1.1,0.7,0,1.1l0,0c-0.1,1.1-0.3,2.3,1,3c0,1.1-0.3,2.3,1,3c-0.1,5.3,2,10.7,0,16
		c-0.4,2.1-0.7,4.3-1.1,6.4c-0.6,2.4-1.9,4.6-3.5,6.5c-1.2,0.2-1.6,0.9-1.5,2l0,0c-0.8,0.2-1,0.8-1.1,1.5c-0.8,0.8-1.7,1.7-2.5,2.5
		c-0.7,0-1.3,0.3-1.5,1.1l0,0c-1.1-0.1-1.9,0.3-2,1.5c-0.8,0.5-1.7,1-2.5,1.5c-0.9-0.1-1.9,0.2-2.4-0.9c0.3-0.3,0.7-0.6,1-1
		c0.4-0.6,0.8-1.3,1.1-1.9c1.2-0.2,1.8-0.9,1.9-2.1c0.8-0.4,1-1.1,1-2c0.3-0.4,0.6-0.7,0.9-1c0.8-0.4,1-1.2,1-2c0.8-0.4,1-1.2,1-2
		c1.2-1.5,1.6-3.3,1.8-5.1c0.6-2.5,3.3-3.9,3.5-6.6c0.8-1.6,1.9-3,1.1-4.9c-0.1-0.2-0.7-0.3-0.8-0.2c-1.4,1.2-0.1,3.1-1,4.5
		c-0.6-0.2-1.1-0.4-1.7-0.6c-0.3-5.4,1.4-11-2-16.1l0,0.1c0-1.1,0.2-2.3-1-3.1l0,0.1c0-1-0.2-1.9-1.5-2.1c-0.5-1.2-1-2.3-1.5-3.5
		c0-0.7-0.2-1.3-1-1.5l0,0c0.2-1.1-0.4-1.8-1-2.5c-1.6-0.6-2.9-1.7-4-3c0-0.7-0.3-1.3-1-1.5l0,0c-0.4-1-1.2-1.1-2.1-1l0.1,0
		c-0.2-0.7-0.4-1.5-0.5-2.2c1.2,0.1,2.3,0.1,3.5,0.2l0,0c1,1.6,2.5,1.4,4,0.9c0,0,0.2,0,0.2,0c-0.5,1.6,0.2,2.2,1.7,2.2l0,0
		c0,0.7,0.4,0.9,1,1l0,0c0.3,0.3,0.7,0.7,1,1c0,0,0,0,0,0c0.7,0.8,1,2.2,2.5,1.1C117.2,25,117.5,24.9,117.9,24.9z"/>
	<path class="st6" d="M43,22.9C43,22.9,42.9,22.8,43,22.9c0.1,1.6,1.1,2,2.5,1.9c0,0,0,0,0,0c0.6,1.7,1.7,2.4,3.5,2.1
		c0.8,0.8,1.6,1.6,2.5,2.4c-0.2,1.5,0.3,2.5,2.1,2.5c0,0,0,0,0,0c-0.3,2.4,1.7,3.2,3.1,4.5l0.3,0.1c0,0,0.1,0.3,0.1,0.3
		c0.4,0.4,0.8,0.8,1.2,1.2c0.2,3.6-2.8,0.7-3.8,1.9c0,0,0.1,0,0.1,0c-0.7-2-2.8-1-4.1-1.8c-2.7-0.4-5.3-0.7-8-1.1
		c-1.3-0.1-2.5-0.2-3.8-0.4l-0.1,0.1c0.3-1-0.5-0.9-1-1.2c-0.6-0.4-1.1-0.7-1.7-1.1c-0.6-0.4-1.3-0.8-1.9-1.2c-0.7-0.3-1.3-0.7-2-1
		c-0.7-0.3-1.4-0.6-2.1-0.9c-1-0.4-1.9-0.8-2.9-1.1c-2-0.9-4.1-0.7-6.1-0.5c-1.6,0.1-2.5-0.2-2.3-2c0,0,0,0.1,0,0.1
		c2-0.7,3-2.4,3.8-4.1c2.6,0.1,4.8-1,7.2-2c2.7,0,5.4,0,8.1,0C39.2,22.8,41,23.4,43,22.9z"/>
	<path class="st6" d="M61.4,75.4l-0.1,0.4c0,0-0.4,0.1-0.4,0.1c-4.4,1.3-7.4,4-8.6,8.5c-0.5,0.5-1,1-1.4,1.5
		c-2.7,0.9-4.2,2.7-4.6,5.5c-1.9,2.4-3.9,4.7-6.4,6.4c-1.7-0.1-2.9,0.5-3.6,2.1c0,0,0.1-0.1,0.1-0.1c-1-0.1-2.1-0.2-2.5,1.1
		c-2.2,0-4.4,0-6.5,0.1c-1.8-1.3-3.8-2.1-6.1-2.1c0,0,0,0,0,0c0.3-0.4,0.7-0.9,1-1.3c2.3,0.1,4.5,0.3,6.8,0.2c1.1,0,3.1,0.7,3-1
		c0-1.2-2-1.3-3.3-1c-0.1-0.1-0.3-0.3-0.4-0.4c-1.1-4,2.4-5.8,4-8.6l-0.1,0.1c1.1,0.5,1.8,0.2,2.1-1c0,0-0.1,0-0.1,0
		c3.1-0.5,6.3-0.9,8.1-4.1c0,0-0.1,0.1-0.1,0.1c3.9-0.1,6.9-2.3,10.2-3.9c2.3-0.6,3.9-2.2,5.8-3.4c1.2-0.7,2.8-1,3.1-2.7
		c0,0-0.1,0.1-0.1,0.1C65.8,73,59.4,74.2,61.4,75.4z"/>
	<path class="st7" d="M138.8,66.9c-0.7,0.4-1.1,0.2-1.4-0.5c-0.7-2.8-2.9-2.5-5.1-2.5c0,0,0,0,0,0c0.2-0.8-0.3-1-1-1
		c-0.7,0-1.4,0-2.1-0.1l0.1,0.1c-0.3-0.7-0.6-1.4-0.9-2c0.6,0,1.3,0,1.9,0c1.8,1.4,4,1.4,6,1.9c1.6,0.4,3.2,0.8,4.8,1.2
		c6.9,3.4,14.5,1,21.6,2.2c1.1,0.4,2.1,0.7,3.2,1.1c2.5,1.6,3.2,3.6,1.1,6.1c-0.6,0.7-1.8,0.8-1.7,2c0.9-0.1,1.9-0.3,2.8-0.4
		c0.8-0.1,1.7-0.1,2.2-0.9c1.8-0.1,3.5-0.8,4.9-1.8c0,0.6,0.1,1.1,0.1,1.7c-6.1,5.9-12.7,5.7-19.9,1.9c-3.7-2-7-5-11.3-5.8
		c0,0,0.1,0,0.1,0C143.1,67.8,141.3,66.8,138.8,66.9z"/>
	<path class="st6" d="M7.4,58.3c-0.3-1,0.3-1.5,0.9-1.9c0.4-0.1,0.8-0.3,1.1-0.4c4.3,0.4,7.3,4.7,12,4l-0.1-0.1
		c3.1,1.4,2.7,2.9,0,4.4c-0.4,0.5-1.8,0.5-1,1.7l0.1-0.1c-3.3,0.8-5.4,2.7-6.1,6.1c0,0,0.1-0.1,0.1-0.1c-1.7-0.4-1.7,1-2.2,2
		c-0.9,0.5-1.3,1.1-0.8,2.1l0.1-0.1c-0.9-0.4-1,0.4-1.3,0.9c-0.3-0.1-0.6,0-0.8,0.2c0,0,0,0,0,0c0-1.7-1.1-2.9-2-4.1
		c0.2-1.2-0.6-2-1-2.9c0-2,0-4-0.1-6C7,62.1,7.9,60.3,7.4,58.3z"/>
	<path class="st8" d="M11.4,30c-2.1,1.7-1.8,3.8-0.7,5.9c-1.3,1.4-1.1,2.4,0.8,3c0,0,0,0,0,0c0.8,1.2,1.7,2.4,3,3l0,0
		c0,2.7,0,5.3,0,8l0,0c-0.5,0.3-0.9,0.7-1.4,1c-0.7,0.9-1.4,1.7-2,2.6c-0.5,0.1-0.9,0.2-1.4,0.4c-2.1-1.9-3.6-4.5-6.2-5.9
		c0,0,0.1,0.1,0.1,0.1c-1.8-5-0.9-9.9,1-14.6c0.2-0.8,0.7-1.2,1.4-1.4c1.8,0.4,2.9-0.4,3.6-2.1c0,0-0.1,0.1-0.1,0.1
		C10,29.9,10.7,29.9,11.4,30z"/>
	<path class="st8" d="M12.9,93.9c-1.1-0.5-1.9-1.3-2.4-2.5c-0.5-4.1-2-8.3,0-12.4c0.2-0.1,0.3-0.2,0.5-0.3c0.1,0.2,0.3,0.2,0.5,0.2
		c0.1,1.3,0.7,2,2,2l0,0c0.5,1.5,1.8,1.9,3,2.3c0.5,0.2,1.1,0.4,1.6,0.7c3.9,3.2,5.7,7,3.2,11.9c-2.1,0.6-3.8-1-5.8-1
		C14.9,93.7,14,93.5,12.9,93.9z"/>
	<path class="st9" d="M61.4,75.4c-2-1.2,4.4-2.4,0-3.5c0.1-1.2,0-2.2-0.6-3.3c-4-7.4-5-15.3-4.1-23.6c2.3-3.1-0.5-3.9-2.3-5.1
		c1-1.2,4,1.7,3.8-1.9c0.9,0,1.9,0,2.8-0.1c-4.7,12.6-2.3,24.2,5,35c-0.6,0.3-1.2,0.6-1.7,0.9C63.3,74.3,62.3,74.9,61.4,75.4z"/>
	<path class="st10" d="M61,37.9c-0.9,0-1.9,0-2.8,0.1c-0.4-0.4-0.8-0.8-1.2-1.2c1.8-0.1,3-0.5,4-2.4c3-6,7.4-10.7,13.2-14.2
		c0.6,0.5,1,0.4,1.2-0.4c0,0,0,0,0,0c1,0.1,1.8-0.2,2.1-1.2c1.4-0.9,2.9-1.7,4.6-1.7c1.6,0.1,3.2,0.5,4.4-1.1
		c0.6-0.2,1.2-0.3,1.8-0.5c0.7,0.2,1.5,0.5,2.2,0.7c-0.6,1.9-3.1,1.3-4,2.8c-0.4,0-0.8,0-1.2,0c-1.9-1.7-2.3,0-2.9,1.3
		c-0.4,0.4-0.9,0.8-1.3,1.2c-1.4-3-3-0.7-4.3-0.1C69.5,24.9,64.9,31,61,37.9z"/>
	<path class="st11" d="M144.3,69.9c4.3,0.9,7.5,3.8,11.3,5.8c7.2,3.8,13.7,4,19.9-1.9c0.4,0,0.7,0,1.1,0.1
		c-5.9,6.4-10.7,7.6-18.5,4.2C153.1,75.9,148.2,73.8,144.3,69.9z"/>
	<path class="st11" d="M64.2,73.8c0.6-0.3,1.2-0.6,1.7-0.9c3.6,2.5,6.2,6.2,10.2,8.2c0.4,0.6,0.9,1.2,1.3,1.8
		c0.1,0.6,0.1,1.1,0.2,1.7c-2.1-1.3-4.2-2.6-6.3-3.9c-0.1-1.3-0.9-1.8-2.2-1.8C67.2,77.6,65.7,75.7,64.2,73.8z"/>
	<path class="st12" d="M109.9,80.8c0.8-0.5,1.7-1,2.5-1.5c0.6-0.2,1.2-0.4,1.8-0.6c0,0,0.3,0.1,0.3,0.1c-0.2,1.2-1.9,1.5-1.5,3
		c-1.1,1.2-2.2,2.2-3.9,2c-1,0-2.2-0.4-2.6,1c0,0,0.1,0,0.1,0c-1.1,0.1-2.5-0.5-3.1,1c0,0,0.1-0.1,0.1-0.1c-0.4,0-0.7,0.1-1.1,0.1
		c-1,0-2-0.1-3-0.1c0-0.3,0-0.6,0-1c2.1-0.2,4-0.7,5.7-2C107,82.9,108.5,82.1,109.9,80.8z"/>
	<path class="st11" d="M98.7,87.5c-6.9,0.9-13.7,0.3-20.1-2.7c1.3-0.3,2.7,0.3,3.9-0.8c0.2-0.1,0.5-0.1,0.8-0.1
		c0,0.3,0.1,0.5,0.1,0.8c1.1,1.7,2.8,0.7,4.2,1.1c0.2,0,0.5,0,0.7,0C91.5,87.9,95.4,85.6,98.7,87.5z"/>
	<path class="st0" d="M120.9,70.8c1.6-2,2.8-4.1,3.5-6.5c0.7-0.7,1.3-1.5,2-2.2c0,1.1,0,2.2,0,3.4c0.1,0.2,0.2,0.4,0.2,0.6
		c0,0.1-0.1,0.2-0.2,0.3c-1.8,0.3-2.2,1.5-2,3.1c0.4,1-0.3,1.5-1,1.9c-1.5-0.5-1.8,1.4-3,1.5c0,0-0.1-0.3-0.1-0.3
		C120.5,72,120.7,71.4,120.9,70.8z"/>
	<path class="st13" d="M4.4,33.3c-1.9,4.8-2.8,9.6-1,14.6C0,43.2,0.4,38.4,4.4,33.3z"/>
	<path class="st13" d="M10.4,79c-2,4.1-0.5,8.3,0,12.4c-3.9-4.6-1.7-9.6-1.1-14.5c0.2-0.2,0.5-0.3,0.8-0.2
		C10.3,77.5,10.3,78.2,10.4,79z"/>
	<path class="st11" d="M52.4,84.4c1.2-4.5,4.1-7.3,8.6-8.5C58.1,78.7,55.3,81.5,52.4,84.4z"/>
	<path class="st7" d="M115.9,76.8c0.8-0.8,1.7-1.7,2.5-2.5c0.4-0.5,0.7-1,1.1-1.5c0,0,0,0,0,0c0.3-0.1,0.6-0.2,0.9-0.3
		c0,0,0.1,0.3,0.1,0.3c0,0.8,0,1.7,0,2.5c-0.8,1.5-2,2.7-3.5,3.5c-0.8,0-1.7,0-2.5,0.1c0,0-0.3-0.1-0.3-0.1c0.1-0.3,0.2-0.6,0.3-0.9
		c0,0,0,0,0,0C114.9,77.5,115.4,77.2,115.9,76.8z"/>
	<path class="st14" d="M98.7,87.5c-3.2-1.9-7.1,0.4-10.4-1.6c3.8-0.1,7.6,0.6,11.2-1.3l-0.1,0.3c0,0.3,0,0.6,0,1
		c0,0.5,0,0.9-0.1,1.4l-0.3,0.3L98.7,87.5z"/>
	<path class="st15" d="M22.2,23.8c-0.8,1.8-1.9,3.4-3.8,4.1c-0.8-0.3-1.7-0.7-2.5-1c2.1-1.2,4.3-2.4,6.4-3.6
		C22.1,23.4,22.1,23.6,22.2,23.8z"/>
	<path class="st13" d="M15.4,94.8c2,0,3.7,1.6,5.8,1c0.4,0.1,0.7,0.2,1.1,0.3c0.1,0.2,0.1,0.5,0.1,0.7c0.1,0.2,0.1,0.5,0,0.7
		c-0.3,0.4-0.7,0.9-1,1.3c-2.1-0.8-3.5-3-5.9-3.3C15.5,95.3,15.5,95.1,15.4,94.8z"/>
	<path class="st11" d="M3.4,47.9c2.6,1.4,4.1,4,6.2,5.9c0,0.7,0,1.4-0.1,2.1c-0.4,0.1-0.8,0.3-1.1,0.4c0.9-2.1-0.9-2.7-1.9-3.9
		C5.3,51.1,3.3,50.1,3.4,47.9z"/>
	<path class="st2" d="M176.5,73.9c-0.4,0-0.7,0-1.1-0.1c0-0.6-0.1-1.1-0.1-1.7c0-0.5,0.1-1,0.1-1.4c0.1-0.3,0.1-0.6-0.1-0.9l0.2,0.1
		c0.9,0,1.9,0,2.8-0.1C178.8,71.7,178.1,73,176.5,73.9z"/>
	<path class="st1" d="M122.4,26.8c-1.1,4.6,2.6,0.9,3.5,2c-0.6,1.2-2.3,1.5-2.5,3.1c-0.3,0.1-0.7,0.1-1-0.1c-0.4-0.9-1-1.7-2.1-2
		c-0.2-1-0.4-2.1-0.7-3.1C120.6,27.7,121.5,26.9,122.4,26.8z"/>
	<path class="st11" d="M22.2,23.8c-0.2-0.2-0.1-0.4,0.1-0.5c2.2-1.2,4.6-2,7.1-2.2c0,0.3,0,0.5,0,0.8C27.1,22.7,24.9,23.9,22.2,23.8
		z"/>
	<path class="st11" d="M125.4,18.3c0.7,3.5-0.8,6.1-3.1,8.5C122.4,23.7,124.4,21.2,125.4,18.3z"/>
	<path class="st13" d="M21.4,98.9c2.3,0.1,4.3,0.8,6.1,2.1c0,0.2,0,0.4,0,0.6C25.3,101,22.9,100.8,21.4,98.9z"/>
	<path class="st13" d="M178.4,69.9c1.4-2,3-3.8,5.1-5.1C182.9,67.7,181.2,69.4,178.4,69.9z"/>
	<path class="st3" d="M29.4,21.8c0-0.3,0-0.5,0-0.8c2.7,0,5.3,0,8,0c0,0.3,0,0.5,0.1,0.8C34.8,21.8,32.1,21.8,29.4,21.8z"/>
	<path class="st3" d="M90.5,16c-0.7-0.2-1.5-0.5-2.2-0.7c2.7-0.7,5.4-0.5,8.1-0.3c0,0.3,0,0.6,0.1,0.9C94.4,16,92.5,16,90.5,16z"/>
	<path class="st14" d="M82.5,84.1c-1.1,1.1-2.6,0.5-3.9,0.8c-0.3-0.1-0.6-0.2-0.9-0.3c-0.1-0.6-0.1-1.1-0.2-1.7
		C79.3,82.5,80.7,84,82.5,84.1z"/>
	<path class="st13" d="M46.4,91.4c0.3-2.8,1.9-4.7,4.6-5.5C49.5,87.7,47.9,89.5,46.4,91.4z"/>
	<path class="st3" d="M27.4,101.5c0-0.2,0-0.4,0-0.6c2.2,0,4.4,0,6.5-0.1c0,0,0.3,0,0.3,0l0.3,0C32.3,102.7,29.8,101.8,27.4,101.5z"
		/>
	<path class="st11" d="M128.4,14.1c-0.7,1.7-0.6,3.9-3.1,4.3c0.7-2,1.5-3.9,3-5.5C128.4,13.3,128.4,13.7,128.4,14.1z"/>
	<path class="st11" d="M96.4,16c0-0.3,0-0.6-0.1-0.9c2,0.3,4,0.7,6,1c0,0.2,0,0.5,0,0.7c-0.7,0.1-1.3,0.1-2,0.2
		C99.1,16.1,97.8,15.9,96.4,16z"/>
	<path class="st2" d="M37.5,21.8c-0.1-0.3-0.1-0.5-0.1-0.8c2,0.1,3.9,0.8,5.6,1.8C41,23.4,39.2,22.8,37.5,21.8z"/>
	<path class="st13" d="M11.4,30c-0.7,0-1.4-0.1-2.1-0.1c1.4-2,3.7-2.1,5.6-3C15.2,29.5,12.1,28.4,11.4,30z"/>
	<path class="st1" d="M7.4,58.3c0.5,2-0.4,3.8-1.1,5.6c-0.2,0-0.5,0-0.7,0C5.7,61.8,6.2,59.9,7.4,58.3z"/>
	<path class="st11" d="M138.8,66.9c2.5-0.1,4.3,1,5.6,3.1C142,69.8,140.4,68.3,138.8,66.9z"/>
	<path class="st2" d="M111.9,19.9c1.6,1.3,3.1,2.5,4.7,3.8c-0.2,0.2-0.3,0.3-0.5,0.5c-0.6-0.1-1.2-0.1-1.8-0.2c0,0,0,0,0,0
		c0.1-0.8-0.4-1-1-1c0,0,0,0,0,0c-0.3-0.3-0.7-0.7-1-1c0,0,0,0,0,0C112.2,21.3,112,20.6,111.9,19.9z"/>
	<path class="st2" d="M132.3,63.9c2.1,0,4.3-0.3,5.1,2.5C135.6,65.7,133.6,65.6,132.3,63.9z"/>
	<path class="st3" d="M5.6,63.8c0.2,0,0.5,0,0.7,0c0,2,0,4,0.1,6c-0.3,0-0.5,0-0.8,0C5.6,67.8,5.6,65.8,5.6,63.8z"/>
	<path class="st3" d="M126.4,65.4c0-1.1,0-2.2,0-3.4c0.4-0.4,0.9-0.9,1.3-1.3c0.3,0,0.5,0.1,0.8,0.1c0.3,0.7,0.6,1.4,0.9,2
		C127.3,62.4,127.4,64.7,126.4,65.4z"/>
	<path class="st11" d="M56.6,36.3c-1.4-1.3-3.4-2.1-3.1-4.5C54.8,33.1,57.1,33.8,56.6,36.3z"/>
	<path class="st2" d="M114.4,78.9c0.8,0,1.7,0,2.5-0.1c-1.1,1.3-2.4,2.4-4,3C112.5,80.5,114.2,80.1,114.4,78.9z"/>
	<path class="st1" d="M7.4,72.8c0.9,1.3,2,2.4,2,4.1c-1.5-0.4-1.8-1.6-2.1-2.9C7.3,73.6,7.4,73.2,7.4,72.8z"/>
	<path class="st2" d="M120.4,75.4c0-0.8,0-1.7,0-2.5c1.2-0.1,1.5-2.1,3-1.5C122.8,73,121.7,74.3,120.4,75.4z"/>
	<path class="st11" d="M7.4,72.8c0,0.4-0.1,0.9-0.1,1.3c-1.3-1.1-1.5-2.7-1.7-4.2c0.3,0,0.5,0,0.8,0C6.9,70.8,7.7,71.6,7.4,72.8z"/>
	<path class="st1" d="M36.4,99.9c0.7-1.6,1.9-2.2,3.6-2.1C39,98.8,38.1,100,36.4,99.9z"/>
	<path class="st13" d="M128.4,14.1c0-0.4,0-0.8-0.1-1.2c0.6-1,0.7-2.6,2.5-2.1C130,11.9,129.2,13,128.4,14.1z"/>
	<path class="st2" d="M86.5,15.8c-1.2,1.5-2.8,1.1-4.4,1.1C83.3,15.6,84.9,15.7,86.5,15.8z"/>
	<path class="st14" d="M110.4,19.8c-1.5,0.5-2.9,0.7-4-0.9c0.6-0.2,1.2-0.4,1.7-0.7C109,18.6,110.2,18.4,110.4,19.8z"/>
	<path class="st12" d="M111.9,19.9c0.2,0.7,0.3,1.4,0.5,2.1c-1.6,0.1-2.2-0.6-1.7-2.2C111,19.8,111.4,19.8,111.9,19.9z"/>
	<path class="st0" d="M119.7,26.7c0.2,1,0.4,2.1,0.7,3.1c-0.3-0.1-0.7-0.3-1-0.5c-1.1-1-0.7-1.9,0.3-2.7
		C119.6,26.7,119.7,26.7,119.7,26.7z"/>
	<path class="st13" d="M9.4,29.8c-0.6,1.7-1.7,2.5-3.6,2.1C6.9,30.8,7.8,29.7,9.4,29.8z"/>
	<path class="st11" d="M49,26.9c-1.8,0.4-2.9-0.4-3.5-2.1C47.2,24.6,47.9,25.9,49,26.9z"/>
	<path class="st13" d="M137.3,4.6c0,0.3,0.1,0.7,0.1,1c-1,0.6-2.1,1.2-3.1,1.7C134.2,5.2,136,5.2,137.3,4.6z"/>
	<path class="st11" d="M124.4,69.4c-0.2-1.6,0.2-2.8,2-3.1C125.7,67.3,125.1,68.4,124.4,69.4z"/>
	<path class="st2" d="M103.5,16.7c1.6-0.1,2.9,0.6,4.2,1.3c-0.4,0.3-0.9,0.5-1.3,0.8c-1-0.6-2.1-1.3-3.1-1.9L103.5,16.7z"/>
	<path class="st11" d="M45.5,24.8c-1.4,0.1-2.5-0.4-2.6-2C43.9,23.3,45.2,23.4,45.5,24.8z"/>
	<path class="st1" d="M34.5,100.9l-0.3,0c0,0-0.3,0-0.3,0c0.5-1.3,1.5-1.1,2.5-1.1C36.3,101.1,35.3,100.9,34.5,100.9z"/>
	<path class="st11" d="M53.5,31.8c-1.7,0-2.2-1-2.1-2.5C52.3,30,53.2,30.6,53.5,31.8z"/>
	<path class="st2" d="M15.4,94.8c0.1,0.3,0.1,0.5,0.1,0.8c-1-0.4-2-0.7-2.6-1.7C14,93.5,14.9,93.7,15.4,94.8z"/>
	<path class="st13" d="M99.3,87.2c0-0.5,0-0.9,0.1-1.4c1,0,2,0.1,3,0.1c0,0.2,0,0.4,0,0.7C101.4,86.8,100.3,87,99.3,87.2z"/>
	<path class="st11" d="M103.4,85.9c0.6-1.6,2-1,3.1-1C105.8,86.2,104.5,86,103.4,85.9z"/>
	<path class="st2" d="M69.3,78.9c1.3-0.1,2,0.5,2.2,1.8C70.7,80.1,70,79.5,69.3,78.9z"/>
	<path class="st5" d="M108.1,18.2c-0.6,0.2-1.2,0.4-1.7,0.7c0,0,0,0,0,0c0,0,0.1-0.1,0.1-0.1c0.4-0.3,0.8-0.5,1.3-0.8
		C107.8,18,108.1,18.2,108.1,18.2z"/>
	<path class="st2" d="M77.4,18.6c-0.3,1-1.1,1.4-2.1,1.2C75.6,18.7,76.6,18.7,77.4,18.6z"/>
	<path class="st11" d="M129.3,62.9c0.7,0,1.4,0,2.1,0.1c0,0.3,0,0.6,0,0.9C130.5,63.9,129.6,63.9,129.3,62.9z"/>
	<path class="st11" d="M106.4,84.9c0.4-1.4,1.6-1,2.6-1C108.4,84.9,107.4,85.1,106.4,84.9z"/>
	<path class="st11" d="M102.4,86.6c0-0.2,0-0.4,0-0.7c0.4,0,0.7-0.1,1.1-0.1C103.4,86.6,103,86.7,102.4,86.6z"/>
	<path class="st2" d="M131.4,63.9c0-0.3,0-0.6,0-0.9c0.6,0,1.1,0.2,1,1C132,63.9,131.7,63.9,131.4,63.9z"/>
	<path class="st2" d="M117.9,24.9c-0.4,0.1-0.8,0.2-1.1,0.2c-0.2-0.3-0.4-0.6-0.7-1c0.2-0.2,0.3-0.3,0.5-0.5
		C117,24.1,117.5,24.5,117.9,24.9z"/>
	<path class="st2" d="M75.4,19.8c-0.2,0.8-0.6,0.9-1.2,0.4C74.6,20,75,19.9,75.4,19.8z"/>
	<path class="st2" d="M102.3,16.7c0-0.2,0-0.5,0-0.7c0.4,0.2,0.8,0.4,1.2,0.6c0,0-0.2,0.2-0.2,0.2C103,16.8,102.7,16.8,102.3,16.7z"
		/>
	<path class="st7" d="M181.4,36.4c0,0.3,0,0.6,0,0.9c0,3.8-0.1,7.5-0.1,11.3c-1.3-0.4-2.5-0.8-3.8-1.2c0,0-0.1,0-0.1,0
		c-0.3-2.1-1.8-2.6-3.6-2.6c-0.3-0.6-0.8-0.8-1.4-0.5c0.4-2-1-1.6-2-1.5l0,0c-1.5-2.1-3.9-2.2-6.1-2.8c-0.6,0-1.3-0.1-1.9-0.1
		c-0.8-1.4,1.4-1.7,1.1-3l-0.1,0c1.9,0.2,3-0.6,3.1-2.6l0.4-0.1l0-0.4c1.1,0.6,1.6,0.1,1.6-1l0,0c0.9,0.3,1.3,0,1-1l0,0
		c1,0.3,1.3,0,1-1l0,0c1.1,0,1.7-0.4,1-1.6l0.1,0c0.9-0.3,1.9-0.5,2.8-0.8c1.7,1.8,3.4,3.5,5.1,5.3c0,0,0-0.1,0-0.1
		C179.3,35.2,179.6,36.4,181.4,36.4z"/>
	<path class="st11" d="M176.6,10.6c3.7,6.1,1.4,11.3-2.3,16.3c-0.3,0-0.7-0.1-1-0.1c3-4.9,5.3-9.8,2.8-15.7
		C176.3,10.9,176.5,10.8,176.6,10.6z"/>
	<path class="st13" d="M181.3,48.6c0-3.8,0.1-7.5,0.1-11.3C182.9,41,183.3,44.8,181.3,48.6C181.2,48.5,181.3,48.6,181.3,48.6z"/>
	<path class="st11" d="M179.4,33.9c-1.7-1.8-3.4-3.5-5.1-5.3c-0.1-0.3-0.1-0.5,0.1-0.7C176.6,29.4,178.9,30.9,179.4,33.9z"/>
	<path class="st2" d="M162.5,4.6c-0.4-0.5-0.8-1-1.2-1.5c1.4-0.2,2.9-0.3,4.1,0.7c0,0.3,0,0.6-0.1,1c-0.3,0.3-0.6,0.6-0.9,0.8
		c0,0-0.1,0.2-0.1,0.2C163.7,5.4,163.1,5,162.5,4.6z"/>
	<path class="st13" d="M171.6,5.7c1.8,0.3,2.9,1.5,3.8,3c0,0.4-0.1,0.9-0.1,1.3c-1.7-1.4-3.3-2.8-5-4.1
		C170.8,5.8,171.2,5.8,171.6,5.7z"/>
	<path class="st15" d="M181.3,48.6C181.3,48.6,181.2,48.5,181.3,48.6c0.2,0.7,0.4,1.5,0.7,2.3c-0.5,0-1,0-1.4,0.1
		c0,0-0.1-0.1-0.1-0.1c-1-1.2-1.9-2.3-2.9-3.5C178.7,47.8,180,48.2,181.3,48.6z"/>
	<path class="st15" d="M174.4,27.8c-0.2,0.2-0.2,0.5-0.1,0.7c-0.9,0.3-1.9,0.5-2.8,0.8c0.3-0.8,0.6-1.7,1-2.5c0,0,0.5,0.1,0.5,0.1
		l0.4-0.2c0.3,0,0.7,0.1,1,0.1C174.3,27.2,174.3,27.5,174.4,27.8z"/>
	<path class="st11" d="M171.6,5.7c-0.4,0-0.9,0.1-1.3,0.1c-0.8,0.1-1.6,0-2-1c0-0.3,0-0.5,0-0.8C169.5,4.6,170.9,4.5,171.6,5.7z"/>
	<path class="st13" d="M168.3,4.1c0,0.3,0,0.5,0,0.8c-1-0.1-2-0.1-3.1-0.2c0.1-0.3,0.1-0.6,0.1-1C166.4,3.9,167.3,4,168.3,4.1z"/>
	<path class="st2" d="M181.4,36.4c-1.8,0-2.1-1.2-2-2.6C180.9,34,180.8,35.4,181.4,36.4z"/>
	<path class="st11" d="M175.3,10c0-0.4,0.1-0.9,0.1-1.3c0.9,0.3,1.1,1.1,1.2,1.9c-0.2,0.2-0.4,0.3-0.5,0.5
		C175.8,10.7,175.6,10.4,175.3,10z"/>
	<path class="st6" d="M151.3,9.9c1.7-0.4,3.3-0.9,5-1c1.7-0.1,1.2,0.9,0.6,1.8c-0.5,0.6-1.1,1.1-1.6,1.7c-1.3,0.6-2.7,0.9-3.1,2.6
		l0.1-0.1c-1.1-0.4-1.9-0.3-2.1,1.1l0.1-0.1c-1-0.2-1.9-0.3-2.1,1.1l0.1,0c-2.2-0.7-3.7,1.7-5.9,1.1c0.3-0.4,0.6-0.7,0.9-1.1
		c0,0-0.1,0.1-0.1,0.1c0.7,0,1-0.4,1.1-1.1c0,0-0.1,0.1-0.1,0.1c0.7,0,1-0.4,1.1-1.1c0,0-0.1,0.1-0.1,0.1c0.7,0,1-0.4,1.1-1.1
		c0,0-0.1,0.1-0.1,0.1c0.7,0,1-0.4,1.1-1.1c0,0-0.1,0.1-0.1,0.1c0.5-0.4,1.1-0.7,1.6-1.1l0-0.4c0,0,0.4-0.1,0.4-0.1
		C150.1,11,151.1,10.8,151.3,9.9L151.3,9.9z"/>
	<path class="st4" d="M123.4,31.9c0.2-1.5,1.8-1.9,2.5-3.1c0,0,0,0.1,0,0.1c1-0.5,2.2-0.7,2.6-2.1c0,0-0.1,0.1-0.1,0.1
		c2.7-0.3,4.8-2.2,7.1-3.4l-0.1,0.5c0,0.5,0,0.9,0,1.4c-1,1.2-2,2.3-3,3.5c0,0,0,0,0,0c-0.3,0.3-0.7,0.7-1,1l0,0
		c-1.4,0.6-2.5,1.5-3,3c0,0,0.1,0,0.1,0c-0.6,0.3-1.2,0.6-1.9,0.9c0,0-0.3,0.2-0.3,0.2C125.3,33.3,124.3,32.5,123.4,31.9
		C123.4,31.8,123.4,31.9,123.4,31.9z"/>
	<path class="st16" d="M142.5,17.9c2.1,0.6,3.7-1.7,5.9-1.1c-4.4,2.4-8.7,4.7-13.1,7.1c0,0,0.1-0.5,0.1-0.5c0-0.3-0.1-0.6-0.2-0.8
		c2.3-1.6,4.5-3.3,6.8-4.9C142.2,17.8,142.3,17.9,142.5,17.9z"/>
	<path class="st1" d="M135.3,22.6c0.1,0.3,0.1,0.6,0.2,0.8c-2.3,1.2-4.4,3-7.1,3.4C129.9,24.2,132.6,23.5,135.3,22.6z"/>
	<path class="st1" d="M128.4,26.8c-0.3,1.4-1.5,1.6-2.6,2.1C125.8,27.1,126.8,26.6,128.4,26.8z"/>
	<path class="st1" d="M151.4,9.8c-0.3,1-1.3,1.2-2.1,1.6C149.3,9.9,150,9.4,151.4,9.8z"/>
	<path class="st1" d="M142.5,17.9c-0.2-0.1-0.3-0.1-0.5-0.2c0.2-0.7,0.5-1.3,1.4-0.9C143.1,17.2,142.8,17.6,142.5,17.9z"/>
	<path class="st1" d="M144.4,15.8c0,0.7-0.4,1-1.1,1.1C143.1,16,143.4,15.5,144.4,15.8z"/>
	<path class="st1" d="M145.4,14.8c0,0.7-0.4,1-1.1,1.1C144,14.9,144.4,14.5,145.4,14.8z"/>
	<path class="st1" d="M146.4,13.8c0,0.7-0.4,1-1.1,1.1C145,13.9,145.4,13.5,146.4,13.8z"/>
	<path class="st1" d="M147.4,12.8c0,0.7-0.4,1-1.1,1.1C146,12.9,146.5,12.6,147.4,12.8z"/>
	<path class="st1" d="M148.9,11.8c-0.5,0.4-1.1,0.7-1.6,1.1C147.3,11.7,147.9,11.5,148.9,11.8z"/>
	<path class="st17" d="M178.6,54.1c-0.9,2.6-3.3,4-5,6c0,0-0.3-0.2-0.3-0.2c0.5-2.9,3-4.3,5-6L178.6,54.1z"/>
	<path class="st17" d="M173.6,60.1c-0.5,2.5-0.4,5-0.1,7.6c0,0-0.2,0.2-0.2,0.2c-2.1-2.7-2.1-5.3,0-8L173.6,60.1z"/>
	<path class="st17" d="M180.5,50.9c-0.1,1.4-0.8,2.4-1.9,3.2c0,0-0.3-0.3-0.3-0.3C178.4,52.4,179,51.3,180.5,50.9L180.5,50.9z"/>
	<path class="st17" d="M173.6,67.7c0.7,0.8,1.4,1.5,2.1,2.3c0,0-0.2-0.1-0.2-0.1c-1.4,0-2-0.7-2.1-2
		C173.4,67.8,173.6,67.7,173.6,67.7z"/>
	<path class="st18" d="M135.3,23.9c4.4-2.4,8.7-4.7,13.1-7.1c0,0-0.1,0-0.1,0c0.9,0.1,1.8,0,2.1-1.1c0,0-0.1,0.1-0.1,0.1
		c0.9,0.1,1.7,0,2.1-1.1c0,0-0.1,0.1-0.1,0.1c1.5-0.3,3-0.6,3.1-2.6c0.5-0.6,1.1-1.1,1.6-1.7c1.2,0.1,1.9-0.7,2.5-1.6
		c2.6,0,5.1,0.3,4.9,3.9c0,0.8,0.1,1.6,1.2,1.7c0.2,0.3,0.1,0.6-0.2,0.7c-0.3,0.2-0.6,0.4-1,0.6c-0.3,0-0.7,0-1,0
		c-2.2-0.3-0.6,1.4-1.1,2l0,0c-1.7,1.3-2.1,3-2,5l0,0c-1.2,0.7-1,1.9-1,3l0,0c-1.7,1.3-2.1,3-2,5l0,0c-2.8,4.5-2.9,9.2-1,14l0,0
		c0,1.1-0.2,2.3,1,3l0,0c0,0.9,0.2,1.6,1,2l0,0c0,1.5,0.6,2.5,2,3c0,0,0,0,0,0c0.3,0.3,0.7,0.7,1,1c0,0,0,0,0,0c0.3,0.3,0.7,0.7,1,1
		l0,0c0.4,0.9,1.2,1,2,1l0,0c0.4,0.3,0.8,0.7,1.3,1c0.6,0.3,1.2,0.5,1.8,0.8c0,0.8,0,1.5,0,2.3c0,0,0,0,0,0c-0.3,0.4-0.7,0.8-1,1.3
		c-1.1,2-3.4,2-4.9,3.4c-4.4-0.5-8.8-1-13.2-1.5c-4-0.4-7.9-0.8-11.9-1.2c-1.8-1.3-4-1.2-6-1.8c-0.3-0.1-0.6-0.2-0.9-0.1
		c-0.1-4.7-0.2-9.3-0.2-14c-0.1-4.2-2.7-7.8-3-11.9c0,0,0.3-0.2,0.3-0.2c0.6-0.3,1.2-0.6,1.9-0.9c0,0-0.1,0-0.1,0c1.8-0.2,3-1,3-3
		c0,0,0,0,0,0c0.7,0,1-0.4,1-1c0,0,0,0,0,0c2.2-0.1,3-1.5,3-3.5C135.4,24.9,135.4,24.4,135.3,23.9z"/>
	<path class="st17" d="M164.4,12.9c0.2-3.6-2.3-3.8-4.9-3.9c0-0.4,0-0.9,0.1-1.3c1.1,0.2,2.3,0.3,3.4,0.6c3.8,1,1.9-1.1,1.4-2.5
		c0,0,0.1-0.2,0.1-0.2c4.5,0.3,1.5,3.5,2,5.3C165.7,11.5,165.1,12.2,164.4,12.9z"/>
	<path class="st4" d="M164.3,5.8c0.5,1.4,2.5,3.5-1.4,2.5c-1.1-0.3-2.2-0.4-3.4-0.6c-2.5-4.3,1.4-2.6,3-3.1
		C163.1,5,163.7,5.4,164.3,5.8z"/>
	<path class="st19" d="M22.4,96.8c0.1-0.3,0-0.5-0.1-0.7c2.4-6.6,1.1-10.4-4.3-12.2c-0.5-0.2-1.1-0.4-1.6-0.7
		c-0.3-1.6-1.4-2.3-3-2.3c0,0,0,0,0,0c-0.3-1-1-1.7-2-2c-0.2,0-0.4,0-0.5-0.2c0.2-0.9,0.4-1.9,0.6-2.8c0,0-0.1,0.1-0.1,0.1
		c1.2-0.2,1.3-1.3,1.8-2.1c0.4-0.7,0.9-1.3,1.3-2c0,0-0.1,0.1-0.1,0.1c2-2,4-4,6.1-6.1c0,0-0.1,0.1-0.1,0.1c0.4-0.3,0.7-0.6,1.1-0.8
		c2.1-0.9,4-2.1,5.7-3.7c-1.7-1.4-3.7-1.7-5.8-1.6c0,0,0.1,0.1,0.1,0.1c-3.1-2.7-8.2-2.3-10.5-6.4c0.7-0.9,1.4-1.7,2.1-2.6
		c0.5-0.3,0.9-0.7,1.4-1c0,0,0,0,0,0c1.6-2.7,1.6-5.3,0-8c0,0,0,0,0,0c0-0.7,0-1.4,0-2C19.5,45,24,50.6,28.1,56.5
		c4.3,6.2,3.3,17.2-2.2,23.1c-3.3,3.6-1.1,3.9,1.7,4.9c1.9,0.6,4-0.4,5.7,1.1c-0.3,0.4-0.7,0.8-1,1.2c0,0,0.1-0.1,0.1-0.1
		c-3.6,1.8-7.2,3.6-4,8.6c0.2,0.1,0.3,0.3,0.4,0.4C27,97.9,24.5,96.2,22.4,96.8z"/>
	<path class="st19" d="M54.4,39.8c1.8,1.2,4.6,2,2.3,5.1c-0.4,0-0.8-0.1-1.2-0.1c-0.7,0-1.3,0-2,0c0,0,0,0,0,0c-0.4-0.9-1.2-1-2-1.2
		c-2.3-1.6-4.7-3.2-7-4.8c1.6,0,3.3,0.1,4.9,0.1C50.9,40.1,52.6,40,54.4,39.8L54.4,39.8z"/>
	<path class="st16" d="M30.4,36.7c-4.2-0.8-8.8-0.3-12.1-3.8c0,0,0.1-0.1,0.1-0.1c4,1,8,2,12,3.1C30.4,36.2,30.4,36.5,30.4,36.7z"/>
	<path class="st16" d="M18.5,27.8c-0.2,1.8,0.7,2.1,2.3,2c2.1-0.2,4.1-0.4,6.1,0.5c-0.2,0.2-0.3,0.4-0.5,0.6c-2.6,0.7-6-1.8-7.9,1.9
		c0,0-0.1,0.1-0.1,0.1c-0.6-0.4-1.2-0.8-1.8-1.2c0,0,0,0,0,0C16.8,30.3,16.5,28.5,18.5,27.8z"/>
	<path class="st16" d="M52.6,77.9c-3.3,1.7-6.3,3.8-10.2,3.9c2.7-2.3,6.1-3.2,9.1-4.7C51.9,77.4,52.2,77.7,52.6,77.9z"/>
	<path class="st16" d="M49.3,38.9c-1.6,0-3.3-0.1-4.9-0.1c-1-0.3-2.1-0.6-3.1-0.9c0.4-0.3,0.7-0.6,1.1-0.9c2.7,0.4,5.3,0.7,8,1.1
		C50,38.4,49.7,38.7,49.3,38.9z"/>
	<path class="st16" d="M42.5,81.8c-1.8,3.1-5,3.5-8.1,4.1C36.6,83.6,39.5,82.6,42.5,81.8z"/>
	<path class="st15" d="M52.6,77.9c-0.3-0.3-0.7-0.5-1-0.8c2.3-1.2,4.6-2.3,6.9-3.5c0,0.3,0,0.6,0,0.9C56.5,75.8,54.8,77.4,52.6,77.9
		z"/>
	<path class="st9" d="M35.8,34.5c0.6,0.4,1.1,0.7,1.7,1.1c0.3,0.4,0.7,0.8,1,1.2c0,0,0.1-0.1,0.1-0.1c-0.1,0.3-0.1,0.7-0.2,1
		c-1.7,0.1-3.5,0.2-5-0.8c0.3-0.3,0.6-0.5,1-0.8c0.3-0.4,0.6-0.7,0.9-1.1C35.5,34.8,35.6,34.7,35.8,34.5z"/>
	<path class="st16" d="M58.4,74.6c0-0.3,0-0.6,0-0.9c0.7-1.2,1.7-1.9,3.1-1.9C61.1,73.5,59.6,73.9,58.4,74.6z"/>
	<path class="st20" d="M14.4,39.9c0,0.7,0,1.4,0,2c-1.4-0.7-2.2-1.8-3-3C12.4,39.2,13.4,39.5,14.4,39.9z"/>
	<path class="st21" d="M38.4,37.7c0.1-0.3,0.1-0.7,0.2-1c1.3,0.1,2.5,0.2,3.8,0.4c-0.4,0.3-0.7,0.6-1.1,0.9
		C40.3,37.9,39.4,37.8,38.4,37.7z"/>
	<path class="st21" d="M34.4,36c-0.3,0.3-0.6,0.5-1,0.8c-1,0-2-0.1-3-0.1c0-0.3,0-0.5,0-0.8C31.8,36,33.1,36,34.4,36z"/>
	<path class="st20" d="M11.4,38.9c-1.9-0.6-2-1.6-0.8-3C11.7,36.7,11.4,37.8,11.4,38.9z"/>
	<path class="st20" d="M15.5,32.9c-0.4,0.3-0.8,0.5-1.1,0.7c0,0-0.2-0.2-0.3-0.4C14.5,33.1,15,33,15.5,32.9
		C15.4,32.8,15.5,32.9,15.5,32.9z"/>
	<path class="st20" d="M51.4,43.6c0.8,0.2,1.6,0.3,2,1.2C52.5,44.8,51.7,44.7,51.4,43.6z"/>
	<path class="st20" d="M53.4,44.8c0.7,0,1.3,0,2,0C54.8,46,54.1,45.9,53.4,44.8z"/>
	<path class="st16" d="M32.4,86.9c0.3-0.4,0.7-0.8,1-1.2c0.4,0.1,0.7,0.1,1.1,0.2C34.2,87.1,33.5,87.3,32.4,86.9z"/>
	<path class="st20" d="M15.4,32.8c0.4-0.4,0.8-0.7,1.1-1.1c0,0,0,0,0,0C16.2,32.1,15.8,32.5,15.4,32.8
		C15.5,32.9,15.4,32.8,15.4,32.8z"/>
	<path class="st9" d="M118.3,54.9c0.6,0.2,1.1,0.4,1.7,0.6c0.3,0.2,0.5,0.4,0.8,0.7c-0.2,2.7-3,4.1-3.5,6.6c-0.6,0.3-1.2,0.7-1.8,1
		c-1.9,1.3-4,3.5-3.8-1.3c0.1-2.6-1.4-2.6-3.2-1.5c-0.4,0-0.7,0-1.1,0c-4.4-0.6-6,1-4,5.3c1,2.2,0.9,3.8-2.2,3.8
		c-0.9,0-1.9,0.5-2.8,0.8c-0.4,0-0.7,0.1-1.1,0.1c-3.3,0-6.6-0.1-9.9-0.1c-0.3,0-0.5-0.1-0.8-0.1c0-1.9-0.7-3.9,0.6-5.6
		c0,0.8-0.4,1.7,0.6,2.2c0.1-1.8,3.7-3.9-0.5-5.2c-7.9-1.7-7.9-1.7-8.1,5.7c-0.6,0-1.2,0-1.7-0.1c-0.1-1.3-0.1-2.6-0.2-3.9
		c0.9-0.4,1.8-2.2,0.8-3c-1.2-1-0.8,2.7-0.8,3.1c-2.4-4.4-4.4-5-8-2.1c-0.4-0.8-1.1-0.9-1.9-1c-0.9-2.2-2-4.4-2.8-6.8
		c-0.6-1.7-1-3.6,1.7-4.1c0.3,0,0.6,0.1,0.8,0c2.4,0.8,2.4,2.7,2.2,4.7c-0.2,2,0.1,3.6,2.8,3c2.1,0.1,4.3,0.9,6.1-0.7
		c1.3-2.1-2-6.6,2-6.5c6.5,0.2,5.3-3.8,5.1-7.4c-0.1-2.3,0.3-5.1-2.6-6.2c-3.5-1.3-3.1,2.4-4.5,3.7c-0.2,0.2-0.6,0.3-0.9,0.4
		c-0.3,0-0.7,0-1,0c-0.6-3,1.8-5.2,2.2-7.9c1-0.1,1.8-0.5,1.8-1.7c0.8-0.6,1.1-1.4,1.1-2.3c3.3-0.8,2.5,2.7,3.9,3.8
		c0.2,0.8,0.9,1.1,1.6,1.3c-0.2,2.6,3.9,4.8-0.4,8.1c-2.8,2.1,0.2,7.7,4.1,7.9c2.8,0.2,2.7,1.8,2.6,3.7c-0.1,3.2,0.6,5.7,4.7,4.9
		c0.5,0,1,0,1.5,0c3.5,0.5,4.2-1.7,4.6-4.5c0.2-1.3-0.7-3.5,1.6-3.5c2.6,0,2.3-2.4,3.5-3.5c0.4,2.5,0.7,5,1.2,7.5
		c0.3,1.8,1.7,0.9,2.7,1c1.5,0.2,3,0.7,4.2-0.7l0,0C117.7,54.9,118,54.9,118.3,54.9z"/>
	<path class="st22" d="M113.2,55.6c-1-0.1-2.4,0.8-2.7-1c-0.5-2.5-0.8-5-1.2-7.5c0-0.6-0.1-1.1-0.1-1.7c-0.3-1.1-1.1-2.8-0.7-3.2
		c3.4-3.3,0.2-5.6-1-8.2c-1-2.1-2-4.1-3-6.1c-0.3-0.4-0.6-0.7-0.9-1.1c0-0.8-0.1-1.6-1-2c0-0.8-0.2-1.6-1.1-2
		c-0.3-0.4-0.6-0.7-1-1.1c-0.4-0.3-0.7-0.6-1.1-0.9c1.4-3.2,2.6,1.1,4,0.1c0,0-0.1,0-0.1,0c0.4,1,1.1,1.1,2.1,1c0,0,0,0,0,0
		c0.3,0.5,0.7,1,1,1.5c1.1,1.3,2.3,2.4,4,3c-0.1,1,0,2,1,2.5c0,0,0,0,0,0c0.3,0.5,0.7,1,1,1.5c0.5,1.2,1,2.3,1.5,3.5
		c0.5,0.7,1,1.4,1.5,2.1c0,0,0-0.1,0-0.1c0,1.1-0.3,2.4,1,3.1c0,0,0-0.1,0-0.1c0.4,5.4,1.4,10.7,1.1,16.1c0,0,0,0,0,0
		C116,55.1,114.5,54.6,113.2,55.6z"/>
	<path class="st23" d="M103.4,20.9c-1.3,1-2.6-3.2-4-0.1l-0.1,0.1c-1-0.3-2-0.7-3-1c-0.7,0-1.4,0.1-2.1,0.1c-3.5-1-4.6,1.7-5.9,4
		c-0.3-1.2,0.7-2.9-0.8-3.6c-1-0.5-1.7,0.7-2.5,1.3c-0.2-0.7-0.5-1.3-0.7-2c0.3-0.3,0.6-0.5,0.9-0.8c0.4,0,0.8,0,1.2,0
		c4-0.3,8.1,1.2,11.9-1l0,0c0.7,0,1.3-0.1,2-0.1c0.8,0.3,1.7,0.6,2.5,0.9C103,19.4,103.2,20.2,103.4,20.9z"/>
	<path class="st24" d="M125.4,57.9c1.9-5.4-0.1-10.7,0-16c0,0,0,0,0,0c1.8,0.7,0.3,3.2,2.1,4c0,0,0-0.1,0-0.1
		c-0.4,4,0.9,8.2-1.1,12.1C126,57.9,125.7,57.9,125.4,57.9z"/>
	<path class="st24" d="M117.5,54.9c0.3-5.4-0.7-10.7-1.1-16.1c3.4,5,1.7,10.7,2,16.1C118,54.9,117.7,54.9,117.5,54.9z"/>
	<path class="st24" d="M109.9,80.8c-1.3,1.3-2.9,2.1-4.8,2.1c-0.3-0.1-0.6-0.3-1-0.4c0.4-1.7,1.4-2.7,3.1-2.9l0.2,0.2
		C107.9,81,109,80.7,109.9,80.8z"/>
	<path class="st10" d="M125.4,57.9c0.3,0,0.6,0,0.9,0c0.3,0.3,0.7,0.7,1,1l0.4,0.1c0,0.6-0.1,1.2-0.1,1.8c-0.4,0.4-0.9,0.9-1.3,1.3
		c-0.7,0.7-1.3,1.5-2,2.2C124.7,62.2,125.1,60,125.4,57.9z"/>
	<path class="st9" d="M120,55.5c0.9-1.4-0.3-3.2,1-4.5c0.1-0.1,0.7,0.1,0.8,0.2c0.9,1.9-0.3,3.4-1.1,4.9
		C120.5,55.9,120.2,55.7,120,55.5z"/>
	<path class="st14" d="M102.9,18.7c-0.8-0.3-1.7-0.6-2.5-0.9c0-0.3,0-0.6,0-0.9c0.7-0.1,1.3-0.1,2-0.2c0.4,0,0.7,0.1,1.1,0.1
		c1,0.6,2.1,1.3,3.1,1.9c0,0-0.1,0.1-0.1,0.1C105.2,18.8,104,18.7,102.9,18.7z"/>
	<path class="st24" d="M115.4,63.7c0.6-0.3,1.2-0.7,1.8-1c-0.1,1.9-0.5,3.7-1.8,5.1c0,0-0.2-0.1-0.2-0.1
		C115.3,66.4,115.3,65.1,115.4,63.7z"/>
	<path class="st25" d="M119.3,29.4c0.3,0.2,0.7,0.3,1,0.5c1.1,0.2,1.6,1.1,2.1,2c-0.8,0.3-0.9,0.8-0.4,1.4
		C120.3,32.5,119.5,31.1,119.3,29.4z"/>
	<path class="st24" d="M111.5,74.9c-0.1,1.1-0.7,1.9-1.9,2.1c0,0-0.3-0.2-0.3-0.2c0.6-0.7,1.3-1.4,1.9-2.1
		C111.2,74.7,111.5,74.9,111.5,74.9z"/>
	<path class="st0" d="M116.1,24.1c0.2,0.3,0.4,0.6,0.7,1c-1.5,1.1-1.8-0.4-2.5-1.1C114.9,24,115.5,24.1,116.1,24.1z"/>
	<path class="st23" d="M125.4,41.8c-1.3-0.7-1-1.9-1-3c0,0,0,0,0,0C125.7,39.5,125.3,40.8,125.4,41.8L125.4,41.8z"/>
	<path class="st23" d="M124.4,38.8c-1.3-0.7-1.1-1.9-1-3c0.4,0,0.7,0,1.1,0l-0.1-0.1C124.4,36.8,124.4,37.8,124.4,38.8L124.4,38.8z"
		/>
	<path class="st23" d="M116.4,38.9c-1.3-0.7-1-1.9-1-3.1C116.6,36.5,116.4,37.8,116.4,38.9z"/>
	<path class="st22" d="M122.1,33.2c-0.5-0.6-0.4-1.1,0.4-1.4c0.3,0.2,0.6,0.2,1,0.1c0,0,0-0.1,0-0.1c0,0.7,0,1.3,0.1,2
		c0,0-0.1,0.1-0.1,0.1C122.9,33.6,122.5,33.4,122.1,33.2z"/>
	<path class="st23" d="M105.4,21.9c-0.9,0.1-1.7-0.1-2.1-1C104.2,20.8,105,20.9,105.4,21.9z"/>
	<path class="st23" d="M111.4,28.9c-1-0.6-1.1-1.5-1-2.5C111,27.1,111.6,27.8,111.4,28.9z"/>
	<path class="st23" d="M115.4,35.9c-0.5-0.7-1-1.4-1.5-2.1C115.2,33.9,115.4,34.8,115.4,35.9z"/>
	<path class="st22" d="M124.4,35.8c-0.4,0-0.7,0-1.1,0c0,0,0,0,0,0c0-0.4,0-0.7,0-1.1c0-0.3,0-0.6,0-0.9c0,0,0.1,0,0.1,0
		C124.4,34.2,124.3,35.1,124.4,35.8z"/>
	<path class="st24" d="M115.4,67.9c0,0.8-0.2,1.6-1,2c0,0-0.2-0.1-0.2-0.1c0.1-0.8,0.1-1.6,1-2L115.4,67.9z"/>
	<path class="st24" d="M114.4,69.9c0,0.8-0.2,1.6-1,2c0,0-0.2-0.2-0.2-0.2c0.1-0.8,0.2-1.6,1-2L114.4,69.9z"/>
	<path class="st10" d="M120.3,72.6c-0.3,0.1-0.6,0.2-0.9,0.3c-0.1-1.1,0.3-1.9,1.5-2C120.7,71.4,120.5,72,120.3,72.6z"/>
	<path class="st24" d="M112.5,73c0,0.8-0.2,1.6-1,2c0,0-0.3-0.2-0.3-0.2c0.4-0.6,0.7-1.3,1.1-1.9L112.5,73z"/>
	<path class="st24" d="M109.6,77c-0.4,0.6-0.8,1.3-1.1,1.9c0,0-0.3-0.3-0.3-0.3c0.4-0.6,0.8-1.2,1.2-1.9
		C109.3,76.8,109.6,77,109.6,77z"/>
	<path class="st10" d="M114.4,77.8c-0.1,0.3-0.2,0.6-0.3,0.9c-0.6,0.2-1.2,0.4-1.8,0.6C112.5,78.2,113.3,77.8,114.4,77.8z"/>
	<path class="st24" d="M108.5,78.9c-0.3,0.3-0.7,0.6-1,1c0,0-0.2-0.2-0.2-0.2c0.3-0.3,0.6-0.7,0.9-1
		C108.1,78.6,108.5,78.9,108.5,78.9z"/>
	<path class="st10" d="M115.9,76.8c-0.5,0.4-1,0.7-1.5,1.1C114.5,77.1,115.1,76.8,115.9,76.8z"/>
	<path class="st10" d="M119.4,72.8c-0.4,0.5-0.7,1-1.1,1.5C118.4,73.6,118.6,73,119.4,72.8z"/>
	<path class="st24" d="M113.5,71.9c-0.3,0.3-0.6,0.7-0.9,1c0,0-0.2-0.2-0.2-0.2c0.3-0.4,0.6-0.7,0.9-1.1
		C113.2,71.7,113.5,71.9,113.5,71.9z"/>
	<path class="st23" d="M123.4,34.8c0,0.4,0,0.7,0,1.1C122.2,35.5,122.5,35.2,123.4,34.8z"/>
	<path class="st23" d="M112.4,30.4c-0.3-0.5-0.7-1-1-1.5C112.2,29,112.4,29.7,112.4,30.4z"/>
	<path class="st0" d="M113.3,23c0.6,0,1.1,0.2,1,1C114,23.6,113.6,23.3,113.3,23z"/>
	<path class="st12" d="M112.3,21.9c0.3,0.3,0.7,0.7,1,1C112.7,22.9,112.3,22.6,112.3,21.9z"/>
	<path class="st23" d="M106.4,23.4c-0.3-0.5-0.7-1-1-1.5C106.1,22.1,106.4,22.6,106.4,23.4z"/>
	<path class="st9" d="M49.3,38.9c0.4-0.3,0.7-0.5,1.1-0.8c1.3,0.8,3.3-0.2,4.1,1.8C52.6,40,50.9,40.1,49.3,38.9z"/>
	<path class="st16" d="M26.9,30.3c1,0.4,1.9,0.8,2.9,1.1c-0.2,0.2-0.3,0.4-0.4,0.6c-1-0.2-2.3,0-3-1.1
		C26.5,30.7,26.7,30.5,26.9,30.3z"/>
	<path class="st9" d="M29.8,31.5c0.7,0.3,1.4,0.6,2.1,0.9c-0.2,0.2-0.4,0.5-0.6,0.7c-0.8-0.1-1.5-0.1-2-0.9
		C29.4,31.9,29.6,31.7,29.8,31.5z"/>
	<path class="st9" d="M31.9,32.3c0.7,0.3,1.3,0.7,2,1c-0.2,0.2-0.4,0.5-0.6,0.7c-0.7-0.3-1.3-0.7-2-1C31.5,32.8,31.7,32.6,31.9,32.3
		z"/>
	<path class="st9" d="M33.9,33.3c0.6,0.4,1.3,0.8,1.9,1.2c-0.2,0.1-0.3,0.3-0.5,0.4c-0.8,0-1.6-0.1-2-0.9
		C33.5,33.8,33.7,33.6,33.9,33.3z"/>
	<path class="st21" d="M38.5,36.8c-0.3-0.4-0.7-0.8-1-1.2C38,35.9,38.8,35.8,38.5,36.8z"/>
	<path class="st15" d="M22.4,96.8c2.1-0.6,4.6,1.1,6.5-1c1.3-0.3,3.3-0.2,3.3,1c0.1,1.7-1.9,1-3,1c-2.3,0.1-4.5-0.1-6.8-0.2
		C22.5,97.3,22.4,97.1,22.4,96.8z"/>
	<path class="st16" d="M28.4,95.4c-3.2-5,0.4-6.8,4-8.6C30.9,89.6,27.3,91.4,28.4,95.4z"/>
	<path class="st26" d="M148.3,63c4.4,0.5,8.8,1,13.2,1.5c1.1,0.4,2.1,0.8,3.2,1.3c-0.6,0.1-1.2,0.2-1.8,0.3
		c-7.2-1.2-14.7,1.2-21.6-2.2C143.5,63.2,146.1,64.5,148.3,63z"/>
	<path class="st1" d="M170.4,74c-0.5,0.8-1.4,0.8-2.2,0.9c-0.9,0.1-1.9,0.3-2.8,0.4c-0.1-1.3,1.1-1.4,1.7-2c2.1-2.5,1.4-4.5-1.1-6.1
		c0.2-0.2,0.3-0.4,0.3-0.7c4.2,0.5,2.1,4.7,4,6.6C170.4,73.4,170.4,73.7,170.4,74z"/>
	<path class="st15" d="M148.3,63c-2.2,1.5-4.8,0.2-7,0.9c-1.6-0.4-3.2-0.8-4.8-1.2c0-0.3,0-0.6,0-0.9
		C140.3,62.2,144.3,62.6,148.3,63z"/>
	<path class="st1" d="M136.3,61.8c0,0.3,0,0.6,0,0.9c-2.1-0.5-4.2-0.5-6-1.9c0-0.3,0-0.6,0-0.9C132.3,60.6,134.6,60.5,136.3,61.8z"
		/>
	<path class="st15" d="M170.4,74c0-0.3,0-0.6,0-0.9c1.7-0.8,3.4-1.6,5.1-2.4c0,0.5-0.1,1-0.1,1.4C173.9,73.3,172.2,74,170.4,74z"/>
	<path class="st21" d="M130.4,60c0,0.3,0,0.6,0,0.9c-0.6,0-1.3,0-1.9,0c-0.3,0-0.5-0.1-0.8-0.1c0-0.6,0.1-1.2,0.1-1.8
		c0.6,0.3,1.1,0.6,1.7,0.9C129.8,59.8,130.1,59.8,130.4,60z"/>
	<path class="st11" d="M162.8,66.1c0.6-0.1,1.2-0.2,1.8-0.3c0.7,0,1.4,0,1.7,0.7c0,0.3-0.1,0.5-0.3,0.7
		C164.9,66.8,163.9,66.5,162.8,66.1z"/>
	<path class="st16" d="M11,53.4c2.3,4.1,7.3,3.7,10.5,6.4c-4.7,0.7-7.7-3.6-12-4c0-0.7,0-1.4,0.1-2.1C10.1,53.7,10.5,53.6,11,53.4z"
		/>
	<path class="st16" d="M21.4,59.8c2.1-0.1,4.1,0.2,5.8,1.6c-1.6,1.6-3.5,2.8-5.7,3.7c-0.1-0.3-0.1-0.6-0.1-0.9
		C24.1,62.7,24.5,61.3,21.4,59.8z"/>
	<path class="st15" d="M20.5,65.8c-2,2-4,4-6.1,6.1C15.1,68.6,17.2,66.6,20.5,65.8z"/>
	<path class="st16" d="M13.2,73.8c-0.5,0.8-0.6,1.9-1.8,2.1c-0.5-1-0.1-1.6,0.8-2.1C12.6,73.8,12.9,73.8,13.2,73.8z"/>
	<path class="st15" d="M13.2,73.8c-0.3,0-0.6,0-0.9,0c0.5-0.9,0.5-2.4,2.2-2C14,72.5,13.6,73.2,13.2,73.8z"/>
	<path class="st16" d="M11.5,75.8c-0.2,0.9-0.4,1.9-0.6,2.8c-0.2,0.1-0.3,0.2-0.5,0.3c-0.1-0.8-0.2-1.5-0.3-2.3
		C10.5,76.2,10.6,75.4,11.5,75.8z"/>
	<path class="st15" d="M21.4,64.2c0,0.3,0,0.6,0.1,0.9c-0.4,0.3-0.7,0.6-1.1,0.8C19.6,64.6,21,64.7,21.4,64.2z"/>
	<path class="st20" d="M14.4,41.9c1.6,2.7,1.6,5.3,0,8C14.4,47.2,14.4,44.5,14.4,41.9z"/>
	<path class="st20" d="M14.4,49.8c-0.5,0.3-0.9,0.7-1.4,1C13.5,50.5,14,50.2,14.4,49.8z"/>
	<path class="st20" d="M18,83.9c5.4,1.8,6.7,5.6,4.3,12.2c-0.4-0.1-0.7-0.2-1.1-0.3C23.7,90.8,21.9,87.1,18,83.9z"/>
	<path class="st20" d="M13.4,80.9c1.6,0,2.7,0.7,3,2.3C15.2,82.7,13.9,82.3,13.4,80.9z"/>
	<path class="st20" d="M11.4,78.9c1,0.3,1.7,1,2,2C12.1,80.9,11.4,80.2,11.4,78.9z"/>
	<path class="st5" d="M66.4,49.9c-2.7,0.5-2.2,2.4-1.7,4.1c0.8,2.3,1.8,4.5,2.8,6.8c-0.1,1.4-0.6,3,0.9,4.1l0,0c0,1.1-0.1,2.3,1,3
		l0,0c0,0.9,0.1,1.6,1,2l0,0c0,0.9,0.1,1.6,1,2l0,0c0,0.9,0.2,1.6,1,2l0,0c0.3,0.3,0.7,0.7,1,1l0,0c0,1.4,0.7,2.4,2,3l0,0
		c0.3,0.3,0.7,0.7,1,1c0,0,0,0,0,0c0.3,0.3,0.7,0.7,1,1l0,0c-0.4,0.4-0.8,0.9-1.2,1.3c-4-2-6.6-5.7-10.2-8.2
		c-7.2-10.9-9.7-22.5-5-35c3.9-6.8,8.5-13,15.8-16.6c1.3-0.6,3-3,4.3,0.1c-2.9,0.7-3.7,4.3-6.7,5c-0.7,0.7-1.2,1.5-1,2.5l0,0
		c-0.8,0.2-1,0.8-1,1.5c-0.5,1.1-1,2.3-1.5,3.4c-1.3,0.1-1.5,1-1.5,2.1l0-0.1c-1.3,0.7-1,1.9-1,3.1l0-0.1
		C65.8,42.2,66.4,46.1,66.4,49.9z"/>
	<path class="st22" d="M74.4,26.3c3-0.7,3.7-4.3,6.7-5c0.4-0.4,0.9-0.8,1.3-1.2c0.7-0.2,1.3-0.4,2-0.5c0.2,0.7,0.5,1.3,0.7,2
		c0,0-0.2,0.2-0.2,0.2c-1.8,0.2-2.5,1.3-2.5,3l0,0c-1.1,0.3-1.1,1.1-1,2c0,0,0,0,0,0c-1.2,0.3-1,1.2-1,2l0,0c-1.5,1-2,2.4-1.8,4.1
		c-0.5,2.7-2.8,4.9-2.2,7.9c-0.9,4-1.4,8.1-1,12.2c0.3,2.7-0.9,3.9-3.2,4.6c-2.7,0.6-2.9-1-2.8-3c0.1-2,0.2-3.9-2.2-4.7
		c0.4-3.7,0.8-7.4,1.1-11.1c0,0,0,0.1,0,0.1c1.3-0.7,1-1.9,1-3.1c0,0,0,0.1,0,0.1c0.5-0.7,1-1.4,1.5-2.1c0.5-1.1,1-2.3,1.5-3.4
		c0.3-0.5,0.7-1,1-1.5c0,0,0,0,0,0C74.4,28.3,74.5,27.4,74.4,26.3z"/>
	<path class="st20" d="M100.3,16.9c0,0.3,0,0.6,0,0.9c-0.7,0-1.3,0.1-2,0.1c-0.3-0.4-0.6-1.3-1.3-0.4c0.4,0.1,0.9,0.2,1.3,0.3
		c-3.8,2.1-7.9,0.7-11.9,1c0.9-1.6,3.3-0.9,4-2.8c2,0,4,0,6-0.1C97.8,15.9,99.1,16.1,100.3,16.9z"/>
	<path class="st25" d="M84.4,19.6c-0.7,0.2-1.3,0.4-2,0.5c0.6-1.3,0.9-3,2.9-1.3C85,19.1,84.7,19.4,84.4,19.6z"/>
	<path class="st23" d="M76.2,81.1c0.4-0.4,0.8-0.9,1.2-1.3c2.6,0.4,4.2,2.4,6.2,3.7c-0.1,0.2-0.3,0.3-0.4,0.5c-0.3,0-0.5,0-0.8,0.1
		c-1.7-0.1-3.1-1.6-5-1.2C77.1,82.3,76.6,81.7,76.2,81.1z"/>
	<path class="st9" d="M104.1,82.5c0.3,0.1,0.6,0.3,1,0.4c-1.7,1.3-3.6,1.8-5.7,2c0,0,0.1-0.3,0.1-0.3c0-0.2-0.1-0.4-0.1-0.6
		C101.1,84,102.2,82,104.1,82.5z"/>
	<path class="st23" d="M99.4,84c0.1,0.2,0.1,0.4,0.1,0.6c-3.6,1.9-7.4,1.3-11.2,1.3c-0.2,0-0.5,0-0.7,0c-1.1-1.4-2.8-1-4.2-1.1
		c0-0.3-0.1-0.5-0.1-0.8c0.1-0.2,0.3-0.3,0.4-0.5c0.7,0.1,1.5,0.2,1.8-0.7c2-0.4,2.9,2.5,5,1.6c1.3,0,2.6,0,3.9,0
		c2.1,0.9,3.1-1.9,5-1.5C99.4,83.2,99.4,83.6,99.4,84z"/>
	<path class="st14" d="M83.3,84.8c1.5,0.1,3.1-0.3,4.2,1.1C86.2,85.5,84.4,86.5,83.3,84.8z"/>
	<path class="st6" d="M166.3,66.5c-0.4-0.8-1-0.7-1.7-0.7c-1-0.4-2.1-0.8-3.1-1.3c1.5-1.4,3.8-1.5,4.9-3.4c0.3-0.4,0.7-0.8,1-1.3
		c0,0,0,0,0,0c0.5-0.3,1.4-0.5,1.5-0.9c0.3-1.1-0.8-1.1-1.5-1.4c-0.6-0.3-1.2-0.5-1.8-0.8c-0.4-0.3-0.8-0.7-1.3-1c0,0,0,0,0,0
		c-0.4-0.8-1.2-1.1-2-1c0,0,0,0,0,0c-0.3-0.3-0.7-0.7-1-1c0,0,0,0,0,0c-0.3-0.3-0.7-0.7-1-1c0,0,0,0,0,0c0-1.5-0.7-2.5-2-3
		c0,0,0,0,0,0c0-0.9-0.1-1.6-1-2c0,0,0,0,0,0c0-1.1,0.2-2.3-1-3c0,0,0,0,0,0c-0.6-4.7,0.9-9.3,1-14c0,0,0,0,0,0c1.6-1.3,2.1-3.1,2-5
		c0,0,0,0,0,0c1.2-0.7,1-1.9,1-3c0,0,0,0,0,0c1.6-1.3,2.1-3.1,2-5c0,0,0,0,0,0c0.9-0.4,0.9-1.2,1.1-2c0.3,0,0.7,0,1,0
		c0,2.6-0.6,5.4,2.5,7c0.5,0.5,1,1,1.5,1.5c0.4,2.4,2.1,2.6,4,2.5l0,0c-0.3,0.8-0.6,1.7-1,2.5c0,0-0.1,0-0.1,0c-0.3,0.5-0.7,1-1,1.6
		c0,0,0,0,0,0c-0.7,0-1.1,0.3-1,1c0,0,0,0,0,0c-0.7,0-1.1,0.3-1,1c0,0,0,0,0,0c-0.5,0.3-1,0.7-1.6,1l0,0.4c0,0-0.4,0.1-0.4,0.1
		c-1.2,0.7-2.6,1-3.1,2.6c0,0,0.1,0,0.1,0c-1.5,0-2.4,0.9-3.3,1.8c-0.4,0.2-1,0.5-1,0.6c0.4,1.1,1.4,0.6,2.2,0.6l-0.1,0
		c0.7,1.3,2,0.9,3.1,1c1.9,1.1,3.7,2.2,6,1.9c0,0,0,0,0,0c0.1,1.3,1.3,1.1,2,1.5c0.6-0.3,1.1-0.2,1.4,0.5c0.9,1.3,2.2,2,3.6,2.6
		c0,0,0.1,0,0.1,0c1,1.2,1.9,2.3,2.9,3.5c-1.4,0.5-2,1.6-2.1,3c-2,1.7-4.4,3.1-5,6c-2.1,2.7-2.1,5.3,0,8c0.1,1.3,0.7,2,2.1,2
		c0.1,0.3,0.2,0.6,0.1,0.9c-1.7,0.8-3.4,1.6-5.1,2.4C168.5,71.2,170.5,67,166.3,66.5z"/>
	<path class="st13" d="M170.4,42.8c-2.3,0.2-4.2-0.9-6-1.9c0-0.3,0-0.6-0.1-0.9C166.5,40.6,168.9,40.7,170.4,42.8z"/>
	<path class="st1" d="M160.2,38.7c0.9-0.9,1.8-1.9,3.3-1.8c0.3,1.2-1.8,1.6-1.1,3c-0.4,0-0.7,0-1.1,0.1c0,0,0.1,0,0.1,0
		C160.9,39.5,160.5,39.1,160.2,38.7z"/>
	<path class="st15" d="M177.4,47.4c-1.4-0.6-2.7-1.2-3.6-2.6C175.7,44.7,177.1,45.2,177.4,47.4z"/>
	<path class="st1" d="M163.3,36.9c0.4-1.5,1.9-1.9,3.1-2.6C166.3,36.3,165.3,37.1,163.3,36.9z"/>
	<path class="st16" d="M161.3,39.9c0.4,0,0.7,0,1.1-0.1c0.6,0,1.3,0.1,1.9,0.1c0,0.3,0.1,0.6,0.1,0.9
		C163.3,40.8,162,41.2,161.3,39.9z"/>
	<path class="st13" d="M172.4,44.3c-0.8-0.4-1.9-0.3-2-1.5C171.4,42.8,172.8,42.4,172.4,44.3z"/>
	<path class="st13" d="M166.8,33.9c0.5-0.3,1-0.7,1.6-1C168.4,34,168,34.5,166.8,33.9z"/>
	<path class="st13" d="M168.4,32.9c0-0.7,0.3-1.1,1-1C169.7,32.9,169.3,33.2,168.4,32.9z"/>
	<path class="st13" d="M169.4,31.9c0-0.7,0.3-1.1,1-1C170.7,31.9,170.4,32.2,169.4,31.9z"/>
	<path class="st13" d="M170.4,30.9c0.3-0.5,0.7-1,1-1.6C172.1,30.5,171.5,30.9,170.4,30.9z"/>
	<path class="st0" d="M168.3,24.3c-0.5-0.5-1-1-1.5-1.5c-1.1-2.4-1.5-4.9-1.5-7.5c0.3-0.2,0.4-0.4,0.2-0.7c0.2-0.2,0.3-0.4,0.3-0.7
		c1.3,0,2.2-0.8,2.3-2.1c0.1-1.1-1-1.1-1.8-1l0,0c-0.5-1.8,2.4-5-2-5.3c0.3-0.3,0.6-0.6,0.9-0.8c1,0.1,2,0.1,3.1,0.2
		c0.4,0.9,1.2,1,2,1c1.7,1.4,3.3,2.8,5,4.1c0.3,0.4,0.5,0.7,0.8,1.1c2.5,5.8,0.2,10.8-2.8,15.7c0,0-0.4,0.1-0.4,0.1
		s-0.5-0.1-0.5-0.1c0,0,0,0,0,0C171,26,169.7,25.2,168.3,24.3z"/>
	<path class="st16" d="M155.4,12.3c-0.1,2-1.5,2.3-3.1,2.6C152.7,13.3,154.1,12.9,155.4,12.3z"/>
	<path class="st16" d="M152.4,14.8c-0.4,1-1.2,1.1-2.1,1.1C150.5,14.6,151.3,14.5,152.4,14.8z"/>
	<path class="st16" d="M150.4,15.8c-0.3,1.1-1.2,1.1-2.1,1.1C148.5,15.5,149.4,15.6,150.4,15.8z"/>
	<path class="st16" d="M124.4,35.8c-0.2-0.8,0-1.7-1-2c0-0.7,0-1.3-0.1-2c1,0.7,1.9,1.4,2.9,2.2c0.3,4.1,2.9,7.7,3,11.9
		c-0.3,0-0.5,0-0.8,0c-0.4,0-0.7,0-1.1,0c0,0,0,0.1,0,0.1C127.6,42.1,126.8,38.7,124.4,35.8L124.4,35.8z"/>
	<path class="st17" d="M135.4,25.3c0,2-0.8,3.4-3,3.5C133.4,27.7,134.4,26.5,135.4,25.3z"/>
	<path class="st17" d="M131.4,29.8c0,2-1.2,2.8-3,3C128.9,31.4,130,30.5,131.4,29.8z"/>
	<path class="st16" d="M128.4,32.8c-0.6,0.3-1.2,0.6-1.9,0.9C127.2,33.4,127.8,33.1,128.4,32.8z"/>
	<path class="st17" d="M132.4,28.8c0,0.7-0.4,1-1,1C131.7,29.5,132,29.2,132.4,28.8z"/>
	<path class="st27" d="M157.4,30.9c-0.1,4.7-1.6,9.3-1,14C154.5,40,154.6,35.3,157.4,30.9z"/>
	<path class="st15" d="M128.5,45.8c0.3,0,0.5,0,0.8,0c0.1,4.7,0.1,9.3,0.2,14c-0.6-0.3-1.1-0.6-1.7-0.9c0,0-0.4-0.1-0.4-0.1
		C129.4,54.7,127.8,50.1,128.5,45.8z"/>
	<path class="st17" d="M165.4,15.4c0,2.6,0.4,5.1,1.5,7.5c-3.1-1.5-2.5-4.4-2.5-7C164.7,15.7,165.1,15.5,165.4,15.4z"/>
	<path class="st27" d="M162.4,17.9c0.1,2-0.4,3.7-2,5C160.3,20.9,160.7,19.2,162.4,17.9z"/>
	<path class="st27" d="M159.4,25.9c0,2-0.4,3.7-2,5C157.3,28.9,157.7,27.1,159.4,25.9z"/>
	<path class="st6" d="M165.9,13.9c0,0.3-0.1,0.5-0.3,0.7c-1.1-0.1-1.1-0.9-1.2-1.7c0.7-0.7,1.3-1.4,2-2c0,0,0,0,0,0
		C166.2,11.9,166,12.9,165.9,13.9z"/>
	<path class="st27" d="M167.4,57.6c0.7,0.3,1.8,0.3,1.5,1.4c-0.1,0.4-1,0.6-1.5,0.9C167.4,59.1,167.4,58.4,167.4,57.6z"/>
	<path class="st27" d="M158.4,49.8c1.3,0.6,2.1,1.5,2,3C159,52.3,158.4,51.3,158.4,49.8z"/>
	<path class="st27" d="M163.4,15.9c-0.1,0.8-0.2,1.6-1.1,2C162.8,17.3,161.3,15.6,163.4,15.9z"/>
	<path class="st27" d="M160.4,22.9c0,1.1,0.2,2.3-1,3C159.4,24.8,159.2,23.6,160.4,22.9z"/>
	<path class="st27" d="M156.4,44.8c1.2,0.7,1,1.9,1,3C156.2,47.1,156.4,45.9,156.4,44.8z"/>
	<path class="st27" d="M157.4,47.8c0.9,0.4,1,1.2,1,2C157.5,49.4,157.4,48.7,157.4,47.8z"/>
	<path class="st27" d="M162.4,54.8c0.9,0,1.6,0.2,2,1C163.5,55.9,162.8,55.7,162.4,54.8z"/>
	<path class="st27" d="M167.4,59.9c-0.3,0.4-0.7,0.8-1,1.3C166.7,60.7,167,60.3,167.4,59.9z"/>
	<path class="st27" d="M164.3,55.8c0.4,0.3,0.8,0.7,1.3,1C165.2,56.5,164.8,56.2,164.3,55.8z"/>
	<path class="st27" d="M161.4,53.8c0.3,0.3,0.7,0.7,1,1C162,54.5,161.7,54.2,161.4,53.8z"/>
	<path class="st27" d="M160.4,52.8c0.3,0.3,0.7,0.7,1,1C161,53.5,160.7,53.2,160.4,52.8z"/>
	<path class="st22" d="M33.3,34c0.4,0.8,1.2,0.9,2,0.9c-0.3,0.4-0.6,0.7-0.9,1.1c-1.3,0-2.6-0.1-3.9-0.1c-4-1-8-2-12-3.1
		c1.9-3.6,5.3-1.2,7.9-1.9c0.7,1.1,1.9,0.9,3,1.1c0.4,0.8,1.2,0.8,2,0.9C32,33.4,32.6,33.7,33.3,34z"/>
	<path class="st22" d="M88.4,23.9c1.3-2.3,2.4-4.9,5.9-4c1.1,1.1,0.6,3.1,2.1,4l0-0.1c-0.3,4.8,1.2,9.4,1.4,14.1
		c-0.5,1.1-0.9,2.2,0.6,2.9c-0.1,5.9-0.2,11.8-0.2,17.8c-4.1,0.8-4.8-1.7-4.7-4.9c0-1.9,0.1-3.5-2.6-3.7c-3.9-0.3-6.9-5.8-4.1-7.9
		c4.3-3.3,0.2-5.5,0.4-8.1c0.1-1.7,0.2-3.4,0.4-5.2l0,0.1C89.1,27.5,88.2,25.6,88.4,23.9L88.4,23.9z"/>
	<path class="st22" d="M85.4,82.8c-0.3,0.9-1,0.8-1.8,0.7c-2-1.4-3.6-3.3-6.2-3.7c0,0,0,0,0,0c0-0.7-0.4-1-1-1c0,0,0,0,0,0
		c0-0.7-0.4-1-1-1c0,0,0,0,0,0c0.2-1.6-0.6-2.5-2-3c0,0,0,0,0,0c-0.1-0.6-0.3-1-1-1c0,0,0,0,0,0c0.1-0.9,0.1-1.7-1-2c0,0,0,0,0,0
		c0.1-0.9,0-1.7-1-2c0,0,0,0,0,0c0-0.9,0.1-1.7-1-2c0,0,0,0,0,0c0-1.1,0.4-2.4-1-3c0,0,0,0,0,0c0.2-1.1-0.3-2.4,1-3.1
		c3.6-2.8,5.6-2.3,8,2.1l-0.1-0.1c0.1,1.3,0.1,2.6,0.2,3.9c0,1.6,0.3,3.1,1.8,4.1l0,0c-0.2,1.3,0,2.5,1,3.5c0.5,1.2,1,2.3,1.5,3.5
		c0.7,1.1,1,2.5,2.5,3.1l0,0C84.7,82.2,85.1,82.5,85.4,82.8L85.4,82.8z"/>
	<path class="st5" d="M109.1,45.5c0,0.6,0.1,1.1,0.1,1.7c-1.2,1.1-1,3.5-3.5,3.5c-2.3,0-1.4,2.2-1.6,3.5c-0.4,2.7-1.1,5-4.6,4.5
		c-0.1-6-0.2-11.9-0.4-17.9c0.7-0.4,1.9-0.7,2-1.1c0.2-2.2,1.1-3.2,3.4-2.9c2.9,0.3,2.4,2.6,2.9,4.4
		C107.9,42.6,106.4,44.8,109.1,45.5z"/>
	<path class="st5" d="M81.9,78.8c-0.5-1.2-1-2.3-1.5-3.5c0-1.3,0.3-2.6-1-3.5c0,0,0,0,0,0c0-1.4-0.1-2.7-0.1-4.1
		c0.2-7.5,0.2-7.5,8.1-5.7c0,1-0.1,2-0.1,3c-1.3,1.8-0.6,3.7-0.6,5.6c0,2.5,0.3,5,1.8,7.1l0-0.1c0.1,1.4-0.4,3,1,4.1l0-0.1
		c0.3,0.8,0.7,1.7,1,2.5l0,0.1c-2.1,1-3.1-1.9-5-1.6c0,0,0,0,0,0c0-0.6-0.4-1-1-1c0,0,0,0,0,0C84.4,80.1,83.7,79,81.9,78.8z"/>
	<path class="st22" d="M99.4,84c0-0.4,0-0.8,0-1.2c0,0,0,0,0,0c0.3-0.3,0.7-0.7,1-1l0,0c1.8-1.2,2.8-2.9,3-5l0,0c1.7-1.3,2.1-3,2-5
		l0,0.1c2.7-3.2,2.8-7.1,3-11c1.8-1,3.3-1.1,3.2,1.5c-0.2,4.8,1.9,2.6,3.8,1.3c0,1.3-0.1,2.7-0.1,4c-0.9,0.4-0.9,1.2-1,2
		c-0.9,0.4-0.9,1.2-1,2c-0.3,0.4-0.6,0.7-0.9,1.1c-0.4,0.6-0.7,1.3-1.1,1.9c-0.6,0.7-1.3,1.4-1.9,2.1c-0.4,0.6-0.8,1.2-1.2,1.9
		c-0.3,0.3-0.6,0.7-0.9,1c-1.7,0.2-2.7,1.2-3.1,2.9C102.2,82,101.1,84,99.4,84z"/>
	<path class="st5" d="M77.4,40.9c0.3-0.1,0.7-0.2,0.9-0.4c1.4-1.3,1-5,4.5-3.7c2.9,1.1,2.5,3.9,2.6,6.2c0.2,3.6,1.4,7.5-5.1,7.4
		c-3.9-0.1-0.7,4.4-2,6.5c-2.5-1.7-2.1-4.4-1.9-6.7C76.8,47.1,77.6,44,77.4,40.9z"/>
	<path class="st5" d="M99.4,82.8c-2-0.4-2.9,2.5-5,1.6c0,0,0-0.1,0-0.1c0.3-0.8,0.7-1.7,1-2.5c0,0,0,0.1,0,0.1c1.1-0.8,1-1.9,1-3
		c1.6-2.4,1.4-5.3,2-8c0.9-0.3,1.9-0.8,2.8-0.8c3.1,0,3.2-1.6,2.2-3.8c-2-4.3-0.4-5.8,4-5.3c-0.6,3.7-1.3,7.3-1.9,11
		c0,0,0-0.1,0-0.1c-1.5,1.3-2.1,3.1-2,5c0,0,0,0,0,0c-1.9,1.1-2.8,2.9-3,5c0,0,0,0,0,0C99.8,81.9,99.4,82.2,99.4,82.8L99.4,82.8z"/>
	<path class="st22" d="M94.4,84.3C94.4,84.3,94.4,84.4,94.4,84.3c-1.3,0.1-2.6,0.1-3.9,0.1c0,0,0-0.1,0-0.1c0-1,0.1-2-1-2.5
		c0,0,0,0.1,0,0.1c-0.1-1.4,0.5-3-1-4.1c0,0,0,0.1,0,0.1c0-2.4,0.1-4.8-1-7c3.3,0,6.6,0.1,9.9,0.1c-0.6,2.6-1.2,5.3-1.8,7.9
		c0,1-0.1,2-0.1,3c0,0,0-0.1,0-0.1C94.2,82.3,94.3,83.3,94.4,84.3z"/>
	<path class="st5" d="M84.9,21.8c0,0,0.2-0.3,0.2-0.2c0.7-0.6,1.5-1.8,2.5-1.3c1.6,0.7,0.5,2.4,0.8,3.6c0,0,0,0,0,0
		c-1.7,1.4-0.8,3.3-1,5.1c0,0,0-0.1,0-0.1c-1.7,0.8-0.3,3.1-2,3.9c-1.5-1.1-0.6-4.6-3.9-3.8c0,0-0.1-0.1-0.1-0.1c0-0.7,0-1.4,0-2
		c0,0,0,0,0,0c0.9-0.4,1.1-1.2,1-2c0,0,0,0,0,0C83.8,24.4,84.2,22.9,84.9,21.8z"/>
	<path class="st24" d="M77.4,40.9c0.2,3.1-0.6,6.2-0.9,9.3c-0.2,2.4-0.6,5,1.9,6.7c-1.9,1.7-4.1,0.8-6.1,0.7
		c2.3-0.7,3.5-1.9,3.2-4.6c-0.4-4.1,0.1-8.2,1-12.2C76.7,40.9,77.1,40.9,77.4,40.9z"/>
	<path class="st23" d="M99.2,40.8c0.1,6,0.2,11.9,0.4,17.9c-0.5,0-1,0-1.5,0c0.1-5.9,0.2-11.8,0.2-17.8
		C98.7,40.8,98.9,40.8,99.2,40.8z"/>
	<path class="st23" d="M105.4,71.9c0.6-3.7,1.3-7.3,1.9-11c0.4,0,0.7,0,1.1,0C108.1,64.7,108,68.7,105.4,71.9z"/>
	<path class="st23" d="M68.4,38.8c-0.4,3.7-0.8,7.4-1.1,11.1c-0.3,0-0.6,0-0.8,0C66.4,46.1,65.8,42.2,68.4,38.8z"/>
	<path class="st24" d="M95.5,78.8c0.6-2.6,1.2-5.3,1.8-7.9c0.4,0,0.7-0.1,1.1-0.1c-0.6,2.7-0.4,5.6-2,8
		C96.1,78.8,95.8,78.8,95.5,78.8z"/>
	<path class="st23" d="M87.4,70.8c1.2,2.2,1.1,4.6,1,7c-1.5-2.2-1.8-4.6-1.8-7.1C86.9,70.8,87.1,70.8,87.4,70.8z"/>
	<path class="st22" d="M87.3,65.1c0-1,0.1-2,0.1-3c4.2,1.3,0.6,3.4,0.5,5.2C86.9,66.8,87.3,65.9,87.3,65.1z"/>
	<path class="st24" d="M78.6,33c-0.2-1.7,0.3-3.2,1.8-4.1c0,0.8,0,1.6,0,2.5C80.4,32.5,79.6,32.9,78.6,33z"/>
	<path class="st23" d="M85.4,32.7c1.7-0.8,0.3-3.1,2-3.9c-0.1,1.7-0.2,3.4-0.4,5.2C86.3,33.8,85.6,33.6,85.4,32.7z"/>
	<path class="st24" d="M79.3,67.8c0,1.4,0.1,2.7,0.1,4.1c-1.5-1-1.8-2.5-1.8-4.1C78.2,67.8,78.7,67.8,79.3,67.8z"/>
	<path class="st24" d="M69.4,61.8c-1.3,0.7-0.8,2-1,3.1c-1.5-1.1-1-2.6-0.9-4.1C68.3,60.8,69,61,69.4,61.8z"/>
	<path class="st22" d="M77.4,63.9c0-0.3-0.4-4.1,0.8-3.1C79.1,61.6,78.2,63.4,77.4,63.9C77.4,63.8,77.4,63.9,77.4,63.9z"/>
	<path class="st24" d="M113.2,55.6c1.3-1,2.8-0.6,4.2-0.7C116.2,56.4,114.7,55.8,113.2,55.6z"/>
	<path class="st22" d="M80.4,31.3c0-0.8,0-1.6,0-2.5c0,0,0,0,0,0c0.3,0,0.7,0,1,0c0,0,0.1,0.1,0.1,0.1
		C81.5,29.9,81.2,30.7,80.4,31.3z"/>
	<path class="st9" d="M99.2,40.8c-0.3,0-0.6,0-0.9,0.1c-1.5-0.7-1.1-1.8-0.6-2.9c0.2-0.7,0.4-1.3,0.6-2c2.7-2.1,3.5-5.3,5.1-8.1
		l0.4-0.1l0.5,0c1,2,2.1,4.1,3,6.1c1.3,2.6,4.4,4.9,1,8.2c-0.4,0.4,0.4,2.1,0.7,3.2c-2.7-0.6-1.2-2.9-1.7-4.4
		c-0.5-1.8,0-4.1-2.9-4.4c-2.3-0.2-3.2,0.7-3.4,2.9C101.1,40.1,99.9,40.4,99.2,40.8z"/>
	<path class="st24" d="M101.5,22.8c0.8,0.4,1,1.1,1.1,2c0,0-0.2,0.2-0.2,0.2c-0.8-0.4-1-1.1-1.1-1.9L101.5,22.8z"/>
	<path class="st24" d="M102.5,24.8c0.8,0.4,1,1.2,1,2c0,0-0.2,0.1-0.2,0.1c-0.8-0.4-1-1.2-1-2L102.5,24.8z"/>
	<path class="st24" d="M104.4,27.9l-0.5,0c0,0-0.4,0.1-0.4,0.1c0-0.3-0.1-0.7-0.1-1c0,0,0.2-0.1,0.2-0.1
		C103.8,27.1,104.1,27.5,104.4,27.9z"/>
	<path class="st24" d="M100.5,21.7c0.3,0.4,0.6,0.7,1,1.1c0,0-0.2,0.2-0.2,0.2c-0.3-0.3-0.6-0.7-0.9-1L100.5,21.7z"/>
	<path class="st24" d="M99.4,20.8c0.4,0.3,0.7,0.6,1.1,0.9c0,0-0.2,0.2-0.2,0.2C100,21.6,99.7,21.2,99.4,20.8L99.4,20.8z"/>
	<path class="st5" d="M99.4,20.9c0.3,0.4,0.6,0.7,0.9,1.1c0.3,0.3,0.6,0.7,0.9,1c0.1,0.8,0.3,1.5,1.1,1.9c0,0.8,0.2,1.6,1,2
		c0,0.3,0.1,0.7,0.1,1c-1.6,2.8-2.4,6-5.1,8.1c0.1-4.2,0-8.3-2-12.1c0,0,0,0.1,0,0.1c0-1.4,0-2.7-0.1-4.1
		C97.3,20.2,98.4,20.5,99.4,20.9z"/>
	<path class="st24" d="M96.3,19.8c0,1.4,0,2.7,0.1,4.1c-1.5-0.9-1-2.9-2.1-4C95,19.9,95.6,19.9,96.3,19.8z"/>
	<path class="st22" d="M128.5,45.8c-0.6,4.3,1,8.8-1.1,13c-0.3-0.3-0.7-0.7-1-1c2-3.9,0.7-8.1,1.1-12.1
		C127.8,45.8,128.1,45.8,128.5,45.8z"/>
	<path class="st22" d="M124.4,35.8c2.4,2.9,3.3,6.3,3.1,10.1c-1.8-0.8-0.2-3.3-2.1-4c-0.1-1.1,0.4-2.3-1-3
		C124.4,37.8,124.4,36.8,124.4,35.8z"/>
	<path class="st23" d="M73.4,74.8c1.4,0.5,2.2,1.5,2,3C74.1,77.3,73.4,76.3,73.4,74.8z"/>
	<path class="st24" d="M68.4,64.8c1.4,0.7,1,1.9,1,3C68.2,67.1,68.4,66,68.4,64.8z"/>
	<path class="st23" d="M69.4,35.8c0,1.1,0.3,2.4-1,3.1C68.4,37.8,68.1,36.5,69.4,35.8z"/>
	<path class="st23" d="M74.4,26.3c0.1,1,0,2-1,2.5C73.2,27.8,73.7,27.1,74.4,26.3z"/>
	<path class="st23" d="M70.9,33.8c-0.5,0.7-1,1.4-1.5,2.1C69.4,34.8,69.6,33.9,70.9,33.8z"/>
	<path class="st24" d="M69.4,67.8c1.1,0.3,1.1,1.2,1,2C69.5,69.5,69.4,68.7,69.4,67.8z"/>
	<path class="st24" d="M70.4,69.8c1.1,0.3,1.1,1.2,1,2C70.5,71.5,70.4,70.7,70.4,69.8z"/>
	<path class="st24" d="M71.4,71.8c1.1,0.3,1.1,1.1,1,2C71.6,73.4,71.4,72.7,71.4,71.8z"/>
	<path class="st23" d="M76.4,78.8c0.7,0,1,0.4,1,1C77.1,79.5,76.7,79.2,76.4,78.8z"/>
	<path class="st23" d="M75.4,77.8c0.7,0,1,0.4,1,1C76.1,78.5,75.7,78.2,75.4,77.8z"/>
	<path class="st24" d="M72.4,73.8c0.7,0,1,0.4,1,1C73.1,74.5,72.7,74.2,72.4,73.8z"/>
	<path class="st23" d="M73.4,28.8c-0.3,0.5-0.7,1-1,1.5C72.4,29.7,72.6,29,73.4,28.8z"/>
	<path class="st24" d="M84.9,21.8c-0.7,1.1-1.1,2.5-2.5,3C82.4,23.1,83.1,22,84.9,21.8z"/>
	<path class="st24" d="M82.4,24.8c0,0.9-0.2,1.6-1,2C81.3,26,81.3,25.1,82.4,24.8z"/>
	<path class="st24" d="M81.4,28.9c-0.3,0-0.7,0-1,0c0-0.9-0.1-1.8,1-2C81.4,27.5,81.4,28.2,81.4,28.9z"/>
	<path class="st23" d="M98.4,17.8c-0.4-0.1-0.9-0.2-1.3-0.3C97.8,16.6,98,17.4,98.4,17.8C98.4,17.9,98.4,17.8,98.4,17.8z"/>
	<path class="st17" d="M168.3,24.3c1.3,0.8,2.7,1.7,4,2.5C170.5,26.9,168.7,26.7,168.3,24.3z"/>
	<path class="st15" d="M160.2,38.7c0.4,0.4,0.8,0.8,1.2,1.2c-0.8,0-1.8,0.5-2.2-0.6C159.1,39.2,159.8,38.9,160.2,38.7z"/>
	<path class="st17" d="M165.9,13.9c0.2-1,0.3-2.1,0.5-3.1c0.8-0.1,1.9-0.1,1.8,1C168.1,13.1,167.2,13.9,165.9,13.9z"/>
	<path class="st24" d="M96.4,23.8c2,3.8,2.1,8,2,12.1c-0.2,0.7-0.4,1.3-0.6,2C97.5,33.2,96,28.6,96.4,23.8z"/>
	<path class="st23" d="M87.4,28.9c0.2-1.7-0.7-3.7,1-5.1C88.2,25.6,89.1,27.5,87.4,28.9z"/>
	<path class="st23" d="M81.9,78.8c1.8,0.2,2.5,1.3,2.5,3.1C83,81.3,82.6,79.9,81.9,78.8z"/>
	<path class="st24" d="M79.4,71.8c1.4,0.9,1.1,2.2,1,3.5C79.4,74.4,79.2,73.1,79.4,71.8z"/>
	<path class="st23" d="M84.4,81.8c0.6,0,1,0.4,1,1C85.1,82.5,84.7,82.2,84.4,81.8z"/>
	<path class="st23" d="M88.4,77.8c1.5,1.1,0.9,2.6,1,4.1C88,80.8,88.5,79.2,88.4,77.8z"/>
	<path class="st23" d="M89.4,81.8c1.2,0.5,1.1,1.5,1,2.5C90.1,83.5,89.7,82.6,89.4,81.8z"/>
	<path class="st23" d="M100.4,81.9c0.2-2.2,1.1-3.9,3-5C103.2,79,102.2,80.7,100.4,81.9z"/>
	<path class="st23" d="M103.4,76.9c-0.1-2,0.5-3.7,2-5C105.5,73.8,105,75.6,103.4,76.9z"/>
	<path class="st23" d="M99.4,82.9c0-0.6,0.4-1,1-1C100.1,82.2,99.7,82.5,99.4,82.9z"/>
	<path class="st23" d="M95.5,78.8c0.3,0,0.6,0,0.9,0c0.1,1.1,0.1,2.3-1,3C95.4,80.9,95.5,79.9,95.5,78.8z"/>
	<path class="st23" d="M94.4,84.3c0-1-0.2-2,1-2.5C95.1,82.6,94.7,83.5,94.4,84.3z"/>
	<text transform="matrix(1 0 0 1 47.2338 118.5915)" class="st28 st29">US Sweets</text>
</g>
</svg>
